<?xml version="1.0" encoding="utf-8" standalone="no"?>
<!DOCTYPE svg PUBLIC "-//W3C//DTD SVG 1.1//EN"
  "http://www.w3.org/Graphics/SVG/1.1/DTD/svg11.dtd">
<!-- Created with matplotlib (https://matplotlib.org/) -->
<svg height="432pt" version="1.1" viewBox="0 0 432 432" width="432pt" xmlns="http://www.w3.org/2000/svg" xmlns:xlink="http://www.w3.org/1999/xlink">
 <metadata>
  <rdf:RDF xmlns:cc="http://creativecommons.org/ns#" xmlns:dc="http://purl.org/dc/elements/1.1/" xmlns:rdf="http://www.w3.org/1999/02/22-rdf-syntax-ns#">
   <cc:Work>
    <dc:type rdf:resource="http://purl.org/dc/dcmitype/StillImage"/>
    <dc:date>2021-02-20T23:20:02.510683</dc:date>
    <dc:format>image/svg+xml</dc:format>
    <dc:creator>
     <cc:Agent>
      <dc:title>Matplotlib v3.3.3, https://matplotlib.org/</dc:title>
     </cc:Agent>
    </dc:creator>
   </cc:Work>
  </rdf:RDF>
 </metadata>
 <defs>
  <style type="text/css">*{stroke-linecap:butt;stroke-linejoin:round;}</style>
 </defs>
 <g id="figure_1">
  <g id="patch_1">
   <path d="M 0 432 
L 432 432 
L 432 0 
L 0 0 
z
" style="fill:#ffffff;"/>
  </g>
  <g id="axes_1">
   <g id="patch_2">
    <path d="M 55.08 384.48 
L 387.72 384.48 
L 387.72 51.84 
L 55.08 51.84 
z
" style="fill:#ffffff;"/>
   </g>
   <g id="Quiver_1">
    <path clip-path="url(#pbfc33a7509)" d="M 69.987595 368.773582 
L 75.569425 366.751805 
L 74.558198 365.791373 
L 81.059591 365.426581 
L 75.832626 369.309881 
L 75.994234 367.92464 
L 70.412405 369.946418 
L 69.987595 368.773582 
" style="fill:#fee838;"/>
    <path clip-path="url(#pbfc33a7509)" d="M 90.074082 368.805696 
L 95.350232 366.08418 
L 94.224092 365.261491 
L 100.624883 364.065222 
L 95.9396 368.587313 
L 95.922068 367.192788 
L 90.645918 369.914304 
L 90.074082 368.805696 
" style="fill:#f6dd3f;"/>
    <path clip-path="url(#pbfc33a7509)" d="M 110.159133 368.851299 
L 115.001209 365.416376 
L 113.770774 364.759842 
L 119.940383 362.677269 
L 115.935978 367.812046 
L 115.722944 366.433777 
L 110.880867 369.868701 
L 110.159133 368.851299 
" style="fill:#ead34c;"/>
    <path clip-path="url(#pbfc33a7509)" d="M 130.245868 368.912193 
L 134.508327 364.7799 
L 133.192256 364.318418 
L 138.972722 361.320519 
L 135.797048 367.00526 
L 135.376591 365.675514 
L 131.114132 369.807807 
L 130.245868 368.912193 
" style="fill:#dfca57;"/>
    <path clip-path="url(#pbfc33a7509)" d="M 150.338462 368.989243 
L 153.867524 364.215342 
L 152.49369 363.975365 
L 157.705879 360.072255 
L 155.502919 366.19991 
L 154.8706 364.956857 
L 151.341538 369.730757 
L 150.338462 368.989243 
" style="fill:#d6c35d;"/>
    <path clip-path="url(#pbfc33a7509)" d="M 170.441787 369.081792 
L 173.089915 363.768429 
L 171.695281 363.770226 
L 176.152001 359.022719 
L 175.04456 365.439475 
L 174.206342 364.324845 
L 171.558213 369.638208 
L 170.441787 369.081792 
" style="fill:#cfbd62;"/>
    <path clip-path="url(#pbfc33a7509)" d="M 190.560687 369.187301 
L 192.20453 363.482725 
L 190.833204 363.736639 
L 194.358139 358.261603 
L 194.429084 364.772836 
L 193.403157 363.828124 
L 191.759313 369.532699 
L 190.560687 369.187301 
" style="fill:#c9b965;"/>
    <path clip-path="url(#pbfc33a7509)" d="M 210.699056 369.301427 
L 211.256587 363.390964 
L 209.956126 363.894761 
L 212.404689 357.861046 
L 213.681788 364.246201 
L 212.498474 363.508111 
L 211.940944 369.418573 
L 210.699056 369.301427 
" style="fill:#c6b667;"/>
    <path clip-path="url(#pbfc33a7509)" d="M 230.859056 369.418573 
L 230.301526 363.508111 
L 229.118212 364.246201 
L 230.395311 357.861046 
L 232.843874 363.894761 
L 231.543413 363.390964 
L 232.100944 369.301427 
L 230.859056 369.418573 
" style="fill:#c6b667;"/>
    <path clip-path="url(#pbfc33a7509)" d="M 251.040687 369.532699 
L 249.396843 363.828124 
L 248.370916 364.772836 
L 248.441861 358.261603 
L 251.966796 363.736639 
L 250.59547 363.482725 
L 252.239313 369.187301 
L 251.040687 369.532699 
" style="fill:#c9b965;"/>
    <path clip-path="url(#pbfc33a7509)" d="M 271.241787 369.638208 
L 268.593658 364.324845 
L 267.75544 365.439475 
L 266.647999 359.022719 
L 271.104719 363.770226 
L 269.710085 363.768429 
L 272.358213 369.081792 
L 271.241787 369.638208 
" style="fill:#cfbd62;"/>
    <path clip-path="url(#pbfc33a7509)" d="M 291.458462 369.730757 
L 287.9294 364.956857 
L 287.297081 366.19991 
L 285.094121 360.072255 
L 290.30631 363.975365 
L 288.932476 364.215342 
L 292.461538 368.989243 
L 291.458462 369.730757 
" style="fill:#d6c35d;"/>
    <path clip-path="url(#pbfc33a7509)" d="M 311.685868 369.807807 
L 307.423409 365.675514 
L 307.002952 367.00526 
L 303.827278 361.320519 
L 309.607744 364.318418 
L 308.291673 364.7799 
L 312.554132 368.912193 
L 311.685868 369.807807 
" style="fill:#dfca57;"/>
    <path clip-path="url(#pbfc33a7509)" d="M 331.919133 369.868701 
L 327.077056 366.433777 
L 326.864022 367.812046 
L 322.859617 362.677269 
L 329.029226 364.759842 
L 327.798791 365.416376 
L 332.640867 368.851299 
L 331.919133 369.868701 
" style="fill:#ead34c;"/>
    <path clip-path="url(#pbfc33a7509)" d="M 352.154082 369.914304 
L 346.877932 367.192788 
L 346.8604 368.587313 
L 342.175117 364.065222 
L 348.575908 365.261491 
L 347.449768 366.08418 
L 352.725918 368.805696 
L 352.154082 369.914304 
" style="fill:#f6dd3f;"/>
    <path clip-path="url(#pbfc33a7509)" d="M 372.387595 369.946418 
L 366.805766 367.92464 
L 366.967374 369.309881 
L 361.740409 365.426581 
L 368.241802 365.791373 
L 367.230575 366.751805 
L 372.812405 368.773582 
L 372.387595 369.946418 
" style="fill:#fee838;"/>
    <path clip-path="url(#pbfc33a7509)" d="M 70.063446 348.591432 
L 75.856109 347.291641 
L 74.974434 346.211059 
L 81.469773 346.671223 
L 75.793758 349.862466 
L 76.129217 348.508776 
L 70.336554 349.808568 
L 70.063446 348.591432 
" style="fill:#f9e03a;"/>
    <path clip-path="url(#pbfc33a7509)" d="M 90.142607 348.615413 
L 95.70701 346.546154 
L 94.687637 345.594373 
L 101.185686 345.174205 
L 95.991994 349.101896 
L 96.141796 347.715329 
L 90.577393 349.784587 
L 90.142607 348.615413 
" style="fill:#ebd44b;"/>
    <path clip-path="url(#pbfc33a7509)" d="M 110.217415 348.654615 
L 115.408668 345.774459 
L 114.258114 344.986274 
L 120.619713 343.596582 
L 116.073622 348.258581 
L 116.013837 346.865228 
L 110.822585 349.745385 
L 110.217415 348.654615 
" style="fill:#dec958;"/>
    <path clip-path="url(#pbfc33a7509)" d="M 130.29135 348.712196 
L 134.934523 345.012824 
L 133.669418 344.425865 
L 139.71341 342.002778 
L 136.001318 347.35269 
L 135.711823 345.988432 
L 131.06865 349.687804 
L 130.29135 348.712196 
" style="fill:#d2c060;"/>
    <path clip-path="url(#pbfc33a7509)" d="M 150.369727 348.790311 
L 154.269358 344.314009 
L 152.919123 343.964904 
L 158.426831 340.49124 
L 155.740761 346.423037 
L 155.209904 345.133386 
L 151.310273 349.609689 
L 150.369727 348.790311 
" style="fill:#c6b667;"/>
    <path clip-path="url(#pbfc33a7509)" d="M 170.459363 348.889012 
L 173.419508 343.74295 
L 172.027246 343.661611 
L 176.759036 339.188207 
L 175.271067 345.527539 
L 174.500781 344.364926 
L 171.540637 349.510988 
L 170.459363 348.889012 
" style="fill:#beaf6b;"/>
    <path clip-path="url(#pbfc33a7509)" d="M 190.567431 349.005414 
L 192.419597 343.365034 
L 191.039873 343.568432 
L 194.763436 338.226498 
L 194.595288 344.735945 
L 193.604735 343.754205 
L 191.752569 349.394586 
L 190.567431 349.005414 
" style="fill:#b8aa6e;"/>
    <path clip-path="url(#pbfc33a7509)" d="M 210.69983 349.133741 
L 211.330521 343.230637 
L 210.023921 343.718288 
L 212.547027 337.715362 
L 213.744944 344.115845 
L 212.570862 343.363156 
L 211.94017 349.266259 
L 210.69983 349.133741 
" style="fill:#b4a76f;"/>
    <path clip-path="url(#pbfc33a7509)" d="M 230.85983 349.266259 
L 230.229138 343.363156 
L 229.055056 344.115845 
L 230.252973 337.715362 
L 232.776079 343.718288 
L 231.469479 343.230637 
L 232.10017 349.133741 
L 230.85983 349.266259 
" style="fill:#b4a76f;"/>
    <path clip-path="url(#pbfc33a7509)" d="M 251.047431 349.394586 
L 249.195265 343.754205 
L 248.204712 344.735945 
L 248.036564 338.226498 
L 251.760127 343.568432 
L 250.380403 343.365034 
L 252.232569 349.005414 
L 251.047431 349.394586 
" style="fill:#b8aa6e;"/>
    <path clip-path="url(#pbfc33a7509)" d="M 271.259363 349.510988 
L 268.299219 344.364926 
L 267.528933 345.527539 
L 266.040964 339.188207 
L 270.772754 343.661611 
L 269.380492 343.74295 
L 272.340637 348.889012 
L 271.259363 349.510988 
" style="fill:#beaf6b;"/>
    <path clip-path="url(#pbfc33a7509)" d="M 291.489727 349.609689 
L 287.590096 345.133386 
L 287.059239 346.423037 
L 284.373169 340.49124 
L 289.880877 343.964904 
L 288.530642 344.314009 
L 292.430273 348.790311 
L 291.489727 349.609689 
" style="fill:#c6b667;"/>
    <path clip-path="url(#pbfc33a7509)" d="M 311.73135 349.687804 
L 307.088177 345.988432 
L 306.798682 347.35269 
L 303.08659 342.002778 
L 309.130582 344.425865 
L 307.865477 345.012824 
L 312.50865 348.712196 
L 311.73135 349.687804 
" style="fill:#d2c060;"/>
    <path clip-path="url(#pbfc33a7509)" d="M 331.977415 349.745385 
L 326.786163 346.865228 
L 326.726378 348.258581 
L 322.180287 343.596582 
L 328.541886 344.986274 
L 327.391332 345.774459 
L 332.582585 348.654615 
L 331.977415 349.745385 
" style="fill:#dec958;"/>
    <path clip-path="url(#pbfc33a7509)" d="M 352.222607 349.784587 
L 346.658204 347.715329 
L 346.808006 349.101896 
L 341.614314 345.174205 
L 348.112363 345.594373 
L 347.09299 346.546154 
L 352.657393 348.615413 
L 352.222607 349.784587 
" style="fill:#ebd44b;"/>
    <path clip-path="url(#pbfc33a7509)" d="M 372.463446 349.808568 
L 366.670783 348.508776 
L 367.006242 349.862466 
L 361.330227 346.671223 
L 367.825566 346.211059 
L 366.943891 347.291641 
L 372.736554 348.591432 
L 372.463446 349.808568 
" style="fill:#f9e03a;"/>
    <path clip-path="url(#pbfc33a7509)" d="M 70.157392 328.417757 
L 76.080223 328.012193 
L 75.372764 326.810315 
L 81.723017 328.250964 
L 75.628412 330.543772 
L 76.165439 329.256679 
L 70.242608 329.662243 
L 70.157392 328.417757 
" style="fill:#f1d945;"/>
    <path clip-path="url(#pbfc33a7509)" d="M 90.23041 328.429911 
L 96.037551 327.196411 
L 95.168283 326.105823 
L 101.657939 326.640193 
L 95.945821 329.766355 
L 96.29673 328.416588 
L 90.48959 329.650089 
L 90.23041 328.429911 
" style="fill:#e2cd54;"/>
    <path clip-path="url(#pbfc33a7509)" d="M 110.294702 328.458414 
L 115.830543 326.313915 
L 114.798362 325.37604 
L 121.290118 324.867824 
L 116.150147 328.865558 
L 116.281138 327.477088 
L 110.745298 329.621586 
L 110.294702 328.458414 
" style="fill:#d3c05f;"/>
    <path clip-path="url(#pbfc33a7509)" d="M 130.353616 328.508516 
L 135.412553 325.401821 
L 134.228301 324.665238 
L 140.522291 322.995845 
L 136.186607 327.85414 
L 136.065322 326.464788 
L 131.006384 329.571484 
L 130.353616 328.508516 
" style="fill:#c4b468;"/>
    <path clip-path="url(#pbfc33a7509)" d="M 150.413639 328.584788 
L 154.746587 324.526467 
L 153.438654 324.042402 
L 159.26986 321.144434 
L 155.996817 326.773677 
L 155.599309 325.436892 
L 151.266361 329.495212 
L 150.413639 328.584788 
" style="fill:#b7a96e;"/>
    <path clip-path="url(#pbfc33a7509)" d="M 170.484449 328.688989 
L 173.825552 323.781705 
L 172.443438 323.595235 
L 177.5002 319.492755 
L 175.536746 325.7013 
L 174.856654 324.483727 
L 171.515551 329.391011 
L 170.484449 328.688989 
" style="fill:#aba072;"/>
    <path clip-path="url(#pbfc33a7509)" d="M 190.577119 328.818075 
L 192.68952 323.269907 
L 191.301832 323.408937 
L 195.269731 318.245899 
L 194.799121 324.74049 
L 193.855283 323.713758 
L 191.742881 329.261925 
L 190.577119 328.818075 
" style="fill:#a39a74;"/>
    <path clip-path="url(#pbfc33a7509)" d="M 210.700941 328.964055 
L 211.423827 323.07153 
L 210.109764 323.538699 
L 212.726393 317.575945 
L 213.824118 323.99437 
L 212.661945 323.223421 
L 211.939059 329.115945 
L 210.700941 328.964055 
" style="fill:#9f9775;"/>
    <path clip-path="url(#pbfc33a7509)" d="M 230.860941 329.115945 
L 230.138055 323.223421 
L 228.975882 323.99437 
L 230.073607 317.575945 
L 232.690236 323.538699 
L 231.376173 323.07153 
L 232.099059 328.964055 
L 230.860941 329.115945 
" style="fill:#9f9775;"/>
    <path clip-path="url(#pbfc33a7509)" d="M 251.057119 329.261925 
L 248.944717 323.713758 
L 248.000879 324.74049 
L 247.530269 318.245899 
L 251.498168 323.408937 
L 250.11048 323.269907 
L 252.222881 328.818075 
L 251.057119 329.261925 
" style="fill:#a39a74;"/>
    <path clip-path="url(#pbfc33a7509)" d="M 271.284449 329.391011 
L 267.943346 324.483727 
L 267.263254 325.7013 
L 265.2998 319.492755 
L 270.356562 323.595235 
L 268.974448 323.781705 
L 272.315551 328.688989 
L 271.284449 329.391011 
" style="fill:#aba072;"/>
    <path clip-path="url(#pbfc33a7509)" d="M 291.533639 329.495212 
L 287.200691 325.436892 
L 286.803183 326.773677 
L 283.53014 321.144434 
L 289.361346 324.042402 
L 288.053413 324.526467 
L 292.386361 328.584788 
L 291.533639 329.495212 
" style="fill:#b7a96e;"/>
    <path clip-path="url(#pbfc33a7509)" d="M 311.793616 329.571484 
L 306.734678 326.464788 
L 306.613393 327.85414 
L 302.277709 322.995845 
L 308.571699 324.665238 
L 307.387447 325.401821 
L 312.446384 328.508516 
L 311.793616 329.571484 
" style="fill:#c4b468;"/>
    <path clip-path="url(#pbfc33a7509)" d="M 332.054702 329.621586 
L 326.518862 327.477088 
L 326.649853 328.865558 
L 321.509882 324.867824 
L 328.001638 325.37604 
L 326.969457 326.313915 
L 332.505298 328.458414 
L 332.054702 329.621586 
" style="fill:#d3c05f;"/>
    <path clip-path="url(#pbfc33a7509)" d="M 352.31041 329.650089 
L 346.50327 328.416588 
L 346.854179 329.766355 
L 341.142061 326.640193 
L 347.631717 326.105823 
L 346.762449 327.196411 
L 352.56959 328.429911 
L 352.31041 329.650089 
" style="fill:#e2cd54;"/>
    <path clip-path="url(#pbfc33a7509)" d="M 372.557392 329.662243 
L 366.634561 329.256679 
L 367.171588 330.543772 
L 361.076983 328.250964 
L 367.427236 326.810315 
L 366.719777 328.012193 
L 372.642608 328.417757 
L 372.557392 329.662243 
" style="fill:#f1d945;"/>
    <path clip-path="url(#pbfc33a7509)" d="M 70.272782 308.260561 
L 76.168922 308.95334 
L 75.695048 307.641681 
L 81.671089 310.22782 
L 75.258354 311.358313 
L 76.023357 310.192218 
L 70.127218 309.499439 
L 70.272782 308.260561 
" style="fill:#ebd44b;"/>
    <path clip-path="url(#pbfc33a7509)" d="M 90.343095 308.256529 
L 96.277614 308.095621 
L 95.620334 306.865584 
L 101.905757 308.56695 
L 95.721762 310.606409 
L 96.311424 309.342563 
L 90.376905 309.503471 
L 90.343095 308.256529 
" style="fill:#dac65b;"/>
    <path clip-path="url(#pbfc33a7509)" d="M 110.398585 308.268232 
L 116.221711 307.112543 
L 115.367113 306.010422 
L 121.849038 306.631579 
L 116.095602 309.68103 
L 116.46454 308.336079 
L 110.641415 309.491768 
L 110.398585 308.268232 
" style="fill:#c7b767;"/>
    <path clip-path="url(#pbfc33a7509)" d="M 130.441108 308.303864 
L 135.925065 306.029964 
L 134.871144 305.116585 
L 141.349177 304.456069 
L 136.304498 308.573398 
L 136.402849 307.182235 
L 130.918892 309.456136 
L 130.441108 308.303864 
" style="fill:#b7a96e;"/>
    <path clip-path="url(#pbfc33a7509)" d="M 150.477551 308.372425 
L 155.308912 304.922446 
L 154.076439 304.269746 
L 160.239536 302.167979 
L 156.251134 307.315195 
L 156.033811 305.937596 
L 151.202449 309.387575 
L 150.477551 308.372425 
" style="fill:#a59c74;"/>
    <path clip-path="url(#pbfc33a7509)" d="M 170.521611 308.479818 
L 174.330748 303.926262 
L 172.973788 303.604287 
L 178.410773 300.02094 
L 175.844123 306.005378 
L 175.287527 304.726625 
L 171.478389 309.280182 
L 170.521611 308.479818 
" style="fill:#979177;"/>
    <path clip-path="url(#pbfc33a7509)" d="M 190.591454 308.623569 
L 193.032302 303.211853 
L 191.638778 303.267536 
L 195.908731 298.35137 
L 195.050054 304.806124 
L 194.169394 303.724715 
L 191.728546 309.136431 
L 190.591454 308.623569 
" style="fill:#8e8978;"/>
    <path clip-path="url(#pbfc33a7509)" d="M 210.702572 308.791769 
L 211.542402 302.914772 
L 210.219316 303.355737 
L 212.95391 297.446154 
L 213.923882 303.885124 
L 212.777257 303.091234 
L 211.937428 308.968231 
L 210.702572 308.791769 
" style="fill:#888578;"/>
    <path clip-path="url(#pbfc33a7509)" d="M 230.862572 308.968231 
L 230.022743 303.091234 
L 228.876118 303.885124 
L 229.84609 297.446154 
L 232.580684 303.355737 
L 231.257598 302.914772 
L 232.097428 308.791769 
L 230.862572 308.968231 
" style="fill:#888578;"/>
    <path clip-path="url(#pbfc33a7509)" d="M 251.071454 309.136431 
L 248.630606 303.724715 
L 247.749946 304.806124 
L 246.891269 298.35137 
L 251.161222 303.267536 
L 249.767698 303.211853 
L 252.208546 308.623569 
L 251.071454 309.136431 
" style="fill:#8e8978;"/>
    <path clip-path="url(#pbfc33a7509)" d="M 271.321611 309.280182 
L 267.512473 304.726625 
L 266.955877 306.005378 
L 264.389227 300.02094 
L 269.826212 303.604287 
L 268.469252 303.926262 
L 272.278389 308.479818 
L 271.321611 309.280182 
" style="fill:#979177;"/>
    <path clip-path="url(#pbfc33a7509)" d="M 291.597551 309.387575 
L 286.766189 305.937596 
L 286.548866 307.315195 
L 282.560464 302.167979 
L 288.723561 304.269746 
L 287.491088 304.922446 
L 292.322449 308.372425 
L 291.597551 309.387575 
" style="fill:#a59c74;"/>
    <path clip-path="url(#pbfc33a7509)" d="M 311.881108 309.456136 
L 306.397151 307.182235 
L 306.495502 308.573398 
L 301.450823 304.456069 
L 307.928856 305.116585 
L 306.874935 306.029964 
L 312.358892 308.303864 
L 311.881108 309.456136 
" style="fill:#b7a96e;"/>
    <path clip-path="url(#pbfc33a7509)" d="M 332.158585 309.491768 
L 326.33546 308.336079 
L 326.704398 309.68103 
L 320.950962 306.631579 
L 327.432887 306.010422 
L 326.578289 307.112543 
L 332.401415 308.268232 
L 332.158585 309.491768 
" style="fill:#c7b767;"/>
    <path clip-path="url(#pbfc33a7509)" d="M 352.423095 309.503471 
L 346.488576 309.342563 
L 347.078238 310.606409 
L 340.894243 308.56695 
L 347.179666 306.865584 
L 346.522386 308.095621 
L 352.456905 308.256529 
L 352.423095 309.503471 
" style="fill:#dac65b;"/>
    <path clip-path="url(#pbfc33a7509)" d="M 372.672782 309.499439 
L 366.776643 310.192218 
L 367.541646 311.358313 
L 361.128911 310.22782 
L 367.104952 307.641681 
L 366.631078 308.95334 
L 372.527218 308.260561 
L 372.672782 309.499439 
" style="fill:#ebd44b;"/>
    <path clip-path="url(#pbfc33a7509)" d="M 70.410761 288.132989 
L 75.998233 290.139119 
L 75.832744 288.754336 
L 81.07057 292.622975 
L 74.56818 292.276401 
L 75.576712 291.31314 
L 69.989239 289.307011 
L 70.410761 288.132989 
" style="fill:#e6d051;"/>
    <path clip-path="url(#pbfc33a7509)" d="M 90.48579 288.109117 
L 96.300495 289.30645 
L 95.941192 287.958893 
L 101.672656 291.049443 
L 95.186452 291.624194 
L 96.048916 290.528217 
L 90.23421 289.330883 
L 90.48579 288.109117 
" style="fill:#d2c060;"/>
    <path clip-path="url(#pbfc33a7509)" d="M 110.538867 288.096585 
L 116.47285 288.276168 
L 115.887169 287.010472 
L 122.064714 289.069383 
L 115.773969 290.75096 
L 116.435117 289.522997 
L 110.501133 289.343415 
L 110.538867 288.096585 
" style="fill:#beaf6b;"/>
    <path clip-path="url(#pbfc33a7509)" d="M 130.567333 288.106561 
L 136.406365 287.034133 
L 135.567591 285.919922 
L 142.039986 286.633565 
L 136.243596 289.600558 
L 136.6317 288.261012 
L 130.792667 289.333439 
L 130.567333 288.106561 
" style="fill:#a99f73;"/>
    <path clip-path="url(#pbfc33a7509)" d="M 150.574898 288.155445 
L 155.948629 285.632069 
L 154.85387 284.76806 
L 161.294729 283.810709 
L 156.444481 288.155392 
L 156.478832 286.76118 
L 151.105102 289.284555 
L 150.574898 288.155445 
" style="fill:#948e77;"/>
    <path clip-path="url(#pbfc33a7509)" d="M 170.579341 288.259514 
L 174.962488 284.255462 
L 173.660684 283.755149 
L 179.527524 280.930017 
L 176.184638 286.518067 
L 175.803806 285.176435 
L 171.420659 289.180486 
L 170.579341 288.259514 
" style="fill:#828079;"/>
    <path clip-path="url(#pbfc33a7509)" d="M 190.613134 288.420101 
L 193.467726 283.214747 
L 192.074095 283.161816 
L 196.713681 278.592852 
L 195.355291 284.961208 
L 194.561458 283.814545 
L 191.706866 289.019899 
L 190.613134 288.420101 
" style="fill:#767676;"/>
    <path clip-path="url(#pbfc33a7509)" d="M 210.70494 288.616546 
L 211.689673 282.762085 
L 210.356098 283.170236 
L 213.235823 277.329999 
L 214.046459 283.790963 
L 212.919793 282.968994 
L 211.93506 288.823454 
L 210.70494 288.616546 
" style="fill:#707173;"/>
    <path clip-path="url(#pbfc33a7509)" d="M 230.86494 288.823454 
L 229.880207 282.968994 
L 228.753541 283.790963 
L 229.564177 277.329999 
L 232.443902 283.170236 
L 231.110327 282.762085 
L 232.09506 288.616546 
L 230.86494 288.823454 
" style="fill:#707173;"/>
    <path clip-path="url(#pbfc33a7509)" d="M 251.093134 289.019899 
L 248.238542 283.814545 
L 247.444709 284.961208 
L 246.086319 278.592852 
L 250.725905 283.161816 
L 249.332274 283.214747 
L 252.186866 288.420101 
L 251.093134 289.019899 
" style="fill:#767676;"/>
    <path clip-path="url(#pbfc33a7509)" d="M 271.379341 289.180486 
L 266.996194 285.176435 
L 266.615362 286.518067 
L 263.272476 280.930017 
L 269.139316 283.755149 
L 267.837512 284.255462 
L 272.220659 288.259514 
L 271.379341 289.180486 
" style="fill:#828079;"/>
    <path clip-path="url(#pbfc33a7509)" d="M 291.694898 289.284555 
L 286.321168 286.76118 
L 286.355519 288.155392 
L 281.505271 283.810709 
L 287.94613 284.76806 
L 286.851371 285.632069 
L 292.225102 288.155445 
L 291.694898 289.284555 
" style="fill:#948e77;"/>
    <path clip-path="url(#pbfc33a7509)" d="M 312.007333 289.333439 
L 306.1683 288.261012 
L 306.556404 289.600558 
L 300.760014 286.633565 
L 307.232409 285.919922 
L 306.393635 287.034133 
L 312.232667 288.106561 
L 312.007333 289.333439 
" style="fill:#a99f73;"/>
    <path clip-path="url(#pbfc33a7509)" d="M 332.298867 289.343415 
L 326.364883 289.522997 
L 327.026031 290.75096 
L 320.735286 289.069383 
L 326.912831 287.010472 
L 326.32715 288.276168 
L 332.261133 288.096585 
L 332.298867 289.343415 
" style="fill:#beaf6b;"/>
    <path clip-path="url(#pbfc33a7509)" d="M 352.56579 289.330883 
L 346.751084 290.528217 
L 347.613548 291.624194 
L 341.127344 291.049443 
L 346.858808 287.958893 
L 346.499505 289.30645 
L 352.31421 288.109117 
L 352.56579 289.330883 
" style="fill:#d2c060;"/>
    <path clip-path="url(#pbfc33a7509)" d="M 372.810761 289.307011 
L 367.223288 291.31314 
L 368.23182 292.276401 
L 361.72943 292.622975 
L 366.967256 288.754336 
L 366.801767 290.139119 
L 372.389239 288.132989 
L 372.810761 289.307011 
" style="fill:#e6d051;"/>
    <path clip-path="url(#pbfc33a7509)" d="M 70.565174 268.054382 
L 75.37791 271.530295 
L 75.60264 270.153885 
L 79.563301 275.322477 
L 73.411597 273.187594 
L 74.647563 272.541531 
L 69.834826 269.065618 
L 70.565174 268.054382 
" style="fill:#e2cd54;"/>
    <path clip-path="url(#pbfc33a7509)" d="M 90.657693 268.01193 
L 95.874508 270.845522 
L 95.921823 269.451689 
L 100.509447 274.072824 
L 94.135668 272.74011 
L 95.279123 271.941662 
L 90.062307 269.10807 
L 90.657693 268.01193 
" style="fill:#cebc63;"/>
    <path clip-path="url(#pbfc33a7509)" d="M 110.723797 267.970535 
L 116.334627 269.910379 
L 116.152756 268.527653 
L 121.436012 272.334015 
L 114.929975 272.064441 
L 115.927033 271.089308 
L 110.316203 269.149465 
L 110.723797 267.970535 
" style="fill:#b7a96e;"/>
    <path clip-path="url(#pbfc33a7509)" d="M 130.752042 267.940475 
L 136.649005 268.62621 
L 136.173565 267.315117 
L 142.152691 269.894115 
L 135.741311 271.032269 
L 136.504921 269.865261 
L 130.607958 269.179525 
L 130.752042 267.940475 
" style="fill:#9d9576;"/>
    <path clip-path="url(#pbfc33a7509)" d="M 150.732184 267.945689 
L 156.579511 266.919444 
L 155.749569 265.798638 
L 162.216122 266.563413 
L 156.396463 269.484502 
L 156.795142 268.148065 
L 150.947816 269.174311 
L 150.732184 267.945689 
" style="fill:#848279;"/>
    <path clip-path="url(#pbfc33a7509)" d="M 170.675717 268.027232 
L 175.746881 264.940534 
L 174.565546 264.199281 
L 180.866078 262.554752 
L 176.511246 267.39589 
L 176.395447 266.006071 
L 171.324283 269.092768 
L 170.675717 268.027232 
" style="fill:#6c6e72;"/>
    <path clip-path="url(#pbfc33a7509)" d="M 190.645535 268.207399 
L 194.001773 263.310454 
L 192.620242 263.119717 
L 197.689646 259.032869 
L 195.707033 265.235323 
L 195.030703 264.015656 
L 191.674465 268.912601 
L 190.645535 268.207399 
" style="fill:#5c616e;"/>
    <path clip-path="url(#pbfc33a7509)" d="M 210.707901 268.440267 
L 211.847585 262.613988 
L 210.503653 262.98662 
L 213.537284 257.224827 
L 214.176249 263.70502 
L 213.071783 262.853454 
L 211.932099 268.679733 
L 210.707901 268.440267 
" style="fill:#535a6d;"/>
    <path clip-path="url(#pbfc33a7509)" d="M 230.867901 268.679733 
L 229.728217 262.853454 
L 228.623751 263.70502 
L 229.262716 257.224827 
L 232.296347 262.98662 
L 230.952415 262.613988 
L 232.092099 268.440267 
L 230.867901 268.679733 
" style="fill:#535a6d;"/>
    <path clip-path="url(#pbfc33a7509)" d="M 251.125535 268.912601 
L 247.769297 264.015656 
L 247.092967 265.235323 
L 245.110354 259.032869 
L 250.179758 263.119717 
L 248.798227 263.310454 
L 252.154465 268.207399 
L 251.125535 268.912601 
" style="fill:#5c616e;"/>
    <path clip-path="url(#pbfc33a7509)" d="M 271.475717 269.092768 
L 266.404553 266.006071 
L 266.288754 267.39589 
L 261.933922 262.554752 
L 268.234454 264.199281 
L 267.053119 264.940534 
L 272.124283 268.027232 
L 271.475717 269.092768 
" style="fill:#6c6e72;"/>
    <path clip-path="url(#pbfc33a7509)" d="M 291.852184 269.174311 
L 286.004858 268.148065 
L 286.403537 269.484502 
L 280.583878 266.563413 
L 287.050431 265.798638 
L 286.220489 266.919444 
L 292.067816 267.945689 
L 291.852184 269.174311 
" style="fill:#848279;"/>
    <path clip-path="url(#pbfc33a7509)" d="M 312.192042 269.179525 
L 306.295079 269.865261 
L 307.058689 271.032269 
L 300.647309 269.894115 
L 306.626435 267.315117 
L 306.150995 268.62621 
L 312.047958 267.940475 
L 312.192042 269.179525 
" style="fill:#9d9576;"/>
    <path clip-path="url(#pbfc33a7509)" d="M 332.483797 269.149465 
L 326.872967 271.089308 
L 327.870025 272.064441 
L 321.363988 272.334015 
L 326.647244 268.527653 
L 326.465373 269.910379 
L 332.076203 267.970535 
L 332.483797 269.149465 
" style="fill:#b7a96e;"/>
    <path clip-path="url(#pbfc33a7509)" d="M 352.737693 269.10807 
L 347.520877 271.941662 
L 348.664332 272.74011 
L 342.290553 274.072824 
L 346.878177 269.451689 
L 346.925492 270.845522 
L 352.142307 268.01193 
L 352.737693 269.10807 
" style="fill:#cebc63;"/>
    <path clip-path="url(#pbfc33a7509)" d="M 372.965174 269.065618 
L 368.152437 272.541531 
L 369.388403 273.187594 
L 363.236699 275.322477 
L 367.19736 270.153885 
L 367.42209 271.530295 
L 372.234826 268.054382 
L 372.965174 269.065618 
" style="fill:#e2cd54;"/>
    <path clip-path="url(#pbfc33a7509)" d="M 70.713321 248.045736 
L 74.085389 252.931794 
L 74.757768 251.709945 
L 76.760443 257.90595 
L 71.67784 253.835529 
L 73.058747 253.640322 
L 69.686679 248.754264 
L 70.713321 248.045736 
" style="fill:#e0cb56;"/>
    <path clip-path="url(#pbfc33a7509)" d="M 90.837639 247.998923 
L 94.655295 252.545341 
L 95.209496 251.265549 
L 97.787345 257.245171 
L 92.343661 253.672008 
L 93.700016 253.347494 
L 89.882361 248.801077 
L 90.837639 247.998923 
" style="fill:#cbb965;"/>
    <path clip-path="url(#pbfc33a7509)" d="M 110.941812 247.94057 
L 115.314909 251.955596 
L 115.699102 250.614923 
L 119.02797 256.211335 
L 113.16823 253.371505 
L 114.471284 252.874456 
L 110.098188 248.85943 
L 110.941812 247.94057 
" style="fill:#b3a670;"/>
    <path clip-path="url(#pbfc33a7509)" d="M 131.008266 247.869676 
L 136.056162 250.99428 
L 136.18237 249.605367 
L 140.50081 254.478996 
L 134.212775 252.787309 
L 135.399631 252.054928 
L 130.351734 248.930324 
L 131.008266 247.869676 
" style="fill:#958f77;"/>
    <path clip-path="url(#pbfc33a7509)" d="M 150.999895 247.797144 
L 156.738191 249.319106 
L 156.455124 247.953499 
L 162.004 251.361015 
L 155.495755 251.570635 
L 156.418401 250.524818 
L 150.680105 249.002856 
L 150.999895 247.797144 
" style="fill:#767676;"/>
    <path clip-path="url(#pbfc33a7509)" d="M 170.861807 247.791802 
L 176.650949 246.476413 
L 175.766366 245.39821 
L 182.262921 245.840877 
L 176.595522 249.047397 
L 176.927334 247.692809 
L 171.138193 249.008198 
L 170.861807 247.791802 
" style="fill:#545a6d;"/>
    <path clip-path="url(#pbfc33a7509)" d="M 190.686516 247.994027 
L 194.550781 243.487158 
L 193.197839 243.148696 
L 198.678025 239.631773 
L 196.038744 245.584536 
L 195.497749 244.299105 
L 191.633484 248.805973 
L 190.686516 247.994027 
" style="fill:#38476c;"/>
    <path clip-path="url(#pbfc33a7509)" d="M 210.708743 248.276036 
L 211.888698 242.457779 
L 210.542221 242.821107 
L 213.615632 237.080434 
L 214.20976 243.564892 
L 213.111211 242.705707 
L 211.931257 248.523964 
L 210.708743 248.276036 
" style="fill:#2d416d;"/>
    <path clip-path="url(#pbfc33a7509)" d="M 230.868743 248.523964 
L 229.688789 242.705707 
L 228.59024 243.564892 
L 229.184368 237.080434 
L 232.257779 242.821107 
L 230.911302 242.457779 
L 232.091257 248.276036 
L 230.868743 248.523964 
" style="fill:#2d416d;"/>
    <path clip-path="url(#pbfc33a7509)" d="M 251.166516 248.805973 
L 247.302251 244.299105 
L 246.761256 245.584536 
L 244.121975 239.631773 
L 249.602161 243.148696 
L 248.249219 243.487158 
L 252.113484 247.994027 
L 251.166516 248.805973 
" style="fill:#38476c;"/>
    <path clip-path="url(#pbfc33a7509)" d="M 271.661807 249.008198 
L 265.872666 247.692809 
L 266.204478 249.047397 
L 260.537079 245.840877 
L 267.033634 245.39821 
L 266.149051 246.476413 
L 271.938193 247.791802 
L 271.661807 249.008198 
" style="fill:#545a6d;"/>
    <path clip-path="url(#pbfc33a7509)" d="M 292.119895 249.002856 
L 286.381599 250.524818 
L 287.304245 251.570635 
L 280.796 251.361015 
L 286.344876 247.953499 
L 286.061809 249.319106 
L 291.800105 247.797144 
L 292.119895 249.002856 
" style="fill:#767676;"/>
    <path clip-path="url(#pbfc33a7509)" d="M 312.448266 248.930324 
L 307.400369 252.054928 
L 308.587225 252.787309 
L 302.29919 254.478996 
L 306.61763 249.605367 
L 306.743838 250.99428 
L 311.791734 247.869676 
L 312.448266 248.930324 
" style="fill:#958f77;"/>
    <path clip-path="url(#pbfc33a7509)" d="M 332.701812 248.85943 
L 328.328716 252.874456 
L 329.63177 253.371505 
L 323.77203 256.211335 
L 327.100898 250.614923 
L 327.485091 251.955596 
L 331.858188 247.94057 
L 332.701812 248.85943 
" style="fill:#b3a670;"/>
    <path clip-path="url(#pbfc33a7509)" d="M 352.917639 248.801077 
L 349.099984 253.347494 
L 350.456339 253.672008 
L 345.012655 257.245171 
L 347.590504 251.265549 
L 348.144705 252.545341 
L 351.962361 247.998923 
L 352.917639 248.801077 
" style="fill:#cbb965;"/>
    <path clip-path="url(#pbfc33a7509)" d="M 373.113321 248.754264 
L 369.741253 253.640322 
L 371.12216 253.835529 
L 366.039557 257.90595 
L 368.042232 251.709945 
L 368.714611 252.931794 
L 372.086679 248.045736 
L 373.113321 248.754264 
" style="fill:#e0cb56;"/>
    <path clip-path="url(#pbfc33a7509)" d="M 70.810136 228.110632 
L 72.04153 233.918219 
L 73.132433 233.049347 
L 72.595709 239.538809 
L 69.471619 233.825557 
L 70.821259 234.176956 
L 69.589864 228.369368 
L 70.810136 228.110632 
" style="fill:#e0cb56;"/>
    <path clip-path="url(#pbfc33a7509)" d="M 90.965114 228.088873 
L 92.403618 233.848657 
L 93.462718 232.94129 
L 93.158646 239.445806 
L 89.832037 233.848051 
L 91.193391 234.150911 
L 89.754886 228.391127 
L 90.965114 228.088873 
" style="fill:#c9b965;"/>
    <path clip-path="url(#pbfc33a7509)" d="M 111.116492 228.057794 
L 112.850823 233.735514 
L 113.861601 232.77461 
L 113.894186 239.286147 
L 110.282649 233.867846 
L 111.657839 234.099926 
L 109.923508 228.422206 
L 111.116492 228.057794 
" style="fill:#b0a571;"/>
    <path clip-path="url(#pbfc33a7509)" d="M 131.259455 228.009276 
L 133.455603 233.524831 
L 134.38379 232.483928 
L 134.952662 238.97065 
L 130.907059 233.86827 
L 132.296693 233.986278 
L 130.100545 228.470724 
L 131.259455 228.009276 
" style="fill:#928d78;"/>
    <path clip-path="url(#pbfc33a7509)" d="M 151.376155 227.921347 
L 154.409257 233.024748 
L 155.162914 231.851288 
L 156.740976 238.168796 
L 151.945984 233.763204 
L 153.336947 233.662054 
L 150.303845 228.558653 
L 151.376155 227.921347 
" style="fill:#6d6f72;"/>
    <path clip-path="url(#pbfc33a7509)" d="M 171.344718 227.72022 
L 176.292253 231.001426 
L 176.461909 229.617148 
L 180.625553 234.623668 
L 174.3936 232.735827 
L 175.602816 232.040985 
L 170.655282 228.75978 
L 171.344718 227.72022 
" style="fill:#32436d;"/>
    <path clip-path="url(#pbfc33a7509)" d="M 190.659512 227.867826 
L 194.202057 223.103922 
L 192.828908 222.860062 
L 198.052112 218.971705 
L 195.831835 225.093106 
L 195.203033 223.84827 
L 191.660488 228.612174 
L 190.659512 227.867826 
" style="fill:#00224e;"/>
    <path clip-path="url(#pbfc33a7509)" d="M 210.699856 228.173491 
L 211.332925 222.270641 
L 210.026129 222.757767 
L 212.551652 216.755857 
L 213.746991 223.156822 
L 212.573213 222.40366 
L 211.940144 228.306509 
L 210.699856 228.173491 
" style="fill:#002c64;"/>
    <path clip-path="url(#pbfc33a7509)" d="M 230.859856 228.306509 
L 230.226787 222.40366 
L 229.053009 223.156822 
L 230.248348 216.755857 
L 232.773871 222.757767 
L 231.467075 222.270641 
L 232.100144 228.173491 
L 230.859856 228.306509 
" style="fill:#002c64;"/>
    <path clip-path="url(#pbfc33a7509)" d="M 251.139512 228.612174 
L 247.596967 223.84827 
L 246.968165 225.093106 
L 244.747888 218.971705 
L 249.971092 222.860062 
L 248.597943 223.103922 
L 252.140488 227.867826 
L 251.139512 228.612174 
" style="fill:#00224e;"/>
    <path clip-path="url(#pbfc33a7509)" d="M 272.144718 228.75978 
L 267.197184 232.040985 
L 268.4064 232.735827 
L 262.174447 234.623668 
L 266.338091 229.617148 
L 266.507747 231.001426 
L 271.455282 227.72022 
L 272.144718 228.75978 
" style="fill:#32436d;"/>
    <path clip-path="url(#pbfc33a7509)" d="M 292.496155 228.558653 
L 289.463053 233.662054 
L 290.854016 233.763204 
L 286.059024 238.168796 
L 287.637086 231.851288 
L 288.390743 233.024748 
L 291.423845 227.921347 
L 292.496155 228.558653 
" style="fill:#6d6f72;"/>
    <path clip-path="url(#pbfc33a7509)" d="M 312.699455 228.470724 
L 310.503307 233.986278 
L 311.892941 233.86827 
L 307.847338 238.97065 
L 308.41621 232.483928 
L 309.344397 233.524831 
L 311.540545 228.009276 
L 312.699455 228.470724 
" style="fill:#928d78;"/>
    <path clip-path="url(#pbfc33a7509)" d="M 332.876492 228.422206 
L 331.142161 234.099926 
L 332.517351 233.867846 
L 328.905814 239.286147 
L 328.938399 232.77461 
L 329.949177 233.735514 
L 331.683508 228.057794 
L 332.876492 228.422206 
" style="fill:#b0a571;"/>
    <path clip-path="url(#pbfc33a7509)" d="M 353.045114 228.391127 
L 351.606609 234.150911 
L 352.967963 233.848051 
L 349.641354 239.445806 
L 349.337282 232.94129 
L 350.396382 233.848657 
L 351.834886 228.088873 
L 353.045114 228.391127 
" style="fill:#c9b965;"/>
    <path clip-path="url(#pbfc33a7509)" d="M 373.210136 228.369368 
L 371.978741 234.176956 
L 373.328381 233.825557 
L 370.204291 239.538809 
L 369.667567 233.049347 
L 370.75847 233.918219 
L 371.989864 228.110632 
L 373.210136 228.369368 
" style="fill:#e0cb56;"/>
    <path clip-path="url(#pbfc33a7509)" d="M 70.810136 208.209368 
L 69.578741 214.016956 
L 70.928381 213.665557 
L 67.804291 219.378809 
L 67.267567 212.889347 
L 68.35847 213.758219 
L 69.589864 207.950632 
L 70.810136 208.209368 
" style="fill:#e0cb56;"/>
    <path clip-path="url(#pbfc33a7509)" d="M 90.965114 208.231127 
L 89.526609 213.990911 
L 90.887963 213.688051 
L 87.561354 219.285806 
L 87.257282 212.78129 
L 88.316382 213.688657 
L 89.754886 207.928873 
L 90.965114 208.231127 
" style="fill:#c9b965;"/>
    <path clip-path="url(#pbfc33a7509)" d="M 111.116492 208.262206 
L 109.382161 213.939926 
L 110.757351 213.707846 
L 107.145814 219.126147 
L 107.178399 212.61461 
L 108.189177 213.575514 
L 109.923508 207.897794 
L 111.116492 208.262206 
" style="fill:#b0a571;"/>
    <path clip-path="url(#pbfc33a7509)" d="M 131.259455 208.310724 
L 129.063307 213.826278 
L 130.452941 213.70827 
L 126.407338 218.81065 
L 126.97621 212.323928 
L 127.904397 213.364831 
L 130.100545 207.849276 
L 131.259455 208.310724 
" style="fill:#928d78;"/>
    <path clip-path="url(#pbfc33a7509)" d="M 151.376155 208.398653 
L 148.343053 213.502054 
L 149.734016 213.603204 
L 144.939024 218.008796 
L 146.517086 211.691288 
L 147.270743 212.864748 
L 150.303845 207.761347 
L 151.376155 208.398653 
" style="fill:#6d6f72;"/>
    <path clip-path="url(#pbfc33a7509)" d="M 171.344718 208.59978 
L 166.397184 211.880985 
L 167.6064 212.575827 
L 161.374447 214.463668 
L 165.538091 209.457148 
L 165.707747 210.841426 
L 170.655282 207.56022 
L 171.344718 208.59978 
" style="fill:#32436d;"/>
    <path clip-path="url(#pbfc33a7509)" d="M 190.659512 208.452174 
L 187.116967 203.68827 
L 186.488165 204.933106 
L 184.267888 198.811705 
L 189.491092 202.700062 
L 188.117943 202.943922 
L 191.660488 207.707826 
L 190.659512 208.452174 
" style="fill:#00224e;"/>
    <path clip-path="url(#pbfc33a7509)" d="M 210.699856 208.146509 
L 210.066787 202.24366 
L 208.893009 202.996822 
L 210.088348 196.595857 
L 212.613871 202.597767 
L 211.307075 202.110641 
L 211.940144 208.013491 
L 210.699856 208.146509 
" style="fill:#002c64;"/>
    <path clip-path="url(#pbfc33a7509)" d="M 230.859856 208.013491 
L 231.492925 202.110641 
L 230.186129 202.597767 
L 232.711652 196.595857 
L 233.906991 202.996822 
L 232.733213 202.24366 
L 232.100144 208.146509 
L 230.859856 208.013491 
" style="fill:#002c64;"/>
    <path clip-path="url(#pbfc33a7509)" d="M 251.139512 207.707826 
L 254.682057 202.943922 
L 253.308908 202.700062 
L 258.532112 198.811705 
L 256.311835 204.933106 
L 255.683033 203.68827 
L 252.140488 208.452174 
L 251.139512 207.707826 
" style="fill:#00224e;"/>
    <path clip-path="url(#pbfc33a7509)" d="M 272.144718 207.56022 
L 277.092253 210.841426 
L 277.261909 209.457148 
L 281.425553 214.463668 
L 275.1936 212.575827 
L 276.402816 211.880985 
L 271.455282 208.59978 
L 272.144718 207.56022 
" style="fill:#32436d;"/>
    <path clip-path="url(#pbfc33a7509)" d="M 292.496155 207.761347 
L 295.529257 212.864748 
L 296.282914 211.691288 
L 297.860976 218.008796 
L 293.065984 213.603204 
L 294.456947 213.502054 
L 291.423845 208.398653 
L 292.496155 207.761347 
" style="fill:#6d6f72;"/>
    <path clip-path="url(#pbfc33a7509)" d="M 312.699455 207.849276 
L 314.895603 213.364831 
L 315.82379 212.323928 
L 316.392662 218.81065 
L 312.347059 213.70827 
L 313.736693 213.826278 
L 311.540545 208.310724 
L 312.699455 207.849276 
" style="fill:#928d78;"/>
    <path clip-path="url(#pbfc33a7509)" d="M 332.876492 207.897794 
L 334.610823 213.575514 
L 335.621601 212.61461 
L 335.654186 219.126147 
L 332.042649 213.707846 
L 333.417839 213.939926 
L 331.683508 208.262206 
L 332.876492 207.897794 
" style="fill:#b0a571;"/>
    <path clip-path="url(#pbfc33a7509)" d="M 353.045114 207.928873 
L 354.483618 213.688657 
L 355.542718 212.78129 
L 355.238646 219.285806 
L 351.912037 213.688051 
L 353.273391 213.990911 
L 351.834886 208.231127 
L 353.045114 207.928873 
" style="fill:#c9b965;"/>
    <path clip-path="url(#pbfc33a7509)" d="M 373.210136 207.950632 
L 374.44153 213.758219 
L 375.532433 212.889347 
L 374.995709 219.378809 
L 371.871619 213.665557 
L 373.221259 214.016956 
L 371.989864 208.209368 
L 373.210136 207.950632 
" style="fill:#e0cb56;"/>
    <path clip-path="url(#pbfc33a7509)" d="M 70.713321 188.274264 
L 67.341253 193.160322 
L 68.72216 193.355529 
L 63.639557 197.42595 
L 65.642232 191.229945 
L 66.314611 192.451794 
L 69.686679 187.565736 
L 70.713321 188.274264 
" style="fill:#e0cb56;"/>
    <path clip-path="url(#pbfc33a7509)" d="M 90.837639 188.321077 
L 87.019984 192.867494 
L 88.376339 193.192008 
L 82.932655 196.765171 
L 85.510504 190.785549 
L 86.064705 192.065341 
L 89.882361 187.518923 
L 90.837639 188.321077 
" style="fill:#cbb965;"/>
    <path clip-path="url(#pbfc33a7509)" d="M 110.941812 188.37943 
L 106.568716 192.394456 
L 107.87177 192.891505 
L 102.01203 195.731335 
L 105.340898 190.134923 
L 105.725091 191.475596 
L 110.098188 187.46057 
L 110.941812 188.37943 
" style="fill:#b3a670;"/>
    <path clip-path="url(#pbfc33a7509)" d="M 131.008266 188.450324 
L 125.960369 191.574928 
L 127.147225 192.307309 
L 120.85919 193.998996 
L 125.17763 189.125367 
L 125.303838 190.51428 
L 130.351734 187.389676 
L 131.008266 188.450324 
" style="fill:#958f77;"/>
    <path clip-path="url(#pbfc33a7509)" d="M 150.999895 188.522856 
L 145.261599 190.044818 
L 146.184245 191.090635 
L 139.676 190.881015 
L 145.224876 187.473499 
L 144.941809 188.839106 
L 150.680105 187.317144 
L 150.999895 188.522856 
" style="fill:#767676;"/>
    <path clip-path="url(#pbfc33a7509)" d="M 170.861807 188.528198 
L 165.072666 187.212809 
L 165.404478 188.567397 
L 159.737079 185.360877 
L 166.233634 184.91821 
L 165.349051 185.996413 
L 171.138193 187.311802 
L 170.861807 188.528198 
" style="fill:#545a6d;"/>
    <path clip-path="url(#pbfc33a7509)" d="M 190.686516 188.325973 
L 186.822251 183.819105 
L 186.281256 185.104536 
L 183.641975 179.151773 
L 189.122161 182.668696 
L 187.769219 183.007158 
L 191.633484 187.514027 
L 190.686516 188.325973 
" style="fill:#38476c;"/>
    <path clip-path="url(#pbfc33a7509)" d="M 210.708743 188.043964 
L 209.528789 182.225707 
L 208.43024 183.084892 
L 209.024368 176.600434 
L 212.097779 182.341107 
L 210.751302 181.977779 
L 211.931257 187.796036 
L 210.708743 188.043964 
" style="fill:#2d416d;"/>
    <path clip-path="url(#pbfc33a7509)" d="M 230.868743 187.796036 
L 232.048698 181.977779 
L 230.702221 182.341107 
L 233.775632 176.600434 
L 234.36976 183.084892 
L 233.271211 182.225707 
L 232.091257 188.043964 
L 230.868743 187.796036 
" style="fill:#2d416d;"/>
    <path clip-path="url(#pbfc33a7509)" d="M 251.166516 187.514027 
L 255.030781 183.007158 
L 253.677839 182.668696 
L 259.158025 179.151773 
L 256.518744 185.104536 
L 255.977749 183.819105 
L 252.113484 188.325973 
L 251.166516 187.514027 
" style="fill:#38476c;"/>
    <path clip-path="url(#pbfc33a7509)" d="M 271.661807 187.311802 
L 277.450949 185.996413 
L 276.566366 184.91821 
L 283.062921 185.360877 
L 277.395522 188.567397 
L 277.727334 187.212809 
L 271.938193 188.528198 
L 271.661807 187.311802 
" style="fill:#545a6d;"/>
    <path clip-path="url(#pbfc33a7509)" d="M 292.119895 187.317144 
L 297.858191 188.839106 
L 297.575124 187.473499 
L 303.124 190.881015 
L 296.615755 191.090635 
L 297.538401 190.044818 
L 291.800105 188.522856 
L 292.119895 187.317144 
" style="fill:#767676;"/>
    <path clip-path="url(#pbfc33a7509)" d="M 312.448266 187.389676 
L 317.496162 190.51428 
L 317.62237 189.125367 
L 321.94081 193.998996 
L 315.652775 192.307309 
L 316.839631 191.574928 
L 311.791734 188.450324 
L 312.448266 187.389676 
" style="fill:#958f77;"/>
    <path clip-path="url(#pbfc33a7509)" d="M 332.701812 187.46057 
L 337.074909 191.475596 
L 337.459102 190.134923 
L 340.78797 195.731335 
L 334.92823 192.891505 
L 336.231284 192.394456 
L 331.858188 188.37943 
L 332.701812 187.46057 
" style="fill:#b3a670;"/>
    <path clip-path="url(#pbfc33a7509)" d="M 352.917639 187.518923 
L 356.735295 192.065341 
L 357.289496 190.785549 
L 359.867345 196.765171 
L 354.423661 193.192008 
L 355.780016 192.867494 
L 351.962361 188.321077 
L 352.917639 187.518923 
" style="fill:#cbb965;"/>
    <path clip-path="url(#pbfc33a7509)" d="M 373.113321 187.565736 
L 376.485389 192.451794 
L 377.157768 191.229945 
L 379.160443 197.42595 
L 374.07784 193.355529 
L 375.458747 193.160322 
L 372.086679 188.274264 
L 373.113321 187.565736 
" style="fill:#e0cb56;"/>
    <path clip-path="url(#pbfc33a7509)" d="M 70.565174 168.265618 
L 65.752437 171.741531 
L 66.988403 172.387594 
L 60.836699 174.522477 
L 64.79736 169.353885 
L 65.02209 170.730295 
L 69.834826 167.254382 
L 70.565174 168.265618 
" style="fill:#e2cd54;"/>
    <path clip-path="url(#pbfc33a7509)" d="M 90.657693 168.30807 
L 85.440877 171.141662 
L 86.584332 171.94011 
L 80.210553 173.272824 
L 84.798177 168.651689 
L 84.845492 170.045522 
L 90.062307 167.21193 
L 90.657693 168.30807 
" style="fill:#cebc63;"/>
    <path clip-path="url(#pbfc33a7509)" d="M 110.723797 168.349465 
L 105.112967 170.289308 
L 106.110025 171.264441 
L 99.603988 171.534015 
L 104.887244 167.727653 
L 104.705373 169.110379 
L 110.316203 167.170535 
L 110.723797 168.349465 
" style="fill:#b7a96e;"/>
    <path clip-path="url(#pbfc33a7509)" d="M 130.752042 168.379525 
L 124.855079 169.065261 
L 125.618689 170.232269 
L 119.207309 169.094115 
L 125.186435 166.515117 
L 124.710995 167.82621 
L 130.607958 167.140475 
L 130.752042 168.379525 
" style="fill:#9d9576;"/>
    <path clip-path="url(#pbfc33a7509)" d="M 150.732184 168.374311 
L 144.884858 167.348065 
L 145.283537 168.684502 
L 139.463878 165.763413 
L 145.930431 164.998638 
L 145.100489 166.119444 
L 150.947816 167.145689 
L 150.732184 168.374311 
" style="fill:#848279;"/>
    <path clip-path="url(#pbfc33a7509)" d="M 170.675717 168.292768 
L 165.604553 165.206071 
L 165.488754 166.59589 
L 161.133922 161.754752 
L 167.434454 163.399281 
L 166.253119 164.140534 
L 171.324283 167.227232 
L 170.675717 168.292768 
" style="fill:#6c6e72;"/>
    <path clip-path="url(#pbfc33a7509)" d="M 190.645535 168.112601 
L 187.289297 163.215656 
L 186.612967 164.435323 
L 184.630354 158.232869 
L 189.699758 162.319717 
L 188.318227 162.510454 
L 191.674465 167.407399 
L 190.645535 168.112601 
" style="fill:#5c616e;"/>
    <path clip-path="url(#pbfc33a7509)" d="M 210.707901 167.879733 
L 209.568217 162.053454 
L 208.463751 162.90502 
L 209.102716 156.424827 
L 212.136347 162.18662 
L 210.792415 161.813988 
L 211.932099 167.640267 
L 210.707901 167.879733 
" style="fill:#535a6d;"/>
    <path clip-path="url(#pbfc33a7509)" d="M 230.867901 167.640267 
L 232.007585 161.813988 
L 230.663653 162.18662 
L 233.697284 156.424827 
L 234.336249 162.90502 
L 233.231783 162.053454 
L 232.092099 167.879733 
L 230.867901 167.640267 
" style="fill:#535a6d;"/>
    <path clip-path="url(#pbfc33a7509)" d="M 251.125535 167.407399 
L 254.481773 162.510454 
L 253.100242 162.319717 
L 258.169646 158.232869 
L 256.187033 164.435323 
L 255.510703 163.215656 
L 252.154465 168.112601 
L 251.125535 167.407399 
" style="fill:#5c616e;"/>
    <path clip-path="url(#pbfc33a7509)" d="M 271.475717 167.227232 
L 276.546881 164.140534 
L 275.365546 163.399281 
L 281.666078 161.754752 
L 277.311246 166.59589 
L 277.195447 165.206071 
L 272.124283 168.292768 
L 271.475717 167.227232 
" style="fill:#6c6e72;"/>
    <path clip-path="url(#pbfc33a7509)" d="M 291.852184 167.145689 
L 297.699511 166.119444 
L 296.869569 164.998638 
L 303.336122 165.763413 
L 297.516463 168.684502 
L 297.915142 167.348065 
L 292.067816 168.374311 
L 291.852184 167.145689 
" style="fill:#848279;"/>
    <path clip-path="url(#pbfc33a7509)" d="M 312.192042 167.140475 
L 318.089005 167.82621 
L 317.613565 166.515117 
L 323.592691 169.094115 
L 317.181311 170.232269 
L 317.944921 169.065261 
L 312.047958 168.379525 
L 312.192042 167.140475 
" style="fill:#9d9576;"/>
    <path clip-path="url(#pbfc33a7509)" d="M 332.483797 167.170535 
L 338.094627 169.110379 
L 337.912756 167.727653 
L 343.196012 171.534015 
L 336.689975 171.264441 
L 337.687033 170.289308 
L 332.076203 168.349465 
L 332.483797 167.170535 
" style="fill:#b7a96e;"/>
    <path clip-path="url(#pbfc33a7509)" d="M 352.737693 167.21193 
L 357.954508 170.045522 
L 358.001823 168.651689 
L 362.589447 173.272824 
L 356.215668 171.94011 
L 357.359123 171.141662 
L 352.142307 168.30807 
L 352.737693 167.21193 
" style="fill:#cebc63;"/>
    <path clip-path="url(#pbfc33a7509)" d="M 372.965174 167.254382 
L 377.77791 170.730295 
L 378.00264 169.353885 
L 381.963301 174.522477 
L 375.811597 172.387594 
L 377.047563 171.741531 
L 372.234826 168.265618 
L 372.965174 167.254382 
" style="fill:#e2cd54;"/>
    <path clip-path="url(#pbfc33a7509)" d="M 70.410761 148.187011 
L 64.823288 150.19314 
L 65.83182 151.156401 
L 59.32943 151.502975 
L 64.567256 147.634336 
L 64.401767 149.019119 
L 69.989239 147.012989 
L 70.410761 148.187011 
" style="fill:#e6d051;"/>
    <path clip-path="url(#pbfc33a7509)" d="M 90.48579 148.210883 
L 84.671084 149.408217 
L 85.533548 150.504194 
L 79.047344 149.929443 
L 84.778808 146.838893 
L 84.419505 148.18645 
L 90.23421 146.989117 
L 90.48579 148.210883 
" style="fill:#d2c060;"/>
    <path clip-path="url(#pbfc33a7509)" d="M 110.538867 148.223415 
L 104.604883 148.402997 
L 105.266031 149.63096 
L 98.975286 147.949383 
L 105.152831 145.890472 
L 104.56715 147.156168 
L 110.501133 146.976585 
L 110.538867 148.223415 
" style="fill:#beaf6b;"/>
    <path clip-path="url(#pbfc33a7509)" d="M 130.567333 148.213439 
L 124.7283 147.141012 
L 125.116404 148.480558 
L 119.320014 145.513565 
L 125.792409 144.799922 
L 124.953635 145.914133 
L 130.792667 146.986561 
L 130.567333 148.213439 
" style="fill:#a99f73;"/>
    <path clip-path="url(#pbfc33a7509)" d="M 150.574898 148.164555 
L 145.201168 145.64118 
L 145.235519 147.035392 
L 140.385271 142.690709 
L 146.82613 143.64806 
L 145.731371 144.512069 
L 151.105102 147.035445 
L 150.574898 148.164555 
" style="fill:#948e77;"/>
    <path clip-path="url(#pbfc33a7509)" d="M 170.579341 148.060486 
L 166.196194 144.056435 
L 165.815362 145.398067 
L 162.472476 139.810017 
L 168.339316 142.635149 
L 167.037512 143.135462 
L 171.420659 147.139514 
L 170.579341 148.060486 
" style="fill:#828079;"/>
    <path clip-path="url(#pbfc33a7509)" d="M 190.613134 147.899899 
L 187.758542 142.694545 
L 186.964709 143.841208 
L 185.606319 137.472852 
L 190.245905 142.041816 
L 188.852274 142.094747 
L 191.706866 147.300101 
L 190.613134 147.899899 
" style="fill:#767676;"/>
    <path clip-path="url(#pbfc33a7509)" d="M 210.70494 147.703454 
L 209.720207 141.848994 
L 208.593541 142.670963 
L 209.404177 136.209999 
L 212.283902 142.050236 
L 210.950327 141.642085 
L 211.93506 147.496546 
L 210.70494 147.703454 
" style="fill:#707173;"/>
    <path clip-path="url(#pbfc33a7509)" d="M 230.86494 147.496546 
L 231.849673 141.642085 
L 230.516098 142.050236 
L 233.395823 136.209999 
L 234.206459 142.670963 
L 233.079793 141.848994 
L 232.09506 147.703454 
L 230.86494 147.496546 
" style="fill:#707173;"/>
    <path clip-path="url(#pbfc33a7509)" d="M 251.093134 147.300101 
L 253.947726 142.094747 
L 252.554095 142.041816 
L 257.193681 137.472852 
L 255.835291 143.841208 
L 255.041458 142.694545 
L 252.186866 147.899899 
L 251.093134 147.300101 
" style="fill:#767676;"/>
    <path clip-path="url(#pbfc33a7509)" d="M 271.379341 147.139514 
L 275.762488 143.135462 
L 274.460684 142.635149 
L 280.327524 139.810017 
L 276.984638 145.398067 
L 276.603806 144.056435 
L 272.220659 148.060486 
L 271.379341 147.139514 
" style="fill:#828079;"/>
    <path clip-path="url(#pbfc33a7509)" d="M 291.694898 147.035445 
L 297.068629 144.512069 
L 295.97387 143.64806 
L 302.414729 142.690709 
L 297.564481 147.035392 
L 297.598832 145.64118 
L 292.225102 148.164555 
L 291.694898 147.035445 
" style="fill:#948e77;"/>
    <path clip-path="url(#pbfc33a7509)" d="M 312.007333 146.986561 
L 317.846365 145.914133 
L 317.007591 144.799922 
L 323.479986 145.513565 
L 317.683596 148.480558 
L 318.0717 147.141012 
L 312.232667 148.213439 
L 312.007333 146.986561 
" style="fill:#a99f73;"/>
    <path clip-path="url(#pbfc33a7509)" d="M 332.298867 146.976585 
L 338.23285 147.156168 
L 337.647169 145.890472 
L 343.824714 147.949383 
L 337.533969 149.63096 
L 338.195117 148.402997 
L 332.261133 148.223415 
L 332.298867 146.976585 
" style="fill:#beaf6b;"/>
    <path clip-path="url(#pbfc33a7509)" d="M 352.56579 146.989117 
L 358.380495 148.18645 
L 358.021192 146.838893 
L 363.752656 149.929443 
L 357.266452 150.504194 
L 358.128916 149.408217 
L 352.31421 148.210883 
L 352.56579 146.989117 
" style="fill:#d2c060;"/>
    <path clip-path="url(#pbfc33a7509)" d="M 372.810761 147.012989 
L 378.398233 149.019119 
L 378.232744 147.634336 
L 383.47057 151.502975 
L 376.96818 151.156401 
L 377.976712 150.19314 
L 372.389239 148.187011 
L 372.810761 147.012989 
" style="fill:#e6d051;"/>
    <path clip-path="url(#pbfc33a7509)" d="M 70.272782 128.059439 
L 64.376643 128.752218 
L 65.141646 129.918313 
L 58.728911 128.78782 
L 64.704952 126.201681 
L 64.231078 127.51334 
L 70.127218 126.820561 
L 70.272782 128.059439 
" style="fill:#ebd44b;"/>
    <path clip-path="url(#pbfc33a7509)" d="M 90.343095 128.063471 
L 84.408576 127.902563 
L 84.998238 129.166409 
L 78.814243 127.12695 
L 85.099666 125.425584 
L 84.442386 126.655621 
L 90.376905 126.816529 
L 90.343095 128.063471 
" style="fill:#dac65b;"/>
    <path clip-path="url(#pbfc33a7509)" d="M 110.398585 128.051768 
L 104.57546 126.896079 
L 104.944398 128.24103 
L 99.190962 125.191579 
L 105.672887 124.570422 
L 104.818289 125.672543 
L 110.641415 126.828232 
L 110.398585 128.051768 
" style="fill:#c7b767;"/>
    <path clip-path="url(#pbfc33a7509)" d="M 130.441108 128.016136 
L 124.957151 125.742235 
L 125.055502 127.133398 
L 120.010823 123.016069 
L 126.488856 123.676585 
L 125.434935 124.589964 
L 130.918892 126.863864 
L 130.441108 128.016136 
" style="fill:#b7a96e;"/>
    <path clip-path="url(#pbfc33a7509)" d="M 150.477551 127.947575 
L 145.646189 124.497596 
L 145.428866 125.875195 
L 141.440464 120.727979 
L 147.603561 122.829746 
L 146.371088 123.482446 
L 151.202449 126.932425 
L 150.477551 127.947575 
" style="fill:#a59c74;"/>
    <path clip-path="url(#pbfc33a7509)" d="M 170.521611 127.840182 
L 166.712473 123.286625 
L 166.155877 124.565378 
L 163.589227 118.58094 
L 169.026212 122.164287 
L 167.669252 122.486262 
L 171.478389 127.039818 
L 170.521611 127.840182 
" style="fill:#979177;"/>
    <path clip-path="url(#pbfc33a7509)" d="M 190.591454 127.696431 
L 188.150606 122.284715 
L 187.269946 123.366124 
L 186.411269 116.91137 
L 190.681222 121.827536 
L 189.287698 121.771853 
L 191.728546 127.183569 
L 190.591454 127.696431 
" style="fill:#8e8978;"/>
    <path clip-path="url(#pbfc33a7509)" d="M 210.702572 127.528231 
L 209.862743 121.651234 
L 208.716118 122.445124 
L 209.68609 116.006154 
L 212.420684 121.915737 
L 211.097598 121.474772 
L 211.937428 127.351769 
L 210.702572 127.528231 
" style="fill:#888578;"/>
    <path clip-path="url(#pbfc33a7509)" d="M 230.862572 127.351769 
L 231.702402 121.474772 
L 230.379316 121.915737 
L 233.11391 116.006154 
L 234.083882 122.445124 
L 232.937257 121.651234 
L 232.097428 127.528231 
L 230.862572 127.351769 
" style="fill:#888578;"/>
    <path clip-path="url(#pbfc33a7509)" d="M 251.071454 127.183569 
L 253.512302 121.771853 
L 252.118778 121.827536 
L 256.388731 116.91137 
L 255.530054 123.366124 
L 254.649394 122.284715 
L 252.208546 127.696431 
L 251.071454 127.183569 
" style="fill:#8e8978;"/>
    <path clip-path="url(#pbfc33a7509)" d="M 271.321611 127.039818 
L 275.130748 122.486262 
L 273.773788 122.164287 
L 279.210773 118.58094 
L 276.644123 124.565378 
L 276.087527 123.286625 
L 272.278389 127.840182 
L 271.321611 127.039818 
" style="fill:#979177;"/>
    <path clip-path="url(#pbfc33a7509)" d="M 291.597551 126.932425 
L 296.428912 123.482446 
L 295.196439 122.829746 
L 301.359536 120.727979 
L 297.371134 125.875195 
L 297.153811 124.497596 
L 292.322449 127.947575 
L 291.597551 126.932425 
" style="fill:#a59c74;"/>
    <path clip-path="url(#pbfc33a7509)" d="M 311.881108 126.863864 
L 317.365065 124.589964 
L 316.311144 123.676585 
L 322.789177 123.016069 
L 317.744498 127.133398 
L 317.842849 125.742235 
L 312.358892 128.016136 
L 311.881108 126.863864 
" style="fill:#b7a96e;"/>
    <path clip-path="url(#pbfc33a7509)" d="M 332.158585 126.828232 
L 337.981711 125.672543 
L 337.127113 124.570422 
L 343.609038 125.191579 
L 337.855602 128.24103 
L 338.22454 126.896079 
L 332.401415 128.051768 
L 332.158585 126.828232 
" style="fill:#c7b767;"/>
    <path clip-path="url(#pbfc33a7509)" d="M 352.423095 126.816529 
L 358.357614 126.655621 
L 357.700334 125.425584 
L 363.985757 127.12695 
L 357.801762 129.166409 
L 358.391424 127.902563 
L 352.456905 128.063471 
L 352.423095 126.816529 
" style="fill:#dac65b;"/>
    <path clip-path="url(#pbfc33a7509)" d="M 372.672782 126.820561 
L 378.568922 127.51334 
L 378.095048 126.201681 
L 384.071089 128.78782 
L 377.658354 129.918313 
L 378.423357 128.752218 
L 372.527218 128.059439 
L 372.672782 126.820561 
" style="fill:#ebd44b;"/>
    <path clip-path="url(#pbfc33a7509)" d="M 70.157392 107.902243 
L 64.234561 107.496679 
L 64.771588 108.783772 
L 58.676983 106.490964 
L 65.027236 105.050315 
L 64.319777 106.252193 
L 70.242608 106.657757 
L 70.157392 107.902243 
" style="fill:#f1d945;"/>
    <path clip-path="url(#pbfc33a7509)" d="M 90.23041 107.890089 
L 84.42327 106.656588 
L 84.774179 108.006355 
L 79.062061 104.880193 
L 85.551717 104.345823 
L 84.682449 105.436411 
L 90.48959 106.669911 
L 90.23041 107.890089 
" style="fill:#e2cd54;"/>
    <path clip-path="url(#pbfc33a7509)" d="M 110.294702 107.861586 
L 104.758862 105.717088 
L 104.889853 107.105558 
L 99.749882 103.107824 
L 106.241638 103.61604 
L 105.209457 104.553915 
L 110.745298 106.698414 
L 110.294702 107.861586 
" style="fill:#d3c05f;"/>
    <path clip-path="url(#pbfc33a7509)" d="M 130.353616 107.811484 
L 125.294678 104.704788 
L 125.173393 106.09414 
L 120.837709 101.235845 
L 127.131699 102.905238 
L 125.947447 103.641821 
L 131.006384 106.748516 
L 130.353616 107.811484 
" style="fill:#c4b468;"/>
    <path clip-path="url(#pbfc33a7509)" d="M 150.413639 107.735212 
L 146.080691 103.676892 
L 145.683183 105.013677 
L 142.41014 99.384434 
L 148.241346 102.282402 
L 146.933413 102.766467 
L 151.266361 106.824788 
L 150.413639 107.735212 
" style="fill:#b7a96e;"/>
    <path clip-path="url(#pbfc33a7509)" d="M 170.484449 107.631011 
L 167.143346 102.723727 
L 166.463254 103.9413 
L 164.4998 97.732755 
L 169.556562 101.835235 
L 168.174448 102.021705 
L 171.515551 106.928989 
L 170.484449 107.631011 
" style="fill:#aba072;"/>
    <path clip-path="url(#pbfc33a7509)" d="M 190.577119 107.501925 
L 188.464717 101.953758 
L 187.520879 102.98049 
L 187.050269 96.485899 
L 191.018168 101.648937 
L 189.63048 101.509907 
L 191.742881 107.058075 
L 190.577119 107.501925 
" style="fill:#a39a74;"/>
    <path clip-path="url(#pbfc33a7509)" d="M 210.700941 107.355945 
L 209.978055 101.463421 
L 208.815882 102.23437 
L 209.913607 95.815945 
L 212.530236 101.778699 
L 211.216173 101.31153 
L 211.939059 107.204055 
L 210.700941 107.355945 
" style="fill:#9f9775;"/>
    <path clip-path="url(#pbfc33a7509)" d="M 230.860941 107.204055 
L 231.583827 101.31153 
L 230.269764 101.778699 
L 232.886393 95.815945 
L 233.984118 102.23437 
L 232.821945 101.463421 
L 232.099059 107.355945 
L 230.860941 107.204055 
" style="fill:#9f9775;"/>
    <path clip-path="url(#pbfc33a7509)" d="M 251.057119 107.058075 
L 253.16952 101.509907 
L 251.781832 101.648937 
L 255.749731 96.485899 
L 255.279121 102.98049 
L 254.335283 101.953758 
L 252.222881 107.501925 
L 251.057119 107.058075 
" style="fill:#a39a74;"/>
    <path clip-path="url(#pbfc33a7509)" d="M 271.284449 106.928989 
L 274.625552 102.021705 
L 273.243438 101.835235 
L 278.3002 97.732755 
L 276.336746 103.9413 
L 275.656654 102.723727 
L 272.315551 107.631011 
L 271.284449 106.928989 
" style="fill:#aba072;"/>
    <path clip-path="url(#pbfc33a7509)" d="M 291.533639 106.824788 
L 295.866587 102.766467 
L 294.558654 102.282402 
L 300.38986 99.384434 
L 297.116817 105.013677 
L 296.719309 103.676892 
L 292.386361 107.735212 
L 291.533639 106.824788 
" style="fill:#b7a96e;"/>
    <path clip-path="url(#pbfc33a7509)" d="M 311.793616 106.748516 
L 316.852553 103.641821 
L 315.668301 102.905238 
L 321.962291 101.235845 
L 317.626607 106.09414 
L 317.505322 104.704788 
L 312.446384 107.811484 
L 311.793616 106.748516 
" style="fill:#c4b468;"/>
    <path clip-path="url(#pbfc33a7509)" d="M 332.054702 106.698414 
L 337.590543 104.553915 
L 336.558362 103.61604 
L 343.050118 103.107824 
L 337.910147 107.105558 
L 338.041138 105.717088 
L 332.505298 107.861586 
L 332.054702 106.698414 
" style="fill:#d3c05f;"/>
    <path clip-path="url(#pbfc33a7509)" d="M 352.31041 106.669911 
L 358.117551 105.436411 
L 357.248283 104.345823 
L 363.737939 104.880193 
L 358.025821 108.006355 
L 358.37673 106.656588 
L 352.56959 107.890089 
L 352.31041 106.669911 
" style="fill:#e2cd54;"/>
    <path clip-path="url(#pbfc33a7509)" d="M 372.557392 106.657757 
L 378.480223 106.252193 
L 377.772764 105.050315 
L 384.123017 106.490964 
L 378.028412 108.783772 
L 378.565439 107.496679 
L 372.642608 107.902243 
L 372.557392 106.657757 
" style="fill:#f1d945;"/>
    <path clip-path="url(#pbfc33a7509)" d="M 70.063446 87.728568 
L 64.270783 86.428776 
L 64.606242 87.782466 
L 58.930227 84.591223 
L 65.425566 84.131059 
L 64.543891 85.211641 
L 70.336554 86.511432 
L 70.063446 87.728568 
" style="fill:#f9e03a;"/>
    <path clip-path="url(#pbfc33a7509)" d="M 90.142607 87.704587 
L 84.578204 85.635329 
L 84.728006 87.021896 
L 79.534314 83.094205 
L 86.032363 83.514373 
L 85.01299 84.466154 
L 90.577393 86.535413 
L 90.142607 87.704587 
" style="fill:#ebd44b;"/>
    <path clip-path="url(#pbfc33a7509)" d="M 110.217415 87.665385 
L 105.026163 84.785228 
L 104.966378 86.178581 
L 100.420287 81.516582 
L 106.781886 82.906274 
L 105.631332 83.694459 
L 110.822585 86.574615 
L 110.217415 87.665385 
" style="fill:#dec958;"/>
    <path clip-path="url(#pbfc33a7509)" d="M 130.29135 87.607804 
L 125.648177 83.908432 
L 125.358682 85.27269 
L 121.64659 79.922778 
L 127.690582 82.345865 
L 126.425477 82.932824 
L 131.06865 86.632196 
L 130.29135 87.607804 
" style="fill:#d2c060;"/>
    <path clip-path="url(#pbfc33a7509)" d="M 150.369727 87.529689 
L 146.470096 83.053386 
L 145.939239 84.343037 
L 143.253169 78.41124 
L 148.760877 81.884904 
L 147.410642 82.234009 
L 151.310273 86.710311 
L 150.369727 87.529689 
" style="fill:#c6b667;"/>
    <path clip-path="url(#pbfc33a7509)" d="M 170.459363 87.430988 
L 167.499219 82.284926 
L 166.728933 83.447539 
L 165.240964 77.108207 
L 169.972754 81.581611 
L 168.580492 81.66295 
L 171.540637 86.809012 
L 170.459363 87.430988 
" style="fill:#beaf6b;"/>
    <path clip-path="url(#pbfc33a7509)" d="M 190.567431 87.314586 
L 188.715265 81.674205 
L 187.724712 82.655945 
L 187.556564 76.146498 
L 191.280127 81.488432 
L 189.900403 81.285034 
L 191.752569 86.925414 
L 190.567431 87.314586 
" style="fill:#b8aa6e;"/>
    <path clip-path="url(#pbfc33a7509)" d="M 210.69983 87.186259 
L 210.069138 81.283156 
L 208.895056 82.035845 
L 210.092973 75.635362 
L 212.616079 81.638288 
L 211.309479 81.150637 
L 211.94017 87.053741 
L 210.69983 87.186259 
" style="fill:#b4a76f;"/>
    <path clip-path="url(#pbfc33a7509)" d="M 230.85983 87.053741 
L 231.490521 81.150637 
L 230.183921 81.638288 
L 232.707027 75.635362 
L 233.904944 82.035845 
L 232.730862 81.283156 
L 232.10017 87.186259 
L 230.85983 87.053741 
" style="fill:#b4a76f;"/>
    <path clip-path="url(#pbfc33a7509)" d="M 251.047431 86.925414 
L 252.899597 81.285034 
L 251.519873 81.488432 
L 255.243436 76.146498 
L 255.075288 82.655945 
L 254.084735 81.674205 
L 252.232569 87.314586 
L 251.047431 86.925414 
" style="fill:#b8aa6e;"/>
    <path clip-path="url(#pbfc33a7509)" d="M 271.259363 86.809012 
L 274.219508 81.66295 
L 272.827246 81.581611 
L 277.559036 77.108207 
L 276.071067 83.447539 
L 275.300781 82.284926 
L 272.340637 87.430988 
L 271.259363 86.809012 
" style="fill:#beaf6b;"/>
    <path clip-path="url(#pbfc33a7509)" d="M 291.489727 86.710311 
L 295.389358 82.234009 
L 294.039123 81.884904 
L 299.546831 78.41124 
L 296.860761 84.343037 
L 296.329904 83.053386 
L 292.430273 87.529689 
L 291.489727 86.710311 
" style="fill:#c6b667;"/>
    <path clip-path="url(#pbfc33a7509)" d="M 311.73135 86.632196 
L 316.374523 82.932824 
L 315.109418 82.345865 
L 321.15341 79.922778 
L 317.441318 85.27269 
L 317.151823 83.908432 
L 312.50865 87.607804 
L 311.73135 86.632196 
" style="fill:#d2c060;"/>
    <path clip-path="url(#pbfc33a7509)" d="M 331.977415 86.574615 
L 337.168668 83.694459 
L 336.018114 82.906274 
L 342.379713 81.516582 
L 337.833622 86.178581 
L 337.773837 84.785228 
L 332.582585 87.665385 
L 331.977415 86.574615 
" style="fill:#dec958;"/>
    <path clip-path="url(#pbfc33a7509)" d="M 352.222607 86.535413 
L 357.78701 84.466154 
L 356.767637 83.514373 
L 363.265686 83.094205 
L 358.071994 87.021896 
L 358.221796 85.635329 
L 352.657393 87.704587 
L 352.222607 86.535413 
" style="fill:#ebd44b;"/>
    <path clip-path="url(#pbfc33a7509)" d="M 372.463446 86.511432 
L 378.256109 85.211641 
L 377.374434 84.131059 
L 383.869773 84.591223 
L 378.193758 87.782466 
L 378.529217 86.428776 
L 372.736554 87.728568 
L 372.463446 86.511432 
" style="fill:#f9e03a;"/>
    <path clip-path="url(#pbfc33a7509)" d="M 69.987595 67.546418 
L 64.405766 65.52464 
L 64.567374 66.909881 
L 59.340409 63.026581 
L 65.841802 63.391373 
L 64.830575 64.351805 
L 70.412405 66.373582 
L 69.987595 67.546418 
" style="fill:#fee838;"/>
    <path clip-path="url(#pbfc33a7509)" d="M 90.074082 67.514304 
L 84.797932 64.792788 
L 84.7804 66.187313 
L 80.095117 61.665222 
L 86.495908 62.861491 
L 85.369768 63.68418 
L 90.645918 66.405696 
L 90.074082 67.514304 
" style="fill:#f6dd3f;"/>
    <path clip-path="url(#pbfc33a7509)" d="M 110.159133 67.468701 
L 105.317056 64.033777 
L 105.104022 65.412046 
L 101.099617 60.277269 
L 107.269226 62.359842 
L 106.038791 63.016376 
L 110.880867 66.451299 
L 110.159133 67.468701 
" style="fill:#ead34c;"/>
    <path clip-path="url(#pbfc33a7509)" d="M 130.245868 67.407807 
L 125.983409 63.275514 
L 125.562952 64.60526 
L 122.387278 58.920519 
L 128.167744 61.918418 
L 126.851673 62.3799 
L 131.114132 66.512193 
L 130.245868 67.407807 
" style="fill:#dfca57;"/>
    <path clip-path="url(#pbfc33a7509)" d="M 150.338462 67.330757 
L 146.8094 62.556857 
L 146.177081 63.79991 
L 143.974121 57.672255 
L 149.18631 61.575365 
L 147.812476 61.815342 
L 151.341538 66.589243 
L 150.338462 67.330757 
" style="fill:#d6c35d;"/>
    <path clip-path="url(#pbfc33a7509)" d="M 170.441787 67.238208 
L 167.793658 61.924845 
L 166.95544 63.039475 
L 165.847999 56.622719 
L 170.304719 61.370226 
L 168.910085 61.368429 
L 171.558213 66.681792 
L 170.441787 67.238208 
" style="fill:#cfbd62;"/>
    <path clip-path="url(#pbfc33a7509)" d="M 190.560687 67.132699 
L 188.916843 61.428124 
L 187.890916 62.372836 
L 187.961861 55.861603 
L 191.486796 61.336639 
L 190.11547 61.082725 
L 191.759313 66.787301 
L 190.560687 67.132699 
" style="fill:#c9b965;"/>
    <path clip-path="url(#pbfc33a7509)" d="M 210.699056 67.018573 
L 210.141526 61.108111 
L 208.958212 61.846201 
L 210.235311 55.461046 
L 212.683874 61.494761 
L 211.383413 60.990964 
L 211.940944 66.901427 
L 210.699056 67.018573 
" style="fill:#c6b667;"/>
    <path clip-path="url(#pbfc33a7509)" d="M 230.859056 66.901427 
L 231.416587 60.990964 
L 230.116126 61.494761 
L 232.564689 55.461046 
L 233.841788 61.846201 
L 232.658474 61.108111 
L 232.100944 67.018573 
L 230.859056 66.901427 
" style="fill:#c6b667;"/>
    <path clip-path="url(#pbfc33a7509)" d="M 251.040687 66.787301 
L 252.68453 61.082725 
L 251.313204 61.336639 
L 254.838139 55.861603 
L 254.909084 62.372836 
L 253.883157 61.428124 
L 252.239313 67.132699 
L 251.040687 66.787301 
" style="fill:#c9b965;"/>
    <path clip-path="url(#pbfc33a7509)" d="M 271.241787 66.681792 
L 273.889915 61.368429 
L 272.495281 61.370226 
L 276.952001 56.622719 
L 275.84456 63.039475 
L 275.006342 61.924845 
L 272.358213 67.238208 
L 271.241787 66.681792 
" style="fill:#cfbd62;"/>
    <path clip-path="url(#pbfc33a7509)" d="M 291.458462 66.589243 
L 294.987524 61.815342 
L 293.61369 61.575365 
L 298.825879 57.672255 
L 296.622919 63.79991 
L 295.9906 62.556857 
L 292.461538 67.330757 
L 291.458462 66.589243 
" style="fill:#d6c35d;"/>
    <path clip-path="url(#pbfc33a7509)" d="M 311.685868 66.512193 
L 315.948327 62.3799 
L 314.632256 61.918418 
L 320.412722 58.920519 
L 317.237048 64.60526 
L 316.816591 63.275514 
L 312.554132 67.407807 
L 311.685868 66.512193 
" style="fill:#dfca57;"/>
    <path clip-path="url(#pbfc33a7509)" d="M 331.919133 66.451299 
L 336.761209 63.016376 
L 335.530774 62.359842 
L 341.700383 60.277269 
L 337.695978 65.412046 
L 337.482944 64.033777 
L 332.640867 67.468701 
L 331.919133 66.451299 
" style="fill:#ead34c;"/>
    <path clip-path="url(#pbfc33a7509)" d="M 352.154082 66.405696 
L 357.430232 63.68418 
L 356.304092 62.861491 
L 362.704883 61.665222 
L 358.0196 66.187313 
L 358.002068 64.792788 
L 352.725918 67.514304 
L 352.154082 66.405696 
" style="fill:#f6dd3f;"/>
    <path clip-path="url(#pbfc33a7509)" d="M 372.387595 66.373582 
L 377.969425 64.351805 
L 376.958198 63.391373 
L 383.459591 63.026581 
L 378.232626 66.909881 
L 378.394234 65.52464 
L 372.812405 67.546418 
L 372.387595 66.373582 
" style="fill:#fee838;"/>
   </g>
   <g id="matplotlib.axis_1">
    <g id="xtick_1">
     <g id="line2d_1">
      <path clip-path="url(#pbfc33a7509)" d="M 70.2 384.48 
L 70.2 51.84 
" style="fill:none;stroke:#b0b0b0;stroke-linecap:square;stroke-width:0.8;"/>
     </g>
     <g id="line2d_2">
      <defs>
       <path d="M 0 0 
L 0 3.5 
" id="m3cc85de032" style="stroke:#000000;stroke-width:0.8;"/>
      </defs>
      <g>
       <use style="stroke:#000000;stroke-width:0.8;" x="70.2" xlink:href="#m3cc85de032" y="384.48"/>
      </g>
     </g>
     <g id="text_1">
      <!-- 4 -->
      <g transform="translate(61.354687 400.598125)scale(0.12 -0.12)">
       <defs>
        <path d="M 10.59375 35.296875 
L 73.1875 35.296875 
L 73.1875 27.390625 
L 10.59375 27.390625 
z
" id="DejaVuSerif-8722"/>
        <path d="M 34.90625 24.703125 
L 34.90625 63.484375 
L 10.015625 24.703125 
z
M 56.390625 0 
L 23.1875 0 
L 23.1875 5.171875 
L 34.90625 5.171875 
L 34.90625 19.484375 
L 3.078125 19.484375 
L 3.078125 24.8125 
L 35.015625 74.21875 
L 44.671875 74.21875 
L 44.671875 24.703125 
L 58.59375 24.703125 
L 58.59375 19.484375 
L 44.671875 19.484375 
L 44.671875 5.171875 
L 56.390625 5.171875 
z
" id="DejaVuSerif-52"/>
       </defs>
       <use xlink:href="#DejaVuSerif-8722"/>
       <use x="83.789062" xlink:href="#DejaVuSerif-52"/>
      </g>
     </g>
    </g>
    <g id="xtick_2">
     <g id="line2d_3">
      <path clip-path="url(#pbfc33a7509)" d="M 108 384.48 
L 108 51.84 
" style="fill:none;stroke:#b0b0b0;stroke-linecap:square;stroke-width:0.8;"/>
     </g>
     <g id="line2d_4">
      <g>
       <use style="stroke:#000000;stroke-width:0.8;" x="108" xlink:href="#m3cc85de032" y="384.48"/>
      </g>
     </g>
     <g id="text_2">
      <!-- 3 -->
      <g transform="translate(99.154687 400.598125)scale(0.12 -0.12)">
       <defs>
        <path d="M 9.71875 69.828125 
Q 15.4375 71.96875 20.671875 73.09375 
Q 25.921875 74.21875 30.515625 74.21875 
Q 41.21875 74.21875 47.21875 69.59375 
Q 53.21875 64.984375 53.21875 56.78125 
Q 53.21875 50.203125 49.0625 45.78125 
Q 44.921875 41.359375 37.3125 39.796875 
Q 46.296875 38.53125 51.25 33.28125 
Q 56.203125 28.03125 56.203125 19.671875 
Q 56.203125 9.46875 49.34375 4.015625 
Q 42.484375 -1.421875 29.59375 -1.421875 
Q 23.875 -1.421875 18.421875 -0.1875 
Q 12.984375 1.03125 7.625 3.515625 
L 7.625 17.671875 
L 13.09375 17.671875 
Q 13.578125 10.640625 17.828125 7.03125 
Q 22.078125 3.421875 29.78125 3.421875 
Q 37.25 3.421875 41.578125 7.734375 
Q 45.90625 12.0625 45.90625 19.578125 
Q 45.90625 28.171875 41.453125 32.59375 
Q 37.015625 37.015625 28.421875 37.015625 
L 23.78125 37.015625 
L 23.78125 42 
L 26.21875 42 
Q 34.765625 42 39.03125 45.53125 
Q 43.3125 49.078125 43.3125 56.203125 
Q 43.3125 62.59375 39.796875 65.984375 
Q 36.28125 69.390625 29.6875 69.390625 
Q 23.09375 69.390625 19.453125 66.265625 
Q 15.828125 63.140625 15.1875 56.984375 
L 9.71875 56.984375 
z
" id="DejaVuSerif-51"/>
       </defs>
       <use xlink:href="#DejaVuSerif-8722"/>
       <use x="83.789062" xlink:href="#DejaVuSerif-51"/>
      </g>
     </g>
    </g>
    <g id="xtick_3">
     <g id="line2d_5">
      <path clip-path="url(#pbfc33a7509)" d="M 145.8 384.48 
L 145.8 51.84 
" style="fill:none;stroke:#b0b0b0;stroke-linecap:square;stroke-width:0.8;"/>
     </g>
     <g id="line2d_6">
      <g>
       <use style="stroke:#000000;stroke-width:0.8;" x="145.8" xlink:href="#m3cc85de032" y="384.48"/>
      </g>
     </g>
     <g id="text_3">
      <!-- 2 -->
      <g transform="translate(136.954687 400.598125)scale(0.12 -0.12)">
       <defs>
        <path d="M 12.796875 55.515625 
L 7.328125 55.515625 
L 7.328125 68.5 
Q 12.546875 71.296875 17.84375 72.75 
Q 23.140625 74.21875 28.21875 74.21875 
Q 39.59375 74.21875 46.1875 68.703125 
Q 52.78125 63.1875 52.78125 53.71875 
Q 52.78125 43.015625 37.84375 28.125 
Q 36.671875 27 36.078125 26.421875 
L 17.671875 8.015625 
L 48.09375 8.015625 
L 48.09375 17 
L 53.8125 17 
L 53.8125 0 
L 6.78125 0 
L 6.78125 5.328125 
L 28.90625 27.390625 
Q 36.234375 34.71875 39.359375 40.84375 
Q 42.484375 46.96875 42.484375 53.71875 
Q 42.484375 61.078125 38.640625 65.234375 
Q 34.8125 69.390625 28.078125 69.390625 
Q 21.09375 69.390625 17.28125 65.921875 
Q 13.484375 62.453125 12.796875 55.515625 
z
" id="DejaVuSerif-50"/>
       </defs>
       <use xlink:href="#DejaVuSerif-8722"/>
       <use x="83.789062" xlink:href="#DejaVuSerif-50"/>
      </g>
     </g>
    </g>
    <g id="xtick_4">
     <g id="line2d_7">
      <path clip-path="url(#pbfc33a7509)" d="M 183.6 384.48 
L 183.6 51.84 
" style="fill:none;stroke:#b0b0b0;stroke-linecap:square;stroke-width:0.8;"/>
     </g>
     <g id="line2d_8">
      <g>
       <use style="stroke:#000000;stroke-width:0.8;" x="183.6" xlink:href="#m3cc85de032" y="384.48"/>
      </g>
     </g>
     <g id="text_4">
      <!-- 1 -->
      <g transform="translate(174.754687 400.598125)scale(0.12 -0.12)">
       <defs>
        <path d="M 14.203125 0 
L 14.203125 5.171875 
L 26.90625 5.171875 
L 26.90625 65.828125 
L 12.203125 56.296875 
L 12.203125 62.703125 
L 29.984375 74.21875 
L 36.71875 74.21875 
L 36.71875 5.171875 
L 49.421875 5.171875 
L 49.421875 0 
z
" id="DejaVuSerif-49"/>
       </defs>
       <use xlink:href="#DejaVuSerif-8722"/>
       <use x="83.789062" xlink:href="#DejaVuSerif-49"/>
      </g>
     </g>
    </g>
    <g id="xtick_5">
     <g id="line2d_9">
      <path clip-path="url(#pbfc33a7509)" d="M 221.4 384.48 
L 221.4 51.84 
" style="fill:none;stroke:#b0b0b0;stroke-linecap:square;stroke-width:0.8;"/>
     </g>
     <g id="line2d_10">
      <g>
       <use style="stroke:#000000;stroke-width:0.8;" x="221.4" xlink:href="#m3cc85de032" y="384.48"/>
      </g>
     </g>
     <g id="text_5">
      <!-- 0 -->
      <g transform="translate(217.5825 400.598125)scale(0.12 -0.12)">
       <defs>
        <path d="M 31.78125 3.421875 
Q 39.265625 3.421875 42.96875 11.625 
Q 46.6875 19.828125 46.6875 36.375 
Q 46.6875 52.984375 42.96875 61.1875 
Q 39.265625 69.390625 31.78125 69.390625 
Q 24.3125 69.390625 20.59375 61.1875 
Q 16.890625 52.984375 16.890625 36.375 
Q 16.890625 19.828125 20.59375 11.625 
Q 24.3125 3.421875 31.78125 3.421875 
z
M 31.78125 -1.421875 
Q 19.921875 -1.421875 13.25 8.53125 
Q 6.59375 18.5 6.59375 36.375 
Q 6.59375 54.296875 13.25 64.25 
Q 19.921875 74.21875 31.78125 74.21875 
Q 43.703125 74.21875 50.34375 64.25 
Q 56.984375 54.296875 56.984375 36.375 
Q 56.984375 18.5 50.34375 8.53125 
Q 43.703125 -1.421875 31.78125 -1.421875 
z
" id="DejaVuSerif-48"/>
       </defs>
       <use xlink:href="#DejaVuSerif-48"/>
      </g>
     </g>
    </g>
    <g id="xtick_6">
     <g id="line2d_11">
      <path clip-path="url(#pbfc33a7509)" d="M 259.2 384.48 
L 259.2 51.84 
" style="fill:none;stroke:#b0b0b0;stroke-linecap:square;stroke-width:0.8;"/>
     </g>
     <g id="line2d_12">
      <g>
       <use style="stroke:#000000;stroke-width:0.8;" x="259.2" xlink:href="#m3cc85de032" y="384.48"/>
      </g>
     </g>
     <g id="text_6">
      <!-- 1 -->
      <g transform="translate(255.3825 400.598125)scale(0.12 -0.12)">
       <use xlink:href="#DejaVuSerif-49"/>
      </g>
     </g>
    </g>
    <g id="xtick_7">
     <g id="line2d_13">
      <path clip-path="url(#pbfc33a7509)" d="M 297 384.48 
L 297 51.84 
" style="fill:none;stroke:#b0b0b0;stroke-linecap:square;stroke-width:0.8;"/>
     </g>
     <g id="line2d_14">
      <g>
       <use style="stroke:#000000;stroke-width:0.8;" x="297" xlink:href="#m3cc85de032" y="384.48"/>
      </g>
     </g>
     <g id="text_7">
      <!-- 2 -->
      <g transform="translate(293.1825 400.598125)scale(0.12 -0.12)">
       <use xlink:href="#DejaVuSerif-50"/>
      </g>
     </g>
    </g>
    <g id="xtick_8">
     <g id="line2d_15">
      <path clip-path="url(#pbfc33a7509)" d="M 334.8 384.48 
L 334.8 51.84 
" style="fill:none;stroke:#b0b0b0;stroke-linecap:square;stroke-width:0.8;"/>
     </g>
     <g id="line2d_16">
      <g>
       <use style="stroke:#000000;stroke-width:0.8;" x="334.8" xlink:href="#m3cc85de032" y="384.48"/>
      </g>
     </g>
     <g id="text_8">
      <!-- 3 -->
      <g transform="translate(330.9825 400.598125)scale(0.12 -0.12)">
       <use xlink:href="#DejaVuSerif-51"/>
      </g>
     </g>
    </g>
    <g id="xtick_9">
     <g id="line2d_17">
      <path clip-path="url(#pbfc33a7509)" d="M 372.6 384.48 
L 372.6 51.84 
" style="fill:none;stroke:#b0b0b0;stroke-linecap:square;stroke-width:0.8;"/>
     </g>
     <g id="line2d_18">
      <g>
       <use style="stroke:#000000;stroke-width:0.8;" x="372.6" xlink:href="#m3cc85de032" y="384.48"/>
      </g>
     </g>
     <g id="text_9">
      <!-- 4 -->
      <g transform="translate(368.7825 400.598125)scale(0.12 -0.12)">
       <use xlink:href="#DejaVuSerif-52"/>
      </g>
     </g>
    </g>
    <g id="text_10">
     <!-- $x/a$ -->
     <g transform="translate(202.2 425.09375)scale(0.24 -0.24)">
      <defs>
       <path d="M 7.8125 2.875 
Q 9.578125 1.515625 12.796875 1.515625 
Q 15.921875 1.515625 18.3125 4.515625 
Q 20.703125 7.515625 21.578125 11.078125 
L 26.125 28.8125 
Q 27.203125 33.640625 27.203125 35.40625 
Q 27.203125 37.890625 25.8125 39.75 
Q 24.421875 41.609375 21.921875 41.609375 
Q 18.75 41.609375 15.96875 39.625 
Q 13.1875 37.640625 11.28125 34.59375 
Q 9.375 31.546875 8.59375 28.421875 
Q 8.40625 27.78125 7.8125 27.78125 
L 6.59375 27.78125 
Q 5.8125 27.78125 5.8125 28.71875 
L 5.8125 29 
Q 6.78125 32.71875 9.125 36.25 
Q 11.46875 39.796875 14.859375 41.984375 
Q 18.265625 44.1875 22.125 44.1875 
Q 25.78125 44.1875 28.734375 42.234375 
Q 31.6875 40.28125 32.90625 36.921875 
Q 34.625 39.984375 37.28125 42.078125 
Q 39.9375 44.1875 43.109375 44.1875 
Q 45.265625 44.1875 47.5 43.421875 
Q 49.75 42.671875 51.171875 41.109375 
Q 52.59375 39.546875 52.59375 37.203125 
Q 52.59375 34.671875 50.953125 32.828125 
Q 49.3125 31 46.78125 31 
Q 45.171875 31 44.09375 32.03125 
Q 43.015625 33.0625 43.015625 34.625 
Q 43.015625 36.71875 44.453125 38.296875 
Q 45.90625 39.890625 47.90625 40.1875 
Q 46.09375 41.609375 42.921875 41.609375 
Q 39.703125 41.609375 37.328125 38.625 
Q 34.96875 35.640625 33.984375 31.984375 
L 29.59375 14.3125 
Q 28.515625 10.296875 28.515625 7.71875 
Q 28.515625 5.171875 29.953125 3.34375 
Q 31.390625 1.515625 33.796875 1.515625 
Q 38.484375 1.515625 42.15625 5.640625 
Q 45.84375 9.765625 47.015625 14.703125 
Q 47.21875 15.28125 47.796875 15.28125 
L 49.03125 15.28125 
Q 49.421875 15.28125 49.65625 15.015625 
Q 49.90625 14.75 49.90625 14.40625 
Q 49.90625 14.3125 49.8125 14.109375 
Q 48.390625 8.15625 43.84375 3.515625 
Q 39.3125 -1.125 33.59375 -1.125 
Q 29.9375 -1.125 26.984375 0.84375 
Q 24.03125 2.828125 22.796875 6.203125 
Q 21.234375 3.265625 18.46875 1.0625 
Q 15.71875 -1.125 12.59375 -1.125 
Q 10.453125 -1.125 8.171875 -0.359375 
Q 5.90625 0.390625 4.484375 1.953125 
Q 3.078125 3.515625 3.078125 5.90625 
Q 3.078125 8.25 4.703125 10.171875 
Q 6.34375 12.109375 8.796875 12.109375 
Q 10.453125 12.109375 11.578125 11.109375 
Q 12.703125 10.109375 12.703125 8.5 
Q 12.703125 6.390625 11.296875 4.828125 
Q 9.90625 3.265625 7.8125 2.875 
z
" id="Cmmi10-120"/>
       <path d="M 5.609375 -23 
Q 5.609375 -22.703125 5.71875 -22.609375 
L 40.484375 73.78125 
Q 40.671875 74.359375 41.15625 74.671875 
Q 41.65625 75 42.28125 75 
Q 43.171875 75 43.71875 74.453125 
Q 44.28125 73.921875 44.28125 73 
L 44.28125 72.609375 
L 9.515625 -23.78125 
Q 8.9375 -25 7.625 -25 
Q 6.78125 -25 6.1875 -24.40625 
Q 5.609375 -23.828125 5.609375 -23 
z
" id="Cmmi10-61"/>
       <path d="M 17.390625 -1.125 
Q 11.078125 -1.125 7.4375 3.640625 
Q 3.8125 8.40625 3.8125 14.890625 
Q 3.8125 21.296875 7.125 28.171875 
Q 10.453125 35.0625 16.09375 39.625 
Q 21.734375 44.1875 28.21875 44.1875 
Q 31.203125 44.1875 33.546875 42.578125 
Q 35.890625 40.96875 37.203125 38.1875 
Q 38.328125 42.1875 41.609375 42.1875 
Q 42.875 42.1875 43.71875 41.421875 
Q 44.578125 40.671875 44.578125 39.40625 
Q 44.578125 39.109375 44.546875 38.953125 
Q 44.53125 38.8125 44.484375 38.625 
L 37.5 10.6875 
Q 36.8125 7.71875 36.8125 5.8125 
Q 36.8125 1.515625 39.703125 1.515625 
Q 42.828125 1.515625 44.453125 5.484375 
Q 46.09375 9.46875 47.21875 14.703125 
Q 47.40625 15.28125 48 15.28125 
L 49.21875 15.28125 
Q 49.609375 15.28125 49.84375 14.9375 
Q 50.09375 14.59375 50.09375 14.3125 
Q 48.34375 7.328125 46.265625 3.09375 
Q 44.1875 -1.125 39.5 -1.125 
Q 36.140625 -1.125 33.546875 0.84375 
Q 30.953125 2.828125 30.328125 6.109375 
Q 23.875 -1.125 17.390625 -1.125 
z
M 17.484375 1.515625 
Q 21.09375 1.515625 24.484375 4.21875 
Q 27.875 6.9375 30.328125 10.59375 
Q 30.421875 10.6875 30.421875 10.890625 
L 35.796875 32.625 
L 35.890625 32.90625 
Q 35.296875 36.46875 33.3125 39.03125 
Q 31.34375 41.609375 27.984375 41.609375 
Q 24.609375 41.609375 21.703125 38.84375 
Q 18.796875 36.078125 16.796875 32.328125 
Q 14.84375 28.328125 13.0625 21.34375 
Q 11.28125 14.359375 11.28125 10.5 
Q 11.28125 7.03125 12.765625 4.265625 
Q 14.265625 1.515625 17.484375 1.515625 
z
" id="Cmmi10-97"/>
      </defs>
      <use xlink:href="#Cmmi10-120"/>
      <use transform="translate(57.080078 0)" xlink:href="#Cmmi10-61"/>
      <use transform="translate(107.080078 0)" xlink:href="#Cmmi10-97"/>
     </g>
    </g>
   </g>
   <g id="matplotlib.axis_2">
    <g id="ytick_1">
     <g id="line2d_19">
      <path clip-path="url(#pbfc33a7509)" d="M 55.08 369.36 
L 387.72 369.36 
" style="fill:none;stroke:#b0b0b0;stroke-linecap:square;stroke-width:0.8;"/>
     </g>
     <g id="line2d_20">
      <defs>
       <path d="M 0 0 
L -3.5 0 
" id="m8e41e6b7a4" style="stroke:#000000;stroke-width:0.8;"/>
      </defs>
      <g>
       <use style="stroke:#000000;stroke-width:0.8;" x="55.08" xlink:href="#m8e41e6b7a4" y="369.36"/>
      </g>
     </g>
     <g id="text_11">
      <!-- 4 -->
      <g transform="translate(30.389375 373.919062)scale(0.12 -0.12)">
       <use xlink:href="#DejaVuSerif-8722"/>
       <use x="83.789062" xlink:href="#DejaVuSerif-52"/>
      </g>
     </g>
    </g>
    <g id="ytick_2">
     <g id="line2d_21">
      <path clip-path="url(#pbfc33a7509)" d="M 55.08 331.56 
L 387.72 331.56 
" style="fill:none;stroke:#b0b0b0;stroke-linecap:square;stroke-width:0.8;"/>
     </g>
     <g id="line2d_22">
      <g>
       <use style="stroke:#000000;stroke-width:0.8;" x="55.08" xlink:href="#m8e41e6b7a4" y="331.56"/>
      </g>
     </g>
     <g id="text_12">
      <!-- 3 -->
      <g transform="translate(30.389375 336.119062)scale(0.12 -0.12)">
       <use xlink:href="#DejaVuSerif-8722"/>
       <use x="83.789062" xlink:href="#DejaVuSerif-51"/>
      </g>
     </g>
    </g>
    <g id="ytick_3">
     <g id="line2d_23">
      <path clip-path="url(#pbfc33a7509)" d="M 55.08 293.76 
L 387.72 293.76 
" style="fill:none;stroke:#b0b0b0;stroke-linecap:square;stroke-width:0.8;"/>
     </g>
     <g id="line2d_24">
      <g>
       <use style="stroke:#000000;stroke-width:0.8;" x="55.08" xlink:href="#m8e41e6b7a4" y="293.76"/>
      </g>
     </g>
     <g id="text_13">
      <!-- 2 -->
      <g transform="translate(30.389375 298.319062)scale(0.12 -0.12)">
       <use xlink:href="#DejaVuSerif-8722"/>
       <use x="83.789062" xlink:href="#DejaVuSerif-50"/>
      </g>
     </g>
    </g>
    <g id="ytick_4">
     <g id="line2d_25">
      <path clip-path="url(#pbfc33a7509)" d="M 55.08 255.96 
L 387.72 255.96 
" style="fill:none;stroke:#b0b0b0;stroke-linecap:square;stroke-width:0.8;"/>
     </g>
     <g id="line2d_26">
      <g>
       <use style="stroke:#000000;stroke-width:0.8;" x="55.08" xlink:href="#m8e41e6b7a4" y="255.96"/>
      </g>
     </g>
     <g id="text_14">
      <!-- 1 -->
      <g transform="translate(30.389375 260.519063)scale(0.12 -0.12)">
       <use xlink:href="#DejaVuSerif-8722"/>
       <use x="83.789062" xlink:href="#DejaVuSerif-49"/>
      </g>
     </g>
    </g>
    <g id="ytick_5">
     <g id="line2d_27">
      <path clip-path="url(#pbfc33a7509)" d="M 55.08 218.16 
L 387.72 218.16 
" style="fill:none;stroke:#b0b0b0;stroke-linecap:square;stroke-width:0.8;"/>
     </g>
     <g id="line2d_28">
      <g>
       <use style="stroke:#000000;stroke-width:0.8;" x="55.08" xlink:href="#m8e41e6b7a4" y="218.16"/>
      </g>
     </g>
     <g id="text_15">
      <!-- 0 -->
      <g transform="translate(40.445 222.719062)scale(0.12 -0.12)">
       <use xlink:href="#DejaVuSerif-48"/>
      </g>
     </g>
    </g>
    <g id="ytick_6">
     <g id="line2d_29">
      <path clip-path="url(#pbfc33a7509)" d="M 55.08 180.36 
L 387.72 180.36 
" style="fill:none;stroke:#b0b0b0;stroke-linecap:square;stroke-width:0.8;"/>
     </g>
     <g id="line2d_30">
      <g>
       <use style="stroke:#000000;stroke-width:0.8;" x="55.08" xlink:href="#m8e41e6b7a4" y="180.36"/>
      </g>
     </g>
     <g id="text_16">
      <!-- 1 -->
      <g transform="translate(40.445 184.919062)scale(0.12 -0.12)">
       <use xlink:href="#DejaVuSerif-49"/>
      </g>
     </g>
    </g>
    <g id="ytick_7">
     <g id="line2d_31">
      <path clip-path="url(#pbfc33a7509)" d="M 55.08 142.56 
L 387.72 142.56 
" style="fill:none;stroke:#b0b0b0;stroke-linecap:square;stroke-width:0.8;"/>
     </g>
     <g id="line2d_32">
      <g>
       <use style="stroke:#000000;stroke-width:0.8;" x="55.08" xlink:href="#m8e41e6b7a4" y="142.56"/>
      </g>
     </g>
     <g id="text_17">
      <!-- 2 -->
      <g transform="translate(40.445 147.119062)scale(0.12 -0.12)">
       <use xlink:href="#DejaVuSerif-50"/>
      </g>
     </g>
    </g>
    <g id="ytick_8">
     <g id="line2d_33">
      <path clip-path="url(#pbfc33a7509)" d="M 55.08 104.76 
L 387.72 104.76 
" style="fill:none;stroke:#b0b0b0;stroke-linecap:square;stroke-width:0.8;"/>
     </g>
     <g id="line2d_34">
      <g>
       <use style="stroke:#000000;stroke-width:0.8;" x="55.08" xlink:href="#m8e41e6b7a4" y="104.76"/>
      </g>
     </g>
     <g id="text_18">
      <!-- 3 -->
      <g transform="translate(40.445 109.319062)scale(0.12 -0.12)">
       <use xlink:href="#DejaVuSerif-51"/>
      </g>
     </g>
    </g>
    <g id="ytick_9">
     <g id="line2d_35">
      <path clip-path="url(#pbfc33a7509)" d="M 55.08 66.96 
L 387.72 66.96 
" style="fill:none;stroke:#b0b0b0;stroke-linecap:square;stroke-width:0.8;"/>
     </g>
     <g id="line2d_36">
      <g>
       <use style="stroke:#000000;stroke-width:0.8;" x="55.08" xlink:href="#m8e41e6b7a4" y="66.96"/>
      </g>
     </g>
     <g id="text_19">
      <!-- 4 -->
      <g transform="translate(40.445 71.519062)scale(0.12 -0.12)">
       <use xlink:href="#DejaVuSerif-52"/>
      </g>
     </g>
    </g>
    <g id="text_20">
     <!-- $z/a$ -->
     <g transform="translate(20.389375 236.16)rotate(-90)scale(0.24 -0.24)">
      <defs>
       <path d="M 4.890625 -1.125 
Q 4.109375 -1.125 4.109375 -0.203125 
Q 4.109375 0.296875 4.296875 0.484375 
Q 6.984375 5.125 10.765625 9.34375 
Q 14.546875 13.578125 19.359375 17.890625 
Q 24.171875 22.21875 29.03125 26.5625 
Q 33.890625 30.90625 36.921875 34.28125 
L 36.53125 34.28125 
Q 34.328125 34.28125 30.078125 35.6875 
Q 25.828125 37.109375 23.390625 37.109375 
Q 20.75 37.109375 18.25 35.953125 
Q 15.765625 34.8125 15.09375 32.421875 
Q 14.9375 31.6875 14.3125 31.6875 
L 13.09375 31.6875 
Q 12.3125 31.6875 12.3125 32.71875 
L 12.3125 33.015625 
Q 13.09375 35.9375 14.875 38.46875 
Q 16.65625 41.015625 19.265625 42.59375 
Q 21.875 44.1875 24.703125 44.1875 
Q 26.703125 44.1875 28.015625 43.28125 
Q 29.34375 42.390625 31.09375 40.484375 
Q 32.859375 38.578125 33.953125 37.75 
Q 35.0625 36.921875 36.71875 36.921875 
Q 38.921875 36.921875 40.65625 38.921875 
Q 42.390625 40.921875 44.09375 43.890625 
Q 44.390625 44.1875 44.828125 44.1875 
L 46 44.1875 
Q 46.34375 44.1875 46.5625 43.9375 
Q 46.78125 43.703125 46.78125 43.3125 
Q 46.78125 42.96875 46.578125 42.671875 
Q 43.890625 38.03125 40.296875 34 
Q 36.71875 29.984375 30.921875 24.78125 
Q 25.140625 19.578125 21.15625 15.984375 
Q 17.1875 12.40625 13.71875 8.59375 
Q 14.5 8.796875 15.828125 8.796875 
Q 18.265625 8.796875 22.484375 7.390625 
Q 26.703125 6 29 6 
Q 31.5 6 34.03125 7.078125 
Q 36.578125 8.15625 38.421875 10.109375 
Q 40.28125 12.0625 40.921875 14.59375 
Q 41.15625 15.28125 41.703125 15.28125 
L 42.921875 15.28125 
Q 43.3125 15.28125 43.546875 14.96875 
Q 43.796875 14.65625 43.796875 14.3125 
Q 43.796875 14.203125 43.703125 14.015625 
Q 42.78125 10.203125 40.484375 6.765625 
Q 38.1875 3.328125 34.84375 1.09375 
Q 31.5 -1.125 27.6875 -1.125 
Q 25.78125 -1.125 24.453125 -0.234375 
Q 23.140625 0.640625 21.359375 2.5625 
Q 19.578125 4.5 18.453125 5.34375 
Q 17.328125 6.203125 15.71875 6.203125 
Q 10.75 6.203125 6.78125 -0.78125 
Q 6.453125 -1.125 6.109375 -1.125 
z
" id="Cmmi10-122"/>
      </defs>
      <use xlink:href="#Cmmi10-122"/>
      <use transform="translate(46.484375 0)" xlink:href="#Cmmi10-61"/>
      <use transform="translate(96.484375 0)" xlink:href="#Cmmi10-97"/>
     </g>
    </g>
   </g>
   <g id="line2d_37">
    <defs>
     <path d="M 0 4 
C 1.060812 4 2.078319 3.578535 2.828427 2.828427 
C 3.578535 2.078319 4 1.060812 4 0 
C 4 -1.060812 3.578535 -2.078319 2.828427 -2.828427 
C 2.078319 -3.578535 1.060812 -4 0 -4 
C -1.060812 -4 -2.078319 -3.578535 -2.828427 -2.828427 
C -3.578535 -2.078319 -4 -1.060812 -4 0 
C -4 1.060812 -3.578535 2.078319 -2.828427 2.828427 
C -2.078319 3.578535 -1.060812 4 0 4 
z
" id="m0ac99a755f" style="stroke:#000000;"/>
    </defs>
    <g clip-path="url(#pbfc33a7509)">
     <use style="stroke:#000000;" x="259.2" xlink:href="#m0ac99a755f" y="218.16"/>
     <use style="stroke:#000000;" x="183.6" xlink:href="#m0ac99a755f" y="218.16"/>
    </g>
   </g>
   <g id="line2d_38">
    <defs>
     <path d="M 0 2 
C 0.530406 2 1.03916 1.789267 1.414214 1.414214 
C 1.789267 1.03916 2 0.530406 2 0 
C 2 -0.530406 1.789267 -1.03916 1.414214 -1.414214 
C 1.03916 -1.789267 0.530406 -2 0 -2 
C -0.530406 -2 -1.03916 -1.789267 -1.414214 -1.414214 
C -1.789267 -1.03916 -2 -0.530406 -2 0 
C -2 0.530406 -1.789267 1.03916 -1.414214 1.414214 
C -1.03916 1.789267 -0.530406 2 0 2 
z
" id="m85f0158272" style="stroke:#ffffff;"/>
    </defs>
    <g clip-path="url(#pbfc33a7509)">
     <use style="fill:#ffffff;stroke:#ffffff;" x="259.2" xlink:href="#m85f0158272" y="218.16"/>
     <use style="fill:#ffffff;stroke:#ffffff;" x="183.6" xlink:href="#m85f0158272" y="218.16"/>
    </g>
   </g>
   <g id="line2d_39">
    <defs>
     <path d="M -2 2 
L 2 -2 
M -2 -2 
L 2 2 
" id="m8767078465" style="stroke:#000000;"/>
    </defs>
    <g clip-path="url(#pbfc33a7509)">
     <use style="stroke:#000000;" x="259.2" xlink:href="#m8767078465" y="218.16"/>
    </g>
   </g>
   <g id="line2d_40">
    <defs>
     <path d="M 0 1 
C 0.265203 1 0.51958 0.894634 0.707107 0.707107 
C 0.894634 0.51958 1 0.265203 1 0 
C 1 -0.265203 0.894634 -0.51958 0.707107 -0.707107 
C 0.51958 -0.894634 0.265203 -1 0 -1 
C -0.265203 -1 -0.51958 -0.894634 -0.707107 -0.707107 
C -0.894634 -0.51958 -1 -0.265203 -1 0 
C -1 0.265203 -0.894634 0.51958 -0.707107 0.707107 
C -0.51958 0.894634 -0.265203 1 0 1 
z
" id="mb01424988e" style="stroke:#000000;"/>
    </defs>
    <g clip-path="url(#pbfc33a7509)">
     <use style="stroke:#000000;" x="183.6" xlink:href="#mb01424988e" y="218.16"/>
    </g>
   </g>
   <g id="patch_3">
    <path d="M 55.08 384.48 
L 55.08 51.84 
" style="fill:none;stroke:#000000;stroke-linecap:square;stroke-linejoin:miter;stroke-width:0.8;"/>
   </g>
   <g id="patch_4">
    <path d="M 387.72 384.48 
L 387.72 51.84 
" style="fill:none;stroke:#000000;stroke-linecap:square;stroke-linejoin:miter;stroke-width:0.8;"/>
   </g>
   <g id="patch_5">
    <path d="M 55.08 384.48 
L 387.72 384.48 
" style="fill:none;stroke:#000000;stroke-linecap:square;stroke-linejoin:miter;stroke-width:0.8;"/>
   </g>
   <g id="patch_6">
    <path d="M 55.08 51.84 
L 387.72 51.84 
" style="fill:none;stroke:#000000;stroke-linecap:square;stroke-linejoin:miter;stroke-width:0.8;"/>
   </g>
  </g>
 </g>
 <defs>
  <clipPath id="pbfc33a7509">
   <rect height="332.64" width="332.64" x="55.08" y="51.84"/>
  </clipPath>
 </defs>
</svg>
