<?xml version="1.0" encoding="utf-8" standalone="no"?>
<!DOCTYPE svg PUBLIC "-//W3C//DTD SVG 1.1//EN"
  "http://www.w3.org/Graphics/SVG/1.1/DTD/svg11.dtd">
<svg height="648pt" version="1.1" viewBox="0 0 432 648" width="432pt" xmlns="http://www.w3.org/2000/svg" xmlns:xlink="http://www.w3.org/1999/xlink">
 <metadata>
  <rdf:RDF xmlns:cc="http://creativecommons.org/ns#" xmlns:dc="http://purl.org/dc/elements/1.1/" xmlns:rdf="http://www.w3.org/1999/02/22-rdf-syntax-ns#">
   <cc:Work>
    <dc:type rdf:resource="http://purl.org/dc/dcmitype/StillImage"/>
    <dc:date>2021-06-05T17:29:15.912220</dc:date>
    <dc:format>image/svg+xml</dc:format>
    <dc:creator>
     <cc:Agent>
      <dc:title>Matplotlib v3.4.2, https://matplotlib.org/</dc:title>
     </cc:Agent>
    </dc:creator>
   </cc:Work>
  </rdf:RDF>
 </metadata>
 <defs>
  <style type="text/css">*{stroke-linecap:butt;stroke-linejoin:round;}</style>
 </defs>
 <g id="figure_1">
  <g id="patch_1">
   <path d="M 0 648 
L 432 648 
L 432 0 
L 0 0 
z
" style="fill:#ffffff;"/>
  </g>
  <g id="axes_1">
   <g id="patch_2">
    <path d="M 60.48 288.065455 
L 371.52 288.065455 
L 371.52 25.92 
L 60.48 25.92 
z
" style="fill:#ffffff;"/>
   </g>
   <g id="matplotlib.axis_1">
    <g id="xtick_1">
     <g id="line2d_1">
      <path clip-path="url(#p2eabc0fb4d)" d="M 60.48 288.065455 
L 60.48 25.92 
" style="fill:none;stroke:#b0b0b0;stroke-linecap:square;stroke-width:0.8;"/>
     </g>
     <g id="line2d_2">
      <defs>
       <path d="M 0 0 
L 0 3.5 
" id="m2f213fea79" style="stroke:#000000;stroke-width:0.8;"/>
      </defs>
      <g>
       <use style="stroke:#000000;stroke-width:0.8;" x="60.48" xlink:href="#m2f213fea79" y="288.065455"/>
      </g>
     </g>
     <g id="text_1">
      <!-- $0$ -->
      <g transform="translate(56.98 304.78233)scale(0.14 -0.14)">
       <defs>
        <path d="M 1600 -141 
Q 816 -141 533 504 
Q 250 1150 250 2041 
Q 250 2597 351 3087 
Q 453 3578 754 3920 
Q 1056 4263 1600 4263 
Q 2022 4263 2290 4056 
Q 2559 3850 2700 3523 
Q 2841 3197 2892 2823 
Q 2944 2450 2944 2041 
Q 2944 1491 2842 1011 
Q 2741 531 2444 195 
Q 2147 -141 1600 -141 
z
M 1600 25 
Q 1956 25 2131 390 
Q 2306 756 2347 1200 
Q 2388 1644 2388 2144 
Q 2388 2625 2347 3031 
Q 2306 3438 2132 3767 
Q 1959 4097 1600 4097 
Q 1238 4097 1063 3765 
Q 888 3434 847 3029 
Q 806 2625 806 2144 
Q 806 1788 823 1472 
Q 841 1156 916 820 
Q 991 484 1158 254 
Q 1325 25 1600 25 
z
" id="Cmr10-30" transform="scale(0.015625)"/>
       </defs>
       <use transform="translate(0 0.390625)" xlink:href="#Cmr10-30"/>
      </g>
     </g>
    </g>
    <g id="xtick_2">
     <g id="line2d_3">
      <path clip-path="url(#p2eabc0fb4d)" d="M 138.24 288.065455 
L 138.24 25.92 
" style="fill:none;stroke:#b0b0b0;stroke-linecap:square;stroke-width:0.8;"/>
     </g>
     <g id="line2d_4">
      <g>
       <use style="stroke:#000000;stroke-width:0.8;" x="138.24" xlink:href="#m2f213fea79" y="288.065455"/>
      </g>
     </g>
     <g id="text_2">
      <!-- $\pi/8$ -->
      <g transform="translate(127.25 305.565455)scale(0.14 -0.14)">
       <defs>
        <path d="M 647 109 
Q 647 144 672 213 
Q 850 584 1004 942 
Q 1159 1300 1282 1639 
Q 1406 1978 1509 2363 
L 1100 2363 
Q 866 2363 662 2216 
Q 459 2069 325 1844 
Q 313 1819 288 1819 
L 213 1819 
Q 153 1819 153 1881 
Q 153 1894 166 1919 
Q 375 2275 614 2517 
Q 853 2759 1153 2759 
L 3475 2759 
Q 3541 2759 3587 2715 
Q 3634 2672 3634 2597 
Q 3634 2503 3567 2433 
Q 3500 2363 3406 2363 
L 2591 2363 
Q 2488 1859 2478 1381 
Q 2478 766 2694 269 
Q 2713 231 2713 191 
Q 2713 122 2672 62 
Q 2631 3 2567 -34 
Q 2503 -72 2431 -72 
Q 2263 -72 2200 203 
Q 2138 478 2138 738 
Q 2138 1103 2200 1442 
Q 2263 1781 2400 2363 
L 1703 2363 
Q 1197 313 1094 103 
Q 1003 -72 844 -72 
Q 766 -72 706 -20 
Q 647 31 647 109 
z
" id="Cmmi10-bc" transform="scale(0.015625)"/>
        <path d="M 359 -1472 
Q 359 -1453 366 -1447 
L 2591 4722 
Q 2603 4759 2634 4779 
Q 2666 4800 2706 4800 
Q 2763 4800 2798 4765 
Q 2834 4731 2834 4672 
L 2834 4647 
L 609 -1522 
Q 572 -1600 488 -1600 
Q 434 -1600 396 -1562 
Q 359 -1525 359 -1472 
z
" id="Cmmi10-3d" transform="scale(0.015625)"/>
        <path d="M 269 972 
Q 269 1356 522 1651 
Q 775 1947 1172 2144 
L 934 2297 
Q 716 2441 578 2680 
Q 441 2919 441 3181 
Q 441 3488 602 3734 
Q 763 3981 1030 4122 
Q 1297 4263 1600 4263 
Q 1884 4263 2148 4147 
Q 2413 4031 2583 3815 
Q 2753 3600 2753 3303 
Q 2753 3088 2651 2903 
Q 2550 2719 2373 2572 
Q 2197 2425 1997 2322 
L 2363 2088 
Q 2616 1922 2770 1653 
Q 2925 1384 2925 1088 
Q 2925 741 2739 456 
Q 2553 172 2247 15 
Q 1941 -141 1600 -141 
Q 1269 -141 961 -6 
Q 653 128 461 383 
Q 269 638 269 972 
z
M 616 972 
Q 616 719 755 509 
Q 894 300 1122 181 
Q 1350 63 1600 63 
Q 1972 63 2275 280 
Q 2578 497 2578 856 
Q 2578 978 2529 1098 
Q 2481 1219 2395 1317 
Q 2309 1416 2203 1478 
L 1344 2034 
Q 1144 1928 976 1765 
Q 809 1603 712 1400 
Q 616 1197 616 972 
z
M 1056 2925 
L 1831 2425 
Q 2100 2581 2272 2803 
Q 2444 3025 2444 3303 
Q 2444 3519 2323 3698 
Q 2203 3878 2009 3978 
Q 1816 4078 1594 4078 
Q 1400 4078 1203 4003 
Q 1006 3928 878 3779 
Q 750 3631 750 3431 
Q 750 3131 1056 2925 
z
" id="Cmr10-38" transform="scale(0.015625)"/>
       </defs>
       <use xlink:href="#Cmmi10-bc"/>
       <use transform="translate(56.982422 0)" xlink:href="#Cmmi10-3d"/>
       <use transform="translate(106.982422 0)" xlink:href="#Cmr10-38"/>
      </g>
     </g>
    </g>
    <g id="xtick_3">
     <g id="line2d_5">
      <path clip-path="url(#p2eabc0fb4d)" d="M 216 288.065455 
L 216 25.92 
" style="fill:none;stroke:#b0b0b0;stroke-linecap:square;stroke-width:0.8;"/>
     </g>
     <g id="line2d_6">
      <g>
       <use style="stroke:#000000;stroke-width:0.8;" x="216" xlink:href="#m2f213fea79" y="288.065455"/>
      </g>
     </g>
     <g id="text_3">
      <!-- $\pi/4$ -->
      <g transform="translate(205.01 305.565455)scale(0.14 -0.14)">
       <defs>
        <path d="M 178 1056 
L 178 1281 
L 2156 4231 
Q 2178 4263 2222 4263 
L 2316 4263 
Q 2388 4263 2388 4191 
L 2388 1281 
L 3016 1281 
L 3016 1056 
L 2388 1056 
L 2388 428 
Q 2388 297 2575 261 
Q 2763 225 3009 225 
L 3009 0 
L 1247 0 
L 1247 225 
Q 1494 225 1681 261 
Q 1869 297 1869 428 
L 1869 1056 
L 178 1056 
z
M 391 1281 
L 1906 1281 
L 1906 3547 
L 391 1281 
z
" id="Cmr10-34" transform="scale(0.015625)"/>
       </defs>
       <use xlink:href="#Cmmi10-bc"/>
       <use transform="translate(56.982422 0)" xlink:href="#Cmmi10-3d"/>
       <use transform="translate(106.982422 0)" xlink:href="#Cmr10-34"/>
      </g>
     </g>
    </g>
    <g id="xtick_4">
     <g id="line2d_7">
      <path clip-path="url(#p2eabc0fb4d)" d="M 293.76 288.065455 
L 293.76 25.92 
" style="fill:none;stroke:#b0b0b0;stroke-linecap:square;stroke-width:0.8;"/>
     </g>
     <g id="line2d_8">
      <g>
       <use style="stroke:#000000;stroke-width:0.8;" x="293.76" xlink:href="#m2f213fea79" y="288.065455"/>
      </g>
     </g>
     <g id="text_4">
      <!-- $3\pi/8$ -->
      <g transform="translate(279.27 305.565455)scale(0.14 -0.14)">
       <defs>
        <path d="M 609 494 
Q 759 275 1012 169 
Q 1266 63 1556 63 
Q 1928 63 2084 380 
Q 2241 697 2241 1100 
Q 2241 1281 2208 1462 
Q 2175 1644 2097 1800 
Q 2019 1956 1883 2050 
Q 1747 2144 1550 2144 
L 1125 2144 
Q 1069 2144 1069 2203 
L 1069 2259 
Q 1069 2309 1125 2309 
L 1478 2338 
Q 1703 2338 1851 2506 
Q 2000 2675 2069 2917 
Q 2138 3159 2138 3378 
Q 2138 3684 1994 3881 
Q 1850 4078 1556 4078 
Q 1313 4078 1091 3986 
Q 869 3894 738 3706 
Q 750 3709 759 3711 
Q 769 3713 781 3713 
Q 925 3713 1022 3613 
Q 1119 3513 1119 3372 
Q 1119 3234 1022 3134 
Q 925 3034 781 3034 
Q 641 3034 541 3134 
Q 441 3234 441 3372 
Q 441 3647 606 3850 
Q 772 4053 1033 4158 
Q 1294 4263 1556 4263 
Q 1750 4263 1965 4205 
Q 2181 4147 2356 4039 
Q 2531 3931 2642 3762 
Q 2753 3594 2753 3378 
Q 2753 3109 2633 2881 
Q 2513 2653 2303 2487 
Q 2094 2322 1844 2241 
Q 2122 2188 2372 2031 
Q 2622 1875 2773 1631 
Q 2925 1388 2925 1106 
Q 2925 753 2731 467 
Q 2538 181 2222 20 
Q 1906 -141 1556 -141 
Q 1256 -141 954 -26 
Q 653 88 461 316 
Q 269 544 269 863 
Q 269 1022 375 1128 
Q 481 1234 641 1234 
Q 744 1234 830 1186 
Q 916 1138 964 1050 
Q 1013 963 1013 863 
Q 1013 706 903 600 
Q 794 494 641 494 
L 609 494 
z
" id="Cmr10-33" transform="scale(0.015625)"/>
       </defs>
       <use xlink:href="#Cmr10-33"/>
       <use transform="translate(50 0)" xlink:href="#Cmmi10-bc"/>
       <use transform="translate(106.982422 0)" xlink:href="#Cmmi10-3d"/>
       <use transform="translate(156.982422 0)" xlink:href="#Cmr10-38"/>
      </g>
     </g>
    </g>
    <g id="xtick_5">
     <g id="line2d_9">
      <path clip-path="url(#p2eabc0fb4d)" d="M 371.52 288.065455 
L 371.52 25.92 
" style="fill:none;stroke:#b0b0b0;stroke-linecap:square;stroke-width:0.8;"/>
     </g>
     <g id="line2d_10">
      <g>
       <use style="stroke:#000000;stroke-width:0.8;" x="371.52" xlink:href="#m2f213fea79" y="288.065455"/>
      </g>
     </g>
     <g id="text_5">
      <!-- $\pi/2$ -->
      <g transform="translate(360.53 305.565455)scale(0.14 -0.14)">
       <defs>
        <path d="M 319 0 
L 319 172 
Q 319 188 331 206 
L 1325 1306 
Q 1550 1550 1690 1715 
Q 1831 1881 1968 2097 
Q 2106 2313 2186 2536 
Q 2266 2759 2266 3009 
Q 2266 3272 2169 3511 
Q 2072 3750 1880 3894 
Q 1688 4038 1416 4038 
Q 1138 4038 916 3870 
Q 694 3703 603 3438 
Q 628 3444 672 3444 
Q 816 3444 917 3347 
Q 1019 3250 1019 3097 
Q 1019 2950 917 2848 
Q 816 2747 672 2747 
Q 522 2747 420 2851 
Q 319 2956 319 3097 
Q 319 3338 409 3548 
Q 500 3759 670 3923 
Q 841 4088 1055 4175 
Q 1269 4263 1509 4263 
Q 1875 4263 2190 4108 
Q 2506 3953 2690 3670 
Q 2875 3388 2875 3009 
Q 2875 2731 2753 2481 
Q 2631 2231 2440 2026 
Q 2250 1822 1953 1562 
Q 1656 1303 1563 1216 
L 838 519 
L 1453 519 
Q 1906 519 2211 526 
Q 2516 534 2534 550 
Q 2609 631 2688 1141 
L 2875 1141 
L 2694 0 
L 319 0 
z
" id="Cmr10-32" transform="scale(0.015625)"/>
       </defs>
       <use xlink:href="#Cmmi10-bc"/>
       <use transform="translate(56.982422 0)" xlink:href="#Cmmi10-3d"/>
       <use transform="translate(106.982422 0)" xlink:href="#Cmr10-32"/>
      </g>
     </g>
    </g>
    <g id="text_6">
     <!-- latitude $\theta$ -->
     <g transform="translate(182.4 324.170455)scale(0.16 -0.16)">
      <defs>
       <path d="M 1632 0 
L 1632 198 
C 1203 198 1133 198 1133 486 
L 1133 4442 
L 211 4371 
L 211 4173 
C 659 4173 710 4128 710 3814 
L 710 486 
C 710 198 640 198 211 198 
L 211 0 
L 922 19 
L 1632 0 
z
" id="LatinModernMath-Regular-6c" transform="scale(0.015625)"/>
       <path d="M 3091 570 
L 3091 928 
L 2931 928 
L 2931 570 
C 2931 198 2771 160 2701 160 
C 2490 160 2464 448 2464 480 
L 2464 1760 
C 2464 2029 2464 2278 2234 2515 
C 1984 2765 1664 2867 1357 2867 
C 832 2867 390 2566 390 2144 
C 390 1952 518 1843 685 1843 
C 864 1843 979 1971 979 2138 
C 979 2214 947 2426 653 2432 
C 826 2656 1139 2726 1344 2726 
C 1658 2726 2022 2477 2022 1907 
L 2022 1670 
C 1696 1651 1248 1632 845 1440 
C 365 1222 205 890 205 608 
C 205 90 826 -70 1229 -70 
C 1651 -70 1946 186 2067 486 
C 2093 230 2266 -38 2566 -38 
C 2701 -38 3091 51 3091 570 
z
M 2022 896 
C 2022 288 1562 70 1274 70 
C 960 70 698 294 698 614 
C 698 966 966 1498 2022 1536 
L 2022 896 
z
" id="LatinModernMath-Regular-61" transform="scale(0.015625)"/>
       <path d="M 2125 794 
L 2125 1158 
L 1965 1158 
L 1965 806 
C 1965 333 1773 90 1536 90 
C 1107 90 1107 672 1107 781 
L 1107 2560 
L 2022 2560 
L 2022 2758 
L 1107 2758 
L 1107 3936 
L 947 3936 
C 941 3411 749 2726 122 2701 
L 122 2560 
L 666 2560 
L 666 794 
C 666 6 1261 -70 1491 -70 
C 1946 -70 2125 384 2125 794 
z
" id="LatinModernMath-Regular-74" transform="scale(0.015625)"/>
       <path d="M 1581 0 
L 1581 198 
C 1158 198 1133 230 1133 480 
L 1133 2829 
L 237 2758 
L 237 2560 
C 653 2560 710 2522 710 2208 
L 710 486 
C 710 198 640 198 211 198 
L 211 0 
L 915 19 
C 1139 19 1363 6 1581 0 
z
M 1229 3866 
C 1229 4038 1082 4205 890 4205 
C 672 4205 544 4026 544 3866 
C 544 3693 691 3526 883 3526 
C 1101 3526 1229 3706 1229 3866 
z
" id="LatinModernMath-Regular-69" transform="scale(0.015625)"/>
       <path d="M 3424 0 
L 3424 198 
C 2976 198 2925 243 2925 557 
L 2925 2829 
L 1984 2758 
L 1984 2560 
C 2432 2560 2483 2515 2483 2202 
L 2483 1062 
C 2483 506 2176 70 1709 70 
C 1171 70 1146 371 1146 704 
L 1146 2829 
L 205 2758 
L 205 2560 
C 704 2560 704 2541 704 1971 
L 704 1011 
C 704 512 704 -70 1677 -70 
C 2035 -70 2317 109 2502 506 
L 2502 -70 
L 3424 0 
z
" id="LatinModernMath-Regular-75" transform="scale(0.015625)"/>
       <path d="M 3373 0 
L 3373 198 
C 2925 198 2874 243 2874 557 
L 2874 4442 
L 1952 4371 
L 1952 4173 
C 2400 4173 2451 4128 2451 3814 
L 2451 2432 
C 2266 2662 1990 2829 1645 2829 
C 890 2829 218 2202 218 1376 
C 218 563 845 -70 1574 -70 
C 1984 -70 2272 147 2432 352 
L 2432 -70 
L 3373 0 
z
M 2432 755 
C 2432 640 2432 627 2362 518 
C 2170 211 1882 70 1606 70 
C 1318 70 1088 237 934 480 
C 768 742 749 1107 749 1370 
C 749 1606 762 1990 947 2278 
C 1082 2477 1325 2688 1670 2688 
C 1894 2688 2163 2592 2362 2304 
C 2432 2195 2432 2182 2432 2067 
L 2432 755 
z
" id="LatinModernMath-Regular-64" transform="scale(0.015625)"/>
       <path d="M 2656 762 
C 2656 826 2605 838 2573 838 
C 2515 838 2502 800 2490 749 
C 2266 90 1690 90 1626 90 
C 1306 90 1050 282 902 518 
C 710 826 710 1248 710 1478 
L 2496 1478 
C 2637 1478 2656 1478 2656 1613 
C 2656 2246 2310 2867 1510 2867 
C 768 2867 179 2208 179 1408 
C 179 550 851 -70 1587 -70 
C 2368 -70 2656 640 2656 762 
z
M 2234 1613 
L 717 1613 
C 755 2566 1293 2726 1510 2726 
C 2170 2726 2234 1862 2234 1613 
z
" id="LatinModernMath-Regular-65" transform="scale(0.015625)"/>
       <path id="LatinModernMath-Regular-20" transform="scale(0.015625)"/>
       <path d="M 1031 -72 
Q 741 -72 566 140 
Q 391 353 323 653 
Q 256 953 256 1247 
L 256 1253 
Q 256 1572 317 1915 
Q 378 2259 493 2601 
Q 609 2944 744 3213 
Q 838 3400 986 3631 
Q 1134 3863 1317 4064 
Q 1500 4266 1711 4389 
Q 1922 4513 2138 4513 
L 2144 4513 
Q 2375 4513 2529 4384 
Q 2684 4256 2770 4056 
Q 2856 3856 2890 3628 
Q 2925 3400 2925 3194 
Q 2925 2709 2794 2204 
Q 2663 1700 2431 1228 
Q 2344 1050 2189 809 
Q 2034 569 1861 378 
Q 1688 188 1472 58 
Q 1256 -72 1038 -72 
L 1031 -72 
z
M 1044 97 
Q 1256 97 1451 323 
Q 1647 550 1794 873 
Q 1941 1197 2052 1536 
Q 2163 1875 2216 2113 
L 909 2113 
Q 809 1709 753 1417 
Q 697 1125 697 844 
Q 697 97 1044 97 
z
M 959 2338 
L 2272 2338 
Q 2341 2619 2381 2808 
Q 2422 2997 2450 3206 
Q 2478 3416 2478 3597 
Q 2478 4347 2138 4347 
Q 1731 4347 1436 3692 
Q 1141 3038 959 2338 
z
" id="Cmmi10-b5" transform="scale(0.015625)"/>
      </defs>
      <use transform="translate(0 0.484375)" xlink:href="#LatinModernMath-Regular-6c"/>
      <use transform="translate(27.799988 0.484375)" xlink:href="#LatinModernMath-Regular-61"/>
      <use transform="translate(77.799973 0.484375)" xlink:href="#LatinModernMath-Regular-74"/>
      <use transform="translate(116.699966 0.484375)" xlink:href="#LatinModernMath-Regular-69"/>
      <use transform="translate(144.499954 0.484375)" xlink:href="#LatinModernMath-Regular-74"/>
      <use transform="translate(183.399948 0.484375)" xlink:href="#LatinModernMath-Regular-75"/>
      <use transform="translate(238.999939 0.484375)" xlink:href="#LatinModernMath-Regular-64"/>
      <use transform="translate(294.59993 0.484375)" xlink:href="#LatinModernMath-Regular-65"/>
      <use transform="translate(338.999924 0.484375)" xlink:href="#LatinModernMath-Regular-20"/>
      <use transform="translate(372.199921 0.484375)" xlink:href="#Cmmi10-b5"/>
     </g>
    </g>
   </g>
   <g id="matplotlib.axis_2">
    <g id="ytick_1">
     <g id="line2d_11">
      <path clip-path="url(#p2eabc0fb4d)" d="M 60.48 288.065455 
L 371.52 288.065455 
" style="fill:none;stroke:#b0b0b0;stroke-linecap:square;stroke-width:0.8;"/>
     </g>
     <g id="line2d_12">
      <defs>
       <path d="M 0 0 
L -3.5 0 
" id="m3bd529417e" style="stroke:#000000;stroke-width:0.8;"/>
      </defs>
      <g>
       <use style="stroke:#000000;stroke-width:0.8;" x="60.48" xlink:href="#m3bd529417e" y="288.065455"/>
      </g>
     </g>
     <g id="text_7">
      <!-- $0$ -->
      <g transform="translate(46.48 292.923892)scale(0.14 -0.14)">
       <use transform="translate(0 0.390625)" xlink:href="#Cmr10-30"/>
      </g>
     </g>
    </g>
    <g id="ytick_2">
     <g id="line2d_13">
      <path clip-path="url(#p2eabc0fb4d)" d="M 60.48 222.529091 
L 371.52 222.529091 
" style="fill:none;stroke:#b0b0b0;stroke-linecap:square;stroke-width:0.8;"/>
     </g>
     <g id="line2d_14">
      <g>
       <use style="stroke:#000000;stroke-width:0.8;" x="60.48" xlink:href="#m3bd529417e" y="222.529091"/>
      </g>
     </g>
     <g id="text_8">
      <!-- $\pi/8$ -->
      <g transform="translate(31.5 227.779091)scale(0.14 -0.14)">
       <use xlink:href="#Cmmi10-bc"/>
       <use transform="translate(56.982422 0)" xlink:href="#Cmmi10-3d"/>
       <use transform="translate(106.982422 0)" xlink:href="#Cmr10-38"/>
      </g>
     </g>
    </g>
    <g id="ytick_3">
     <g id="line2d_15">
      <path clip-path="url(#p2eabc0fb4d)" d="M 60.48 156.992727 
L 371.52 156.992727 
" style="fill:none;stroke:#b0b0b0;stroke-linecap:square;stroke-width:0.8;"/>
     </g>
     <g id="line2d_16">
      <g>
       <use style="stroke:#000000;stroke-width:0.8;" x="60.48" xlink:href="#m3bd529417e" y="156.992727"/>
      </g>
     </g>
     <g id="text_9">
      <!-- $\pi/4$ -->
      <g transform="translate(31.5 162.242727)scale(0.14 -0.14)">
       <use xlink:href="#Cmmi10-bc"/>
       <use transform="translate(56.982422 0)" xlink:href="#Cmmi10-3d"/>
       <use transform="translate(106.982422 0)" xlink:href="#Cmr10-34"/>
      </g>
     </g>
    </g>
    <g id="ytick_4">
     <g id="line2d_17">
      <path clip-path="url(#p2eabc0fb4d)" d="M 60.48 91.456364 
L 371.52 91.456364 
" style="fill:none;stroke:#b0b0b0;stroke-linecap:square;stroke-width:0.8;"/>
     </g>
     <g id="line2d_18">
      <g>
       <use style="stroke:#000000;stroke-width:0.8;" x="60.48" xlink:href="#m3bd529417e" y="91.456364"/>
      </g>
     </g>
     <g id="text_10">
      <!-- $3\pi/8$ -->
      <g transform="translate(24.5 96.706364)scale(0.14 -0.14)">
       <use xlink:href="#Cmr10-33"/>
       <use transform="translate(50 0)" xlink:href="#Cmmi10-bc"/>
       <use transform="translate(106.982422 0)" xlink:href="#Cmmi10-3d"/>
       <use transform="translate(156.982422 0)" xlink:href="#Cmr10-38"/>
      </g>
     </g>
    </g>
    <g id="ytick_5">
     <g id="line2d_19">
      <path clip-path="url(#p2eabc0fb4d)" d="M 60.48 25.92 
L 371.52 25.92 
" style="fill:none;stroke:#b0b0b0;stroke-linecap:square;stroke-width:0.8;"/>
     </g>
     <g id="line2d_20">
      <g>
       <use style="stroke:#000000;stroke-width:0.8;" x="60.48" xlink:href="#m3bd529417e" y="25.92"/>
      </g>
     </g>
     <g id="text_11">
      <!-- $\pi/2$ -->
      <g transform="translate(31.5 31.17)scale(0.14 -0.14)">
       <use xlink:href="#Cmmi10-bc"/>
       <use transform="translate(56.982422 0)" xlink:href="#Cmmi10-3d"/>
       <use transform="translate(106.982422 0)" xlink:href="#Cmr10-32"/>
      </g>
     </g>
    </g>
    <g id="text_12">
     <!-- $\beta$ -->
     <g transform="translate(17.3 161.552727)rotate(-90)scale(0.16 -0.16)">
      <defs>
       <path d="M 172 -1241 
Q 153 -1241 137 -1219 
Q 122 -1197 122 -1178 
L 1106 2778 
Q 1191 3097 1353 3397 
Q 1516 3697 1761 3955 
Q 2006 4213 2300 4363 
Q 2594 4513 2925 4513 
Q 3163 4513 3355 4408 
Q 3547 4303 3658 4114 
Q 3769 3925 3769 3688 
Q 3769 3459 3681 3251 
Q 3594 3044 3437 2864 
Q 3281 2684 3103 2572 
Q 3206 2506 3287 2404 
Q 3369 2303 3419 2192 
Q 3469 2081 3497 1945 
Q 3525 1809 3525 1691 
Q 3525 1363 3384 1044 
Q 3244 725 3001 465 
Q 2759 206 2446 54 
Q 2134 -97 1806 -97 
Q 1447 -97 1159 100 
Q 872 297 763 634 
L 300 -1203 
Q 300 -1241 250 -1241 
L 172 -1241 
z
M 1819 78 
Q 2106 78 2339 267 
Q 2572 456 2723 742 
Q 2875 1028 2954 1348 
Q 3034 1669 3034 1931 
Q 3034 2256 2847 2444 
Q 2628 2363 2419 2363 
Q 1913 2363 1913 2534 
Q 1913 2759 2491 2759 
Q 2697 2759 2869 2694 
Q 3006 2800 3118 3006 
Q 3231 3213 3289 3438 
Q 3347 3663 3347 3859 
Q 3347 4069 3236 4208 
Q 3125 4347 2913 4347 
Q 2522 4347 2186 4106 
Q 1850 3866 1619 3498 
Q 1388 3131 1288 2741 
L 934 1325 
Q 900 1178 891 997 
Q 891 597 1153 337 
Q 1416 78 1819 78 
z
M 2106 2553 
Q 2203 2528 2425 2528 
Q 2534 2528 2644 2566 
Q 2638 2572 2619 2572 
Q 2550 2591 2472 2591 
Q 2181 2591 2106 2553 
z
" id="Cmmi10-af" transform="scale(0.015625)"/>
      </defs>
      <use transform="translate(0 0.484375)" xlink:href="#Cmmi10-af"/>
     </g>
    </g>
   </g>
   <g id="line2d_21">
    <path clip-path="url(#p2eabc0fb4d)" d="M 60.48 288.065455 
L 371.215953 26.176252 
L 371.215953 26.176252 
" style="fill:none;stroke:#1f77b4;stroke-linecap:square;"/>
   </g>
   <g id="line2d_22">
    <path clip-path="url(#p2eabc0fb4d)" d="M 60.48 288.065455 
L 139.836246 235.668727 
L 181.490674 208.438612 
L 215.54393 186.436797 
L 245.340528 167.44621 
L 271.79261 150.845049 
L 296.116364 135.839529 
L 318.311789 122.404373 
L 338.986979 110.146885 
L 358.141935 99.045633 
L 371.215953 91.627237 
L 371.215953 91.627237 
" style="fill:none;stroke:#ff7f0e;stroke-linecap:square;"/>
   </g>
   <g id="line2d_23">
    <path clip-path="url(#p2eabc0fb4d)" d="M 60.48 288.065455 
L 118.857009 249.290764 
L 149.261701 228.821055 
L 173.889501 211.981102 
L 195.476833 196.958036 
L 214.935836 183.152176 
L 233.178651 169.938383 
L 250.509326 157.109492 
L 267.535953 144.224394 
L 285.170674 130.590905 
L 307.3661 113.122869 
L 328.649384 96.43682 
L 338.682933 88.855151 
L 345.980059 83.60111 
L 352.060997 79.480769 
L 357.229795 76.233275 
L 361.790499 73.62151 
L 365.743109 71.598952 
L 369.391672 69.97402 
L 371.215953 69.262936 
L 371.215953 69.262936 
" style="fill:none;stroke:#2ca02c;stroke-linecap:square;"/>
   </g>
   <g id="line2d_24">
    <path clip-path="url(#p2eabc0fb4d)" d="M 60.48 288.065455 
L 118.857009 249.290716 
L 148.957654 229.02636 
L 173.585455 212.185157 
L 194.868739 197.364921 
L 213.415601 184.186943 
L 230.138182 172.03971 
L 245.340528 160.726288 
L 259.022639 150.274768 
L 271.488563 140.482876 
L 283.042346 131.131623 
L 293.683988 122.238788 
L 303.717537 113.564885 
L 313.142991 105.122806 
L 322.264399 96.655347 
L 331.689853 87.601226 
L 354.493372 65.511165 
L 358.445982 62.114854 
L 361.790499 59.53562 
L 364.526921 57.700476 
L 366.959296 56.332423 
L 369.087625 55.378429 
L 371.215953 54.686435 
L 371.215953 54.686435 
" style="fill:none;stroke:#d62728;stroke-linecap:square;"/>
   </g>
   <g id="line2d_25">
    <path clip-path="url(#p2eabc0fb4d)" d="M 60.48 288.065455 
L 118.857009 249.290716 
L 148.957654 229.02636 
L 173.585455 212.185157 
L 194.868739 197.36492 
L 213.415601 184.186931 
L 230.138182 172.039637 
L 245.340528 160.725961 
L 259.022639 150.273581 
L 271.488563 140.479184 
L 283.042346 131.121314 
L 293.379941 122.471565 
L 303.109443 114.040229 
L 311.926804 106.102821 
L 319.832023 98.693086 
L 327.12915 91.551039 
L 333.818182 84.691153 
L 339.89912 78.139019 
L 345.676012 71.588075 
L 351.75695 64.335913 
L 362.094545 51.882446 
L 364.526921 49.336686 
L 366.351202 47.691135 
L 367.871437 46.556464 
L 369.391672 45.688788 
L 370.607859 45.218211 
L 371.215953 45.064727 
L 371.215953 45.064727 
" style="fill:none;stroke:#9467bd;stroke-linecap:square;"/>
   </g>
   <g id="line2d_26">
    <path clip-path="url(#p2eabc0fb4d)" d="M 60.48 288.065455 
L 118.857009 249.290716 
L 148.957654 229.02636 
L 173.585455 212.185157 
L 194.868739 197.36492 
L 213.415601 184.186931 
L 230.138182 172.039637 
L 245.340528 160.725961 
L 259.022639 150.273581 
L 271.488563 140.479183 
L 283.042346 131.121313 
L 293.379941 122.471559 
L 303.109443 114.040193 
L 311.926804 106.102637 
L 319.832023 98.692284 
L 327.12915 91.547874 
L 333.514135 84.999719 
L 339.291026 78.776998 
L 344.763871 72.551226 
L 349.628622 66.670059 
L 353.885279 61.176058 
L 357.837889 55.70525 
L 361.790499 49.847138 
L 366.351202 43.056294 
L 367.871437 41.126135 
L 369.087625 39.883956 
L 369.999765 39.196848 
L 370.911906 38.765096 
L 371.215953 38.683726 
L 371.215953 38.683726 
" style="fill:none;stroke:#8c564b;stroke-linecap:square;"/>
   </g>
   <g id="line2d_27">
    <path clip-path="url(#p2eabc0fb4d)" d="M 60.48 288.065455 
L 118.857009 249.290716 
L 148.957654 229.02636 
L 173.585455 212.185157 
L 194.868739 197.36492 
L 213.415601 184.186931 
L 230.138182 172.039637 
L 245.340528 160.725961 
L 259.022639 150.273581 
L 271.488563 140.479183 
L 283.042346 131.121313 
L 293.379941 122.471559 
L 303.109443 114.040193 
L 311.926804 106.102637 
L 319.832023 98.692284 
L 327.12915 91.547874 
L 333.514135 84.999717 
L 339.291026 78.776979 
L 344.763871 72.551042 
L 349.628622 66.668643 
L 353.885279 61.167403 
L 357.533842 56.099018 
L 360.878358 51.058129 
L 363.61478 46.542162 
L 366.351202 41.586086 
L 369.087625 36.640706 
L 369.999765 35.379112 
L 370.607859 34.786601 
L 371.215953 34.452297 
L 371.215953 34.452297 
" style="fill:none;stroke:#e377c2;stroke-linecap:square;"/>
   </g>
   <g id="line2d_28">
    <path clip-path="url(#p2eabc0fb4d)" d="M 60.48 288.065455 
L 118.857009 249.290716 
L 148.957654 229.02636 
L 173.585455 212.185157 
L 194.868739 197.36492 
L 213.415601 184.186931 
L 230.138182 172.039637 
L 245.340528 160.725961 
L 259.022639 150.273581 
L 271.488563 140.479183 
L 283.042346 131.121313 
L 293.379941 122.471559 
L 303.109443 114.040193 
L 311.926804 106.102637 
L 319.832023 98.692284 
L 327.12915 91.547874 
L 333.514135 84.999717 
L 339.291026 78.776979 
L 344.763871 72.551042 
L 349.628622 66.668643 
L 353.885279 61.167401 
L 357.533842 56.098963 
L 360.878358 51.056981 
L 363.61478 46.528691 
L 366.047155 42.042895 
L 367.871437 38.241086 
L 370.607859 32.323074 
L 371.215953 31.666371 
L 371.215953 31.666371 
" style="fill:none;stroke:#7f7f7f;stroke-linecap:square;"/>
   </g>
   <g id="line2d_29">
    <path clip-path="url(#p2eabc0fb4d)" d="M 60.48 288.065455 
L 118.857009 249.290716 
L 148.957654 229.02636 
L 173.585455 212.185157 
L 194.868739 197.36492 
L 213.415601 184.186931 
L 230.138182 172.039637 
L 245.340528 160.725961 
L 259.022639 150.273581 
L 271.488563 140.479183 
L 283.042346 131.121313 
L 293.379941 122.471559 
L 303.109443 114.040193 
L 311.926804 106.102637 
L 319.832023 98.692284 
L 327.12915 91.547874 
L 333.514135 84.999717 
L 339.291026 78.776979 
L 344.763871 72.551042 
L 349.628622 66.668643 
L 353.885279 61.167401 
L 357.533842 56.098963 
L 360.878358 51.056981 
L 363.61478 46.528682 
L 366.047155 42.042102 
L 367.871437 38.220447 
L 369.391672 34.513353 
L 370.911906 30.400467 
L 371.215953 29.880988 
L 371.215953 29.880988 
" style="fill:none;stroke:#bcbd22;stroke-linecap:square;"/>
   </g>
   <g id="line2d_30">
    <path clip-path="url(#p2eabc0fb4d)" d="M 60.48 288.065455 
L 118.857009 249.290764 
L 148.957654 229.02636 
L 173.585455 212.185157 
L 194.868739 197.364921 
L 213.415601 184.186943 
L 230.138182 172.03971 
L 245.340528 160.726288 
L 259.022639 150.273581 
L 271.488563 140.479184 
L 283.042346 131.121314 
L 293.379941 122.471565 
L 303.109443 114.040229 
L 311.926804 106.102821 
L 319.832023 98.693086 
L 327.12915 91.547874 
L 333.514135 84.999719 
L 339.291026 78.776998 
L 344.763871 72.551226 
L 349.628622 66.670059 
L 353.885279 61.176058 
L 358.750029 54.316792 
L 361.790499 49.598126 
L 364.526921 44.938786 
L 367.56739 38.907279 
L 368.783578 36.169638 
L 370.607859 31.133431 
L 370.911906 29.76453 
L 371.215953 26.176252 
L 371.215953 26.176252 
" style="fill:none;stroke:#000000;stroke-dasharray:1.5,2.475;stroke-dashoffset:0;stroke-width:1.5;"/>
   </g>
   <g id="patch_3">
    <path d="M 60.48 288.065455 
L 60.48 25.92 
" style="fill:none;stroke:#000000;stroke-linecap:square;stroke-linejoin:miter;stroke-width:0.8;"/>
   </g>
   <g id="patch_4">
    <path d="M 371.52 288.065455 
L 371.52 25.92 
" style="fill:none;stroke:#000000;stroke-linecap:square;stroke-linejoin:miter;stroke-width:0.8;"/>
   </g>
   <g id="patch_5">
    <path d="M 60.48 288.065455 
L 371.52 288.065455 
" style="fill:none;stroke:#000000;stroke-linecap:square;stroke-linejoin:miter;stroke-width:0.8;"/>
   </g>
   <g id="patch_6">
    <path d="M 60.48 25.92 
L 371.52 25.92 
" style="fill:none;stroke:#000000;stroke-linecap:square;stroke-linejoin:miter;stroke-width:0.8;"/>
   </g>
   <g id="legend_1">
    <g id="patch_7">
     <path d="M 70.28 212.771875 
L 136.863125 212.771875 
Q 139.663125 212.771875 139.663125 209.971875 
L 139.663125 35.72 
Q 139.663125 32.92 136.863125 32.92 
L 70.28 32.92 
Q 67.48 32.92 67.48 35.72 
L 67.48 209.971875 
Q 67.48 212.771875 70.28 212.771875 
z
" style="fill:#ffffff;opacity:0.8;stroke:#cccccc;stroke-linejoin:miter;"/>
    </g>
    <g id="line2d_31">
     <path d="M 73.08 43.42 
L 101.08 43.42 
" style="fill:none;stroke:#1f77b4;stroke-linecap:square;"/>
    </g>
    <g id="line2d_32"/>
    <g id="text_13">
     <!-- i=0 -->
     <g transform="translate(112.28 48.32)scale(0.14 -0.14)">
      <defs>
       <path d="M 4621 2221 
C 4621 2291 4563 2349 4493 2349 
L 486 2349 
C 416 2349 358 2291 358 2221 
C 358 2150 416 2093 486 2093 
L 4493 2093 
C 4563 2093 4621 2150 4621 2221 
z
M 4621 979 
C 4621 1050 4563 1107 4493 1107 
L 486 1107 
C 416 1107 358 1050 358 979 
C 358 909 416 851 486 851 
L 4493 851 
C 4563 851 4621 909 4621 979 
z
" id="LatinModernMath-Regular-3d" transform="scale(0.015625)"/>
       <path d="M 2944 2048 
C 2944 2560 2912 3072 2688 3546 
C 2394 4160 1869 4262 1600 4262 
C 1216 4262 749 4096 486 3501 
C 282 3059 250 2560 250 2048 
C 250 1568 275 992 538 506 
C 813 -13 1280 -141 1594 -141 
C 1939 -141 2426 -6 2707 602 
C 2912 1043 2944 1542 2944 2048 
z
M 2413 2125 
C 2413 1645 2413 1210 2342 800 
C 2246 192 1882 0 1594 0 
C 1344 0 966 160 851 774 
C 781 1158 781 1747 781 2125 
C 781 2534 781 2957 832 3302 
C 954 4064 1434 4122 1594 4122 
C 1805 4122 2227 4006 2349 3373 
C 2413 3014 2413 2528 2413 2125 
z
" id="LatinModernMath-Regular-30" transform="scale(0.015625)"/>
      </defs>
      <use xlink:href="#LatinModernMath-Regular-69"/>
      <use x="27.799988" xlink:href="#LatinModernMath-Regular-3d"/>
      <use x="105.599976" xlink:href="#LatinModernMath-Regular-30"/>
     </g>
    </g>
    <g id="line2d_33">
     <path d="M 73.08 62.936875 
L 101.08 62.936875 
" style="fill:none;stroke:#ff7f0e;stroke-linecap:square;"/>
    </g>
    <g id="line2d_34"/>
    <g id="text_14">
     <!-- i=1 -->
     <g transform="translate(112.28 67.836875)scale(0.14 -0.14)">
      <defs>
       <path d="M 2682 0 
L 2682 198 
L 2477 198 
C 1901 198 1882 269 1882 506 
L 1882 4096 
C 1882 4250 1882 4262 1734 4262 
C 1338 3853 774 3853 570 3853 
L 570 3654 
C 698 3654 1075 3654 1408 3821 
L 1408 506 
C 1408 275 1389 198 813 198 
L 608 198 
L 608 0 
C 832 19 1389 19 1645 19 
C 1901 19 2458 19 2682 0 
z
" id="LatinModernMath-Regular-31" transform="scale(0.015625)"/>
      </defs>
      <use xlink:href="#LatinModernMath-Regular-69"/>
      <use x="27.799988" xlink:href="#LatinModernMath-Regular-3d"/>
      <use x="105.599976" xlink:href="#LatinModernMath-Regular-31"/>
     </g>
    </g>
    <g id="line2d_35">
     <path d="M 73.08 82.45375 
L 101.08 82.45375 
" style="fill:none;stroke:#2ca02c;stroke-linecap:square;"/>
    </g>
    <g id="line2d_36"/>
    <g id="text_15">
     <!-- i=2 -->
     <g transform="translate(112.28 87.35375)scale(0.14 -0.14)">
      <defs>
       <path d="M 2874 1114 
L 2714 1114 
C 2682 922 2637 640 2573 544 
C 2528 493 2106 493 1965 493 
L 813 493 
L 1491 1152 
C 2490 2035 2874 2381 2874 3021 
C 2874 3750 2298 4262 1517 4262 
C 794 4262 320 3674 320 3104 
C 320 2746 640 2746 659 2746 
C 768 2746 992 2822 992 3085 
C 992 3251 877 3418 653 3418 
C 602 3418 589 3418 570 3411 
C 717 3827 1062 4064 1434 4064 
C 2016 4064 2291 3546 2291 3021 
C 2291 2509 1971 2003 1619 1606 
L 390 237 
C 320 166 320 154 320 0 
L 2694 0 
L 2874 1114 
z
" id="LatinModernMath-Regular-32" transform="scale(0.015625)"/>
      </defs>
      <use xlink:href="#LatinModernMath-Regular-69"/>
      <use x="27.799988" xlink:href="#LatinModernMath-Regular-3d"/>
      <use x="105.599976" xlink:href="#LatinModernMath-Regular-32"/>
     </g>
    </g>
    <g id="line2d_37">
     <path d="M 73.08 101.970625 
L 101.08 101.970625 
" style="fill:none;stroke:#d62728;stroke-linecap:square;"/>
    </g>
    <g id="line2d_38"/>
    <g id="text_16">
     <!-- i=3 -->
     <g transform="translate(112.28 106.870625)scale(0.14 -0.14)">
      <defs>
       <path d="M 2925 1094 
C 2925 1619 2522 2118 1856 2253 
C 2381 2426 2752 2874 2752 3379 
C 2752 3904 2189 4262 1574 4262 
C 928 4262 442 3878 442 3392 
C 442 3181 582 3059 768 3059 
C 966 3059 1094 3200 1094 3386 
C 1094 3706 794 3706 698 3706 
C 896 4019 1318 4102 1549 4102 
C 1811 4102 2163 3962 2163 3386 
C 2163 3309 2150 2938 1984 2656 
C 1792 2349 1574 2330 1414 2323 
C 1363 2317 1210 2304 1165 2304 
C 1114 2298 1069 2291 1069 2227 
C 1069 2157 1114 2157 1222 2157 
L 1504 2157 
C 2029 2157 2266 1722 2266 1094 
C 2266 224 1824 38 1542 38 
C 1267 38 787 147 563 525 
C 787 493 986 634 986 877 
C 986 1107 813 1235 627 1235 
C 474 1235 269 1146 269 864 
C 269 282 864 -141 1562 -141 
C 2342 -141 2925 442 2925 1094 
z
" id="LatinModernMath-Regular-33" transform="scale(0.015625)"/>
      </defs>
      <use xlink:href="#LatinModernMath-Regular-69"/>
      <use x="27.799988" xlink:href="#LatinModernMath-Regular-3d"/>
      <use x="105.599976" xlink:href="#LatinModernMath-Regular-33"/>
     </g>
    </g>
    <g id="line2d_39">
     <path d="M 73.08 121.4875 
L 101.08 121.4875 
" style="fill:none;stroke:#9467bd;stroke-linecap:square;"/>
    </g>
    <g id="line2d_40"/>
    <g id="text_17">
     <!-- i=4 -->
     <g transform="translate(112.28 126.3875)scale(0.14 -0.14)">
      <defs>
       <path d="M 3014 1056 
L 3014 1254 
L 2374 1254 
L 2374 4166 
C 2374 4294 2374 4333 2272 4333 
C 2214 4333 2195 4333 2144 4256 
L 179 1254 
L 179 1056 
L 1882 1056 
L 1882 499 
C 1882 269 1869 198 1395 198 
L 1261 198 
L 1261 0 
C 1523 19 1856 19 2125 19 
C 2394 19 2733 19 2995 0 
L 2995 198 
L 2861 198 
C 2387 198 2374 269 2374 499 
L 2374 1056 
L 3014 1056 
z
M 1920 1254 
L 358 1254 
L 1920 3642 
L 1920 1254 
z
" id="LatinModernMath-Regular-34" transform="scale(0.015625)"/>
      </defs>
      <use xlink:href="#LatinModernMath-Regular-69"/>
      <use x="27.799988" xlink:href="#LatinModernMath-Regular-3d"/>
      <use x="105.599976" xlink:href="#LatinModernMath-Regular-34"/>
     </g>
    </g>
    <g id="line2d_41">
     <path d="M 73.08 141.004375 
L 101.08 141.004375 
" style="fill:none;stroke:#8c564b;stroke-linecap:square;"/>
    </g>
    <g id="line2d_42"/>
    <g id="text_18">
     <!-- i=5 -->
     <g transform="translate(112.28 145.904375)scale(0.14 -0.14)">
      <defs>
       <path d="M 2874 1286 
C 2874 2048 2349 2688 1658 2688 
C 1350 2688 1075 2586 845 2362 
L 845 3610 
C 973 3571 1184 3526 1389 3526 
C 2176 3526 2624 4109 2624 4192 
C 2624 4230 2605 4262 2560 4262 
C 2560 4262 2541 4262 2509 4243 
C 2381 4186 2067 4058 1638 4058 
C 1382 4058 1088 4102 787 4237 
C 736 4256 710 4256 710 4256 
C 646 4256 646 4205 646 4102 
L 646 2208 
C 646 2093 646 2042 736 2042 
C 781 2042 794 2061 819 2099 
C 890 2202 1126 2547 1645 2547 
C 1978 2547 2138 2253 2189 2138 
C 2291 1901 2304 1651 2304 1331 
C 2304 1107 2304 723 2150 454 
C 1997 205 1760 38 1466 38 
C 998 38 634 378 525 755 
C 544 749 563 742 634 742 
C 845 742 954 902 954 1056 
C 954 1210 845 1370 634 1370 
C 544 1370 320 1325 320 1030 
C 320 480 762 -141 1478 -141 
C 2221 -141 2874 474 2874 1286 
z
" id="LatinModernMath-Regular-35" transform="scale(0.015625)"/>
      </defs>
      <use xlink:href="#LatinModernMath-Regular-69"/>
      <use x="27.799988" xlink:href="#LatinModernMath-Regular-3d"/>
      <use x="105.599976" xlink:href="#LatinModernMath-Regular-35"/>
     </g>
    </g>
    <g id="line2d_43">
     <path d="M 73.08 160.52125 
L 101.08 160.52125 
" style="fill:none;stroke:#e377c2;stroke-linecap:square;"/>
    </g>
    <g id="line2d_44"/>
    <g id="text_19">
     <!-- i=6 -->
     <g transform="translate(112.28 165.42125)scale(0.14 -0.14)">
      <defs>
       <path d="M 2925 1306 
C 2925 2118 2355 2733 1645 2733 
C 1210 2733 973 2406 845 2099 
L 845 2253 
C 845 3872 1638 4102 1965 4102 
C 2118 4102 2387 4064 2528 3846 
C 2432 3846 2176 3846 2176 3558 
C 2176 3360 2330 3264 2470 3264 
C 2573 3264 2765 3322 2765 3571 
C 2765 3955 2483 4262 1952 4262 
C 1133 4262 269 3437 269 2022 
C 269 314 1011 -141 1606 -141 
C 2317 -141 2925 461 2925 1306 
z
M 2349 1312 
C 2349 1005 2349 685 2240 454 
C 2048 70 1754 38 1606 38 
C 1203 38 1011 422 973 518 
C 858 819 858 1331 858 1446 
C 858 1946 1062 2586 1638 2586 
C 1741 2586 2035 2586 2234 2189 
C 2349 1952 2349 1626 2349 1312 
z
" id="LatinModernMath-Regular-36" transform="scale(0.015625)"/>
      </defs>
      <use xlink:href="#LatinModernMath-Regular-69"/>
      <use x="27.799988" xlink:href="#LatinModernMath-Regular-3d"/>
      <use x="105.599976" xlink:href="#LatinModernMath-Regular-36"/>
     </g>
    </g>
    <g id="line2d_45">
     <path d="M 73.08 180.038125 
L 101.08 180.038125 
" style="fill:none;stroke:#7f7f7f;stroke-linecap:square;"/>
    </g>
    <g id="line2d_46"/>
    <g id="text_20">
     <!-- i=7 -->
     <g transform="translate(112.28 184.938125)scale(0.14 -0.14)">
      <defs>
       <path d="M 3104 4122 
L 1549 4122 
C 768 4122 755 4205 730 4326 
L 570 4326 
L 358 3008 
L 518 3008 
C 538 3110 595 3514 678 3590 
C 723 3629 1222 3629 1306 3629 
L 2630 3629 
L 1914 2618 
C 1338 1754 1126 864 1126 211 
C 1126 147 1126 -141 1421 -141 
C 1715 -141 1715 147 1715 211 
L 1715 538 
C 1715 890 1734 1242 1786 1587 
C 1811 1734 1901 2285 2182 2682 
L 3046 3898 
C 3104 3974 3104 3987 3104 4122 
z
" id="LatinModernMath-Regular-37" transform="scale(0.015625)"/>
      </defs>
      <use xlink:href="#LatinModernMath-Regular-69"/>
      <use x="27.799988" xlink:href="#LatinModernMath-Regular-3d"/>
      <use x="105.599976" xlink:href="#LatinModernMath-Regular-37"/>
     </g>
    </g>
    <g id="line2d_47">
     <path d="M 73.08 199.555 
L 101.08 199.555 
" style="fill:none;stroke:#bcbd22;stroke-linecap:square;"/>
    </g>
    <g id="line2d_48"/>
    <g id="text_21">
     <!-- i=8 -->
     <g transform="translate(112.28 204.455)scale(0.14 -0.14)">
      <defs>
       <path d="M 2925 1075 
C 2925 1306 2854 1594 2611 1862 
C 2490 1997 2387 2061 1978 2317 
C 2438 2554 2752 2886 2752 3309 
C 2752 3898 2182 4262 1600 4262 
C 960 4262 442 3789 442 3194 
C 442 3078 454 2790 723 2490 
C 794 2413 1030 2253 1190 2144 
C 819 1958 269 1600 269 966 
C 269 288 922 -141 1594 -141 
C 2317 -141 2925 390 2925 1075 
z
M 2470 3309 
C 2470 2944 2221 2637 1837 2413 
L 1043 2925 
C 749 3117 723 3334 723 3443 
C 723 3834 1139 4102 1594 4102 
C 2061 4102 2470 3770 2470 3309 
z
M 2605 845 
C 2605 371 2125 38 1600 38 
C 1050 38 589 435 589 966 
C 589 1338 794 1747 1338 2048 
L 2125 1549 
C 2304 1427 2605 1235 2605 845 
z
" id="LatinModernMath-Regular-38" transform="scale(0.015625)"/>
      </defs>
      <use xlink:href="#LatinModernMath-Regular-69"/>
      <use x="27.799988" xlink:href="#LatinModernMath-Regular-3d"/>
      <use x="105.599976" xlink:href="#LatinModernMath-Regular-38"/>
     </g>
    </g>
   </g>
  </g>
  <g id="axes_2">
   <g id="patch_8">
    <path d="M 60.48 602.64 
L 371.52 602.64 
L 371.52 340.494545 
L 60.48 340.494545 
z
" style="fill:#ffffff;"/>
   </g>
   <g id="matplotlib.axis_3">
    <g id="xtick_6">
     <g id="line2d_49">
      <path clip-path="url(#pb0d0710a24)" d="M 60.48 602.64 
L 60.48 340.494545 
" style="fill:none;stroke:#b0b0b0;stroke-linecap:square;stroke-width:0.8;"/>
     </g>
     <g id="line2d_50">
      <g>
       <use style="stroke:#000000;stroke-width:0.8;" x="60.48" xlink:href="#m2f213fea79" y="602.64"/>
      </g>
     </g>
     <g id="text_22">
      <!-- $0$ -->
      <g transform="translate(56.98 619.356875)scale(0.14 -0.14)">
       <use transform="translate(0 0.390625)" xlink:href="#Cmr10-30"/>
      </g>
     </g>
    </g>
    <g id="xtick_7">
     <g id="line2d_51">
      <path clip-path="url(#pb0d0710a24)" d="M 138.24 602.64 
L 138.24 340.494545 
" style="fill:none;stroke:#b0b0b0;stroke-linecap:square;stroke-width:0.8;"/>
     </g>
     <g id="line2d_52">
      <g>
       <use style="stroke:#000000;stroke-width:0.8;" x="138.24" xlink:href="#m2f213fea79" y="602.64"/>
      </g>
     </g>
     <g id="text_23">
      <!-- $\pi/8$ -->
      <g transform="translate(127.25 620.14)scale(0.14 -0.14)">
       <use xlink:href="#Cmmi10-bc"/>
       <use transform="translate(56.982422 0)" xlink:href="#Cmmi10-3d"/>
       <use transform="translate(106.982422 0)" xlink:href="#Cmr10-38"/>
      </g>
     </g>
    </g>
    <g id="xtick_8">
     <g id="line2d_53">
      <path clip-path="url(#pb0d0710a24)" d="M 216 602.64 
L 216 340.494545 
" style="fill:none;stroke:#b0b0b0;stroke-linecap:square;stroke-width:0.8;"/>
     </g>
     <g id="line2d_54">
      <g>
       <use style="stroke:#000000;stroke-width:0.8;" x="216" xlink:href="#m2f213fea79" y="602.64"/>
      </g>
     </g>
     <g id="text_24">
      <!-- $\pi/4$ -->
      <g transform="translate(205.01 620.14)scale(0.14 -0.14)">
       <use xlink:href="#Cmmi10-bc"/>
       <use transform="translate(56.982422 0)" xlink:href="#Cmmi10-3d"/>
       <use transform="translate(106.982422 0)" xlink:href="#Cmr10-34"/>
      </g>
     </g>
    </g>
    <g id="xtick_9">
     <g id="line2d_55">
      <path clip-path="url(#pb0d0710a24)" d="M 293.76 602.64 
L 293.76 340.494545 
" style="fill:none;stroke:#b0b0b0;stroke-linecap:square;stroke-width:0.8;"/>
     </g>
     <g id="line2d_56">
      <g>
       <use style="stroke:#000000;stroke-width:0.8;" x="293.76" xlink:href="#m2f213fea79" y="602.64"/>
      </g>
     </g>
     <g id="text_25">
      <!-- $3\pi/8$ -->
      <g transform="translate(279.27 620.14)scale(0.14 -0.14)">
       <use xlink:href="#Cmr10-33"/>
       <use transform="translate(50 0)" xlink:href="#Cmmi10-bc"/>
       <use transform="translate(106.982422 0)" xlink:href="#Cmmi10-3d"/>
       <use transform="translate(156.982422 0)" xlink:href="#Cmr10-38"/>
      </g>
     </g>
    </g>
    <g id="xtick_10">
     <g id="line2d_57">
      <path clip-path="url(#pb0d0710a24)" d="M 371.52 602.64 
L 371.52 340.494545 
" style="fill:none;stroke:#b0b0b0;stroke-linecap:square;stroke-width:0.8;"/>
     </g>
     <g id="line2d_58">
      <g>
       <use style="stroke:#000000;stroke-width:0.8;" x="371.52" xlink:href="#m2f213fea79" y="602.64"/>
      </g>
     </g>
     <g id="text_26">
      <!-- $\pi/2$ -->
      <g transform="translate(360.53 620.14)scale(0.14 -0.14)">
       <use xlink:href="#Cmmi10-bc"/>
       <use transform="translate(56.982422 0)" xlink:href="#Cmmi10-3d"/>
       <use transform="translate(106.982422 0)" xlink:href="#Cmr10-32"/>
      </g>
     </g>
    </g>
    <g id="text_27">
     <!-- latitude $\theta$ -->
     <g transform="translate(182.4 638.745)scale(0.16 -0.16)">
      <use transform="translate(0 0.484375)" xlink:href="#LatinModernMath-Regular-6c"/>
      <use transform="translate(27.799988 0.484375)" xlink:href="#LatinModernMath-Regular-61"/>
      <use transform="translate(77.799973 0.484375)" xlink:href="#LatinModernMath-Regular-74"/>
      <use transform="translate(116.699966 0.484375)" xlink:href="#LatinModernMath-Regular-69"/>
      <use transform="translate(144.499954 0.484375)" xlink:href="#LatinModernMath-Regular-74"/>
      <use transform="translate(183.399948 0.484375)" xlink:href="#LatinModernMath-Regular-75"/>
      <use transform="translate(238.999939 0.484375)" xlink:href="#LatinModernMath-Regular-64"/>
      <use transform="translate(294.59993 0.484375)" xlink:href="#LatinModernMath-Regular-65"/>
      <use transform="translate(338.999924 0.484375)" xlink:href="#LatinModernMath-Regular-20"/>
      <use transform="translate(372.199921 0.484375)" xlink:href="#Cmmi10-b5"/>
     </g>
    </g>
   </g>
   <g id="matplotlib.axis_4">
    <g id="ytick_6">
     <g id="line2d_59">
      <path clip-path="url(#pb0d0710a24)" d="M 60.48 602.64 
L 371.52 602.64 
" style="fill:none;stroke:#b0b0b0;stroke-linecap:square;stroke-width:0.8;"/>
     </g>
     <g id="line2d_60">
      <g>
       <use style="stroke:#000000;stroke-width:0.8;" x="60.48" xlink:href="#m3bd529417e" y="602.64"/>
      </g>
     </g>
     <g id="text_28">
      <!-- $\mathdefault{10^{-7}}$ -->
      <g transform="translate(30.8 607.498437)scale(0.14 -0.14)">
       <defs>
        <path d="M 1766 1197 
L 1766 1568 
L 70 1568 
L 70 1197 
L 1766 1197 
z
" id="LatinModernMath-Regular-2d" transform="scale(0.015625)"/>
       </defs>
       <use transform="translate(0 0.51875)" xlink:href="#LatinModernMath-Regular-31"/>
       <use transform="translate(49.999985 0.51875)" xlink:href="#LatinModernMath-Regular-30"/>
       <use transform="translate(100.75411 30.684375)scale(0.7)" xlink:href="#LatinModernMath-Regular-2d"/>
       <use transform="translate(124.064102 30.684375)scale(0.7)" xlink:href="#LatinModernMath-Regular-37"/>
      </g>
     </g>
    </g>
    <g id="ytick_7">
     <g id="line2d_61">
      <path clip-path="url(#pb0d0710a24)" d="M 60.48 565.190649 
L 371.52 565.190649 
" style="fill:none;stroke:#b0b0b0;stroke-linecap:square;stroke-width:0.8;"/>
     </g>
     <g id="line2d_62">
      <g>
       <use style="stroke:#000000;stroke-width:0.8;" x="60.48" xlink:href="#m3bd529417e" y="565.190649"/>
      </g>
     </g>
     <g id="text_29">
      <!-- $\mathdefault{10^{-6}}$ -->
      <g transform="translate(30.8 570.049087)scale(0.14 -0.14)">
       <use transform="translate(0 0.21875)" xlink:href="#LatinModernMath-Regular-31"/>
       <use transform="translate(49.999985 0.21875)" xlink:href="#LatinModernMath-Regular-30"/>
       <use transform="translate(100.75411 30.384375)scale(0.7)" xlink:href="#LatinModernMath-Regular-2d"/>
       <use transform="translate(124.064102 30.384375)scale(0.7)" xlink:href="#LatinModernMath-Regular-36"/>
      </g>
     </g>
    </g>
    <g id="ytick_8">
     <g id="line2d_63">
      <path clip-path="url(#pb0d0710a24)" d="M 60.48 527.741299 
L 371.52 527.741299 
" style="fill:none;stroke:#b0b0b0;stroke-linecap:square;stroke-width:0.8;"/>
     </g>
     <g id="line2d_64">
      <g>
       <use style="stroke:#000000;stroke-width:0.8;" x="60.48" xlink:href="#m3bd529417e" y="527.741299"/>
      </g>
     </g>
     <g id="text_30">
      <!-- $\mathdefault{10^{-5}}$ -->
      <g transform="translate(30.8 532.599736)scale(0.14 -0.14)">
       <use transform="translate(0 0.21875)" xlink:href="#LatinModernMath-Regular-31"/>
       <use transform="translate(49.999985 0.21875)" xlink:href="#LatinModernMath-Regular-30"/>
       <use transform="translate(100.75411 30.384375)scale(0.7)" xlink:href="#LatinModernMath-Regular-2d"/>
       <use transform="translate(124.064102 30.384375)scale(0.7)" xlink:href="#LatinModernMath-Regular-35"/>
      </g>
     </g>
    </g>
    <g id="ytick_9">
     <g id="line2d_65">
      <path clip-path="url(#pb0d0710a24)" d="M 60.48 490.291948 
L 371.52 490.291948 
" style="fill:none;stroke:#b0b0b0;stroke-linecap:square;stroke-width:0.8;"/>
     </g>
     <g id="line2d_66">
      <g>
       <use style="stroke:#000000;stroke-width:0.8;" x="60.48" xlink:href="#m3bd529417e" y="490.291948"/>
      </g>
     </g>
     <g id="text_31">
      <!-- $\mathdefault{10^{-4}}$ -->
      <g transform="translate(30.8 495.150386)scale(0.14 -0.14)">
       <use transform="translate(0 0.442188)" xlink:href="#LatinModernMath-Regular-31"/>
       <use transform="translate(49.999985 0.442188)" xlink:href="#LatinModernMath-Regular-30"/>
       <use transform="translate(100.75411 30.607813)scale(0.7)" xlink:href="#LatinModernMath-Regular-2d"/>
       <use transform="translate(124.064102 30.607813)scale(0.7)" xlink:href="#LatinModernMath-Regular-34"/>
      </g>
     </g>
    </g>
    <g id="ytick_10">
     <g id="line2d_67">
      <path clip-path="url(#pb0d0710a24)" d="M 60.48 452.842597 
L 371.52 452.842597 
" style="fill:none;stroke:#b0b0b0;stroke-linecap:square;stroke-width:0.8;"/>
     </g>
     <g id="line2d_68">
      <g>
       <use style="stroke:#000000;stroke-width:0.8;" x="60.48" xlink:href="#m3bd529417e" y="452.842597"/>
      </g>
     </g>
     <g id="text_32">
      <!-- $\mathdefault{10^{-3}}$ -->
      <g transform="translate(30.8 457.701035)scale(0.14 -0.14)">
       <use transform="translate(0 0.21875)" xlink:href="#LatinModernMath-Regular-31"/>
       <use transform="translate(49.999985 0.21875)" xlink:href="#LatinModernMath-Regular-30"/>
       <use transform="translate(100.75411 30.384375)scale(0.7)" xlink:href="#LatinModernMath-Regular-2d"/>
       <use transform="translate(124.064102 30.384375)scale(0.7)" xlink:href="#LatinModernMath-Regular-33"/>
      </g>
     </g>
    </g>
    <g id="ytick_11">
     <g id="line2d_69">
      <path clip-path="url(#pb0d0710a24)" d="M 60.48 415.393247 
L 371.52 415.393247 
" style="fill:none;stroke:#b0b0b0;stroke-linecap:square;stroke-width:0.8;"/>
     </g>
     <g id="line2d_70">
      <g>
       <use style="stroke:#000000;stroke-width:0.8;" x="60.48" xlink:href="#m3bd529417e" y="415.393247"/>
      </g>
     </g>
     <g id="text_33">
      <!-- $\mathdefault{10^{-2}}$ -->
      <g transform="translate(30.8 420.251684)scale(0.14 -0.14)">
       <use transform="translate(0 0.21875)" xlink:href="#LatinModernMath-Regular-31"/>
       <use transform="translate(49.999985 0.21875)" xlink:href="#LatinModernMath-Regular-30"/>
       <use transform="translate(100.75411 30.384375)scale(0.7)" xlink:href="#LatinModernMath-Regular-2d"/>
       <use transform="translate(124.064102 30.384375)scale(0.7)" xlink:href="#LatinModernMath-Regular-32"/>
      </g>
     </g>
    </g>
    <g id="ytick_12">
     <g id="line2d_71">
      <path clip-path="url(#pb0d0710a24)" d="M 60.48 377.943896 
L 371.52 377.943896 
" style="fill:none;stroke:#b0b0b0;stroke-linecap:square;stroke-width:0.8;"/>
     </g>
     <g id="line2d_72">
      <g>
       <use style="stroke:#000000;stroke-width:0.8;" x="60.48" xlink:href="#m3bd529417e" y="377.943896"/>
      </g>
     </g>
     <g id="text_34">
      <!-- $\mathdefault{10^{-1}}$ -->
      <g transform="translate(30.8 382.802334)scale(0.14 -0.14)">
       <use transform="translate(0 0.21875)" xlink:href="#LatinModernMath-Regular-31"/>
       <use transform="translate(49.999985 0.21875)" xlink:href="#LatinModernMath-Regular-30"/>
       <use transform="translate(100.75411 30.384375)scale(0.7)" xlink:href="#LatinModernMath-Regular-2d"/>
       <use transform="translate(124.064102 30.384375)scale(0.7)" xlink:href="#LatinModernMath-Regular-31"/>
      </g>
     </g>
    </g>
    <g id="ytick_13">
     <g id="line2d_73">
      <path clip-path="url(#pb0d0710a24)" d="M 60.48 340.494545 
L 371.52 340.494545 
" style="fill:none;stroke:#b0b0b0;stroke-linecap:square;stroke-width:0.8;"/>
     </g>
     <g id="line2d_74">
      <g>
       <use style="stroke:#000000;stroke-width:0.8;" x="60.48" xlink:href="#m3bd529417e" y="340.494545"/>
      </g>
     </g>
     <g id="text_35">
      <!-- $\mathdefault{10^{0}}$ -->
      <g transform="translate(34.16 345.352983)scale(0.14 -0.14)">
       <use transform="translate(0 0.21875)" xlink:href="#LatinModernMath-Regular-31"/>
       <use transform="translate(49.999985 0.21875)" xlink:href="#LatinModernMath-Regular-30"/>
       <use transform="translate(100.75411 30.384375)scale(0.7)" xlink:href="#LatinModernMath-Regular-30"/>
      </g>
     </g>
    </g>
    <g id="ytick_14">
     <g id="line2d_75">
      <defs>
       <path d="M 0 0 
L -2 0 
" id="m4279847345" style="stroke:#000000;stroke-width:0.6;"/>
      </defs>
      <g>
       <use style="stroke:#000000;stroke-width:0.6;" x="60.48" xlink:href="#m4279847345" y="591.366622"/>
      </g>
     </g>
    </g>
    <g id="ytick_15">
     <g id="line2d_76">
      <g>
       <use style="stroke:#000000;stroke-width:0.6;" x="60.48" xlink:href="#m4279847345" y="584.772119"/>
      </g>
     </g>
    </g>
    <g id="ytick_16">
     <g id="line2d_77">
      <g>
       <use style="stroke:#000000;stroke-width:0.6;" x="60.48" xlink:href="#m4279847345" y="580.093244"/>
      </g>
     </g>
    </g>
    <g id="ytick_17">
     <g id="line2d_78">
      <g>
       <use style="stroke:#000000;stroke-width:0.6;" x="60.48" xlink:href="#m4279847345" y="576.464027"/>
      </g>
     </g>
    </g>
    <g id="ytick_18">
     <g id="line2d_79">
      <g>
       <use style="stroke:#000000;stroke-width:0.6;" x="60.48" xlink:href="#m4279847345" y="573.498741"/>
      </g>
     </g>
    </g>
    <g id="ytick_19">
     <g id="line2d_80">
      <g>
       <use style="stroke:#000000;stroke-width:0.6;" x="60.48" xlink:href="#m4279847345" y="570.991627"/>
      </g>
     </g>
    </g>
    <g id="ytick_20">
     <g id="line2d_81">
      <g>
       <use style="stroke:#000000;stroke-width:0.6;" x="60.48" xlink:href="#m4279847345" y="568.819866"/>
      </g>
     </g>
    </g>
    <g id="ytick_21">
     <g id="line2d_82">
      <g>
       <use style="stroke:#000000;stroke-width:0.6;" x="60.48" xlink:href="#m4279847345" y="566.904238"/>
      </g>
     </g>
    </g>
    <g id="ytick_22">
     <g id="line2d_83">
      <g>
       <use style="stroke:#000000;stroke-width:0.6;" x="60.48" xlink:href="#m4279847345" y="553.917271"/>
      </g>
     </g>
    </g>
    <g id="ytick_23">
     <g id="line2d_84">
      <g>
       <use style="stroke:#000000;stroke-width:0.6;" x="60.48" xlink:href="#m4279847345" y="547.322768"/>
      </g>
     </g>
    </g>
    <g id="ytick_24">
     <g id="line2d_85">
      <g>
       <use style="stroke:#000000;stroke-width:0.6;" x="60.48" xlink:href="#m4279847345" y="542.643894"/>
      </g>
     </g>
    </g>
    <g id="ytick_25">
     <g id="line2d_86">
      <g>
       <use style="stroke:#000000;stroke-width:0.6;" x="60.48" xlink:href="#m4279847345" y="539.014677"/>
      </g>
     </g>
    </g>
    <g id="ytick_26">
     <g id="line2d_87">
      <g>
       <use style="stroke:#000000;stroke-width:0.6;" x="60.48" xlink:href="#m4279847345" y="536.04939"/>
      </g>
     </g>
    </g>
    <g id="ytick_27">
     <g id="line2d_88">
      <g>
       <use style="stroke:#000000;stroke-width:0.6;" x="60.48" xlink:href="#m4279847345" y="533.542277"/>
      </g>
     </g>
    </g>
    <g id="ytick_28">
     <g id="line2d_89">
      <g>
       <use style="stroke:#000000;stroke-width:0.6;" x="60.48" xlink:href="#m4279847345" y="531.370516"/>
      </g>
     </g>
    </g>
    <g id="ytick_29">
     <g id="line2d_90">
      <g>
       <use style="stroke:#000000;stroke-width:0.6;" x="60.48" xlink:href="#m4279847345" y="529.454887"/>
      </g>
     </g>
    </g>
    <g id="ytick_30">
     <g id="line2d_91">
      <g>
       <use style="stroke:#000000;stroke-width:0.6;" x="60.48" xlink:href="#m4279847345" y="516.467921"/>
      </g>
     </g>
    </g>
    <g id="ytick_31">
     <g id="line2d_92">
      <g>
       <use style="stroke:#000000;stroke-width:0.6;" x="60.48" xlink:href="#m4279847345" y="509.873418"/>
      </g>
     </g>
    </g>
    <g id="ytick_32">
     <g id="line2d_93">
      <g>
       <use style="stroke:#000000;stroke-width:0.6;" x="60.48" xlink:href="#m4279847345" y="505.194543"/>
      </g>
     </g>
    </g>
    <g id="ytick_33">
     <g id="line2d_94">
      <g>
       <use style="stroke:#000000;stroke-width:0.6;" x="60.48" xlink:href="#m4279847345" y="501.565326"/>
      </g>
     </g>
    </g>
    <g id="ytick_34">
     <g id="line2d_95">
      <g>
       <use style="stroke:#000000;stroke-width:0.6;" x="60.48" xlink:href="#m4279847345" y="498.60004"/>
      </g>
     </g>
    </g>
    <g id="ytick_35">
     <g id="line2d_96">
      <g>
       <use style="stroke:#000000;stroke-width:0.6;" x="60.48" xlink:href="#m4279847345" y="496.092926"/>
      </g>
     </g>
    </g>
    <g id="ytick_36">
     <g id="line2d_97">
      <g>
       <use style="stroke:#000000;stroke-width:0.6;" x="60.48" xlink:href="#m4279847345" y="493.921165"/>
      </g>
     </g>
    </g>
    <g id="ytick_37">
     <g id="line2d_98">
      <g>
       <use style="stroke:#000000;stroke-width:0.6;" x="60.48" xlink:href="#m4279847345" y="492.005536"/>
      </g>
     </g>
    </g>
    <g id="ytick_38">
     <g id="line2d_99">
      <g>
       <use style="stroke:#000000;stroke-width:0.6;" x="60.48" xlink:href="#m4279847345" y="479.01857"/>
      </g>
     </g>
    </g>
    <g id="ytick_39">
     <g id="line2d_100">
      <g>
       <use style="stroke:#000000;stroke-width:0.6;" x="60.48" xlink:href="#m4279847345" y="472.424067"/>
      </g>
     </g>
    </g>
    <g id="ytick_40">
     <g id="line2d_101">
      <g>
       <use style="stroke:#000000;stroke-width:0.6;" x="60.48" xlink:href="#m4279847345" y="467.745192"/>
      </g>
     </g>
    </g>
    <g id="ytick_41">
     <g id="line2d_102">
      <g>
       <use style="stroke:#000000;stroke-width:0.6;" x="60.48" xlink:href="#m4279847345" y="464.115975"/>
      </g>
     </g>
    </g>
    <g id="ytick_42">
     <g id="line2d_103">
      <g>
       <use style="stroke:#000000;stroke-width:0.6;" x="60.48" xlink:href="#m4279847345" y="461.150689"/>
      </g>
     </g>
    </g>
    <g id="ytick_43">
     <g id="line2d_104">
      <g>
       <use style="stroke:#000000;stroke-width:0.6;" x="60.48" xlink:href="#m4279847345" y="458.643575"/>
      </g>
     </g>
    </g>
    <g id="ytick_44">
     <g id="line2d_105">
      <g>
       <use style="stroke:#000000;stroke-width:0.6;" x="60.48" xlink:href="#m4279847345" y="456.471814"/>
      </g>
     </g>
    </g>
    <g id="ytick_45">
     <g id="line2d_106">
      <g>
       <use style="stroke:#000000;stroke-width:0.6;" x="60.48" xlink:href="#m4279847345" y="454.556186"/>
      </g>
     </g>
    </g>
    <g id="ytick_46">
     <g id="line2d_107">
      <g>
       <use style="stroke:#000000;stroke-width:0.6;" x="60.48" xlink:href="#m4279847345" y="441.56922"/>
      </g>
     </g>
    </g>
    <g id="ytick_47">
     <g id="line2d_108">
      <g>
       <use style="stroke:#000000;stroke-width:0.6;" x="60.48" xlink:href="#m4279847345" y="434.974716"/>
      </g>
     </g>
    </g>
    <g id="ytick_48">
     <g id="line2d_109">
      <g>
       <use style="stroke:#000000;stroke-width:0.6;" x="60.48" xlink:href="#m4279847345" y="430.295842"/>
      </g>
     </g>
    </g>
    <g id="ytick_49">
     <g id="line2d_110">
      <g>
       <use style="stroke:#000000;stroke-width:0.6;" x="60.48" xlink:href="#m4279847345" y="426.666625"/>
      </g>
     </g>
    </g>
    <g id="ytick_50">
     <g id="line2d_111">
      <g>
       <use style="stroke:#000000;stroke-width:0.6;" x="60.48" xlink:href="#m4279847345" y="423.701338"/>
      </g>
     </g>
    </g>
    <g id="ytick_51">
     <g id="line2d_112">
      <g>
       <use style="stroke:#000000;stroke-width:0.6;" x="60.48" xlink:href="#m4279847345" y="421.194225"/>
      </g>
     </g>
    </g>
    <g id="ytick_52">
     <g id="line2d_113">
      <g>
       <use style="stroke:#000000;stroke-width:0.6;" x="60.48" xlink:href="#m4279847345" y="419.022464"/>
      </g>
     </g>
    </g>
    <g id="ytick_53">
     <g id="line2d_114">
      <g>
       <use style="stroke:#000000;stroke-width:0.6;" x="60.48" xlink:href="#m4279847345" y="417.106835"/>
      </g>
     </g>
    </g>
    <g id="ytick_54">
     <g id="line2d_115">
      <g>
       <use style="stroke:#000000;stroke-width:0.6;" x="60.48" xlink:href="#m4279847345" y="404.119869"/>
      </g>
     </g>
    </g>
    <g id="ytick_55">
     <g id="line2d_116">
      <g>
       <use style="stroke:#000000;stroke-width:0.6;" x="60.48" xlink:href="#m4279847345" y="397.525366"/>
      </g>
     </g>
    </g>
    <g id="ytick_56">
     <g id="line2d_117">
      <g>
       <use style="stroke:#000000;stroke-width:0.6;" x="60.48" xlink:href="#m4279847345" y="392.846491"/>
      </g>
     </g>
    </g>
    <g id="ytick_57">
     <g id="line2d_118">
      <g>
       <use style="stroke:#000000;stroke-width:0.6;" x="60.48" xlink:href="#m4279847345" y="389.217274"/>
      </g>
     </g>
    </g>
    <g id="ytick_58">
     <g id="line2d_119">
      <g>
       <use style="stroke:#000000;stroke-width:0.6;" x="60.48" xlink:href="#m4279847345" y="386.251988"/>
      </g>
     </g>
    </g>
    <g id="ytick_59">
     <g id="line2d_120">
      <g>
       <use style="stroke:#000000;stroke-width:0.6;" x="60.48" xlink:href="#m4279847345" y="383.744874"/>
      </g>
     </g>
    </g>
    <g id="ytick_60">
     <g id="line2d_121">
      <g>
       <use style="stroke:#000000;stroke-width:0.6;" x="60.48" xlink:href="#m4279847345" y="381.573113"/>
      </g>
     </g>
    </g>
    <g id="ytick_61">
     <g id="line2d_122">
      <g>
       <use style="stroke:#000000;stroke-width:0.6;" x="60.48" xlink:href="#m4279847345" y="379.657484"/>
      </g>
     </g>
    </g>
    <g id="ytick_62">
     <g id="line2d_123">
      <g>
       <use style="stroke:#000000;stroke-width:0.6;" x="60.48" xlink:href="#m4279847345" y="366.670518"/>
      </g>
     </g>
    </g>
    <g id="ytick_63">
     <g id="line2d_124">
      <g>
       <use style="stroke:#000000;stroke-width:0.6;" x="60.48" xlink:href="#m4279847345" y="360.076015"/>
      </g>
     </g>
    </g>
    <g id="ytick_64">
     <g id="line2d_125">
      <g>
       <use style="stroke:#000000;stroke-width:0.6;" x="60.48" xlink:href="#m4279847345" y="355.39714"/>
      </g>
     </g>
    </g>
    <g id="ytick_65">
     <g id="line2d_126">
      <g>
       <use style="stroke:#000000;stroke-width:0.6;" x="60.48" xlink:href="#m4279847345" y="351.767923"/>
      </g>
     </g>
    </g>
    <g id="ytick_66">
     <g id="line2d_127">
      <g>
       <use style="stroke:#000000;stroke-width:0.6;" x="60.48" xlink:href="#m4279847345" y="348.802637"/>
      </g>
     </g>
    </g>
    <g id="ytick_67">
     <g id="line2d_128">
      <g>
       <use style="stroke:#000000;stroke-width:0.6;" x="60.48" xlink:href="#m4279847345" y="346.295523"/>
      </g>
     </g>
    </g>
    <g id="ytick_68">
     <g id="line2d_129">
      <g>
       <use style="stroke:#000000;stroke-width:0.6;" x="60.48" xlink:href="#m4279847345" y="344.123763"/>
      </g>
     </g>
    </g>
    <g id="ytick_69">
     <g id="line2d_130">
      <g>
       <use style="stroke:#000000;stroke-width:0.6;" x="60.48" xlink:href="#m4279847345" y="342.208134"/>
      </g>
     </g>
    </g>
    <g id="text_36">
     <!-- error -->
     <g transform="translate(23.695 488.528523)rotate(-90)scale(0.16 -0.16)">
      <defs>
       <path d="M 2330 2438 
C 2330 2643 2131 2829 1856 2829 
C 1389 2829 1158 2400 1069 2125 
L 1069 2829 
L 179 2758 
L 179 2560 
C 627 2560 678 2515 678 2202 
L 678 486 
C 678 198 608 198 179 198 
L 179 0 
L 909 19 
C 1165 19 1466 19 1722 0 
L 1722 198 
L 1587 198 
C 1114 198 1101 269 1101 499 
L 1101 1485 
C 1101 2118 1370 2688 1856 2688 
C 1901 2688 1914 2688 1926 2682 
C 1907 2675 1779 2598 1779 2432 
C 1779 2253 1914 2157 2054 2157 
C 2170 2157 2330 2234 2330 2438 
z
" id="LatinModernMath-Regular-72" transform="scale(0.015625)"/>
       <path d="M 3014 1370 
C 3014 2189 2374 2867 1600 2867 
C 800 2867 179 2170 179 1370 
C 179 544 845 -70 1594 -70 
C 2368 -70 3014 557 3014 1370 
z
M 2483 1421 
C 2483 1190 2483 845 2342 563 
C 2202 275 1920 90 1600 90 
C 1325 90 1043 224 870 518 
C 710 800 710 1190 710 1421 
C 710 1670 710 2016 864 2298 
C 1037 2592 1338 2726 1594 2726 
C 1875 2726 2150 2586 2317 2310 
C 2483 2035 2483 1664 2483 1421 
z
" id="LatinModernMath-Regular-6f" transform="scale(0.015625)"/>
      </defs>
      <use xlink:href="#LatinModernMath-Regular-65"/>
      <use x="44.399994" xlink:href="#LatinModernMath-Regular-72"/>
      <use x="83.599991" xlink:href="#LatinModernMath-Regular-72"/>
      <use x="122.799988" xlink:href="#LatinModernMath-Regular-6f"/>
      <use x="172.799973" xlink:href="#LatinModernMath-Regular-72"/>
     </g>
    </g>
   </g>
   <g id="line2d_131">
    <path clip-path="url(#pb0d0710a24)" d="M 60.782413 649 
L 60.784047 448.351046 
L 61.088094 437.077776 
L 61.696188 425.804833 
L 62.304282 419.211053 
L 62.912375 414.533191 
L 63.824516 409.355907 
L 64.736657 405.436349 
L 65.952845 401.35359 
L 67.169032 398.095662 
L 68.689267 394.773743 
L 70.209501 392.021175 
L 72.033783 389.241402 
L 73.858065 386.874858 
L 75.986393 384.497798 
L 78.418768 382.159845 
L 80.851144 380.128369 
L 83.587566 378.125187 
L 86.628035 376.173642 
L 89.972551 374.289362 
L 93.621114 372.482582 
L 97.877771 370.636101 
L 102.438475 368.908245 
L 107.607273 367.20226 
L 113.080117 365.633814 
L 119.161056 364.126893 
L 125.850088 362.707524 
L 133.147214 361.398141 
L 140.748387 360.260246 
L 148.957654 359.25578 
L 157.775015 358.405879 
L 166.896422 357.750909 
L 176.321877 357.293915 
L 186.051378 357.042005 
L 196.084927 357.006561 
L 206.118475 357.194594 
L 216.152023 357.606849 
L 225.881525 358.226095 
L 235.306979 359.041395 
L 244.428387 360.045076 
L 253.245748 361.23219 
L 261.759062 362.600182 
L 269.968328 364.148689 
L 277.569501 365.808165 
L 284.866628 367.63305 
L 291.55566 369.533961 
L 297.940645 371.583048 
L 303.717537 373.665547 
L 309.190381 375.87159 
L 314.359179 378.198661 
L 319.22393 380.643322 
L 323.480587 383.021273 
L 327.433196 385.465191 
L 331.385806 388.178503 
L 335.03437 390.968962 
L 338.378886 393.817331 
L 341.419355 396.697873 
L 344.155777 399.576788 
L 346.892199 402.785684 
L 349.324575 405.976787 
L 351.75695 409.563279 
L 353.885279 413.106118 
L 356.013607 417.128027 
L 357.837889 421.062093 
L 359.66217 425.580926 
L 361.182405 429.931492 
L 362.702639 434.994121 
L 363.918827 439.733419 
L 365.135015 445.316841 
L 366.351202 452.102919 
L 367.263343 458.353255 
L 368.175484 466.132918 
L 369.087625 476.427043 
L 369.695718 485.741918 
L 370.303812 498.888188 
L 370.607859 508.22462 
L 370.911906 521.392343 
L 371.215953 543.91785 
L 371.215953 543.91785 
" style="fill:none;stroke:#1f77b4;stroke-linecap:square;"/>
   </g>
   <g id="line2d_132">
    <path clip-path="url(#pb0d0710a24)" d="M 61.126741 649 
L 61.696188 617.694718 
L 62.304282 597.911569 
L 62.912375 583.875451 
L 63.824516 568.338441 
L 64.736657 556.572983 
L 65.952845 544.313125 
L 67.169032 534.524861 
L 68.38522 526.377402 
L 69.905455 517.800467 
L 71.425689 510.510545 
L 73.249971 502.997658 
L 75.074252 496.492135 
L 76.898534 490.756312 
L 79.026862 484.823606 
L 81.155191 479.539468 
L 83.587566 474.133389 
L 86.019941 469.273294 
L 88.756364 464.335986 
L 91.492786 459.860749 
L 94.533255 455.336301 
L 97.573724 451.206071 
L 100.91824 447.045057 
L 104.262757 443.223454 
L 107.91132 439.383849 
L 111.86393 435.555857 
L 116.120587 431.763216 
L 120.377243 428.264487 
L 124.937947 424.797527 
L 129.802698 421.378247 
L 134.971496 418.019574 
L 140.44434 414.73201 
L 146.221232 411.524119 
L 152.30217 408.40295 
L 158.687155 405.374411 
L 165.376188 402.443583 
L 172.673314 399.497073 
L 180.274487 396.675865 
L 188.179707 393.982331 
L 196.388974 391.419303 
L 204.902287 388.990262 
L 214.023695 386.624439 
L 223.44915 384.417226 
L 233.178651 382.374872 
L 242.908152 380.55907 
L 252.941701 378.913978 
L 262.975249 377.493984 
L 273.008798 376.297443 
L 283.042346 375.327294 
L 292.771848 374.610467 
L 302.197302 374.138887 
L 311.014663 373.912937 
L 319.527977 373.913585 
L 327.433196 374.132001 
L 334.730323 374.548414 
L 341.419355 375.142499 
L 347.500293 375.892042 
L 353.277185 376.826805 
L 358.445982 377.887553 
L 363.006686 379.040263 
L 367.263343 380.343661 
L 370.911906 381.678697 
L 371.215953 381.800575 
L 371.215953 381.800575 
" style="fill:none;stroke:#ff7f0e;stroke-linecap:square;"/>
   </g>
   <g id="line2d_133">
    <path clip-path="url(#pb0d0710a24)" d="M 88.029106 649 
L 90.580645 638.921316 
L 93.317067 629.023754 
L 96.05349 619.920352 
L 99.093959 610.594593 
L 102.134428 601.977896 
L 105.478944 593.199955 
L 108.82346 585.053934 
L 112.472023 576.789322 
L 116.120587 569.088338 
L 119.76915 561.879581 
L 123.72176 554.557865 
L 127.67437 547.683786 
L 131.931026 540.723362 
L 136.187683 534.170287 
L 140.748387 527.551104 
L 145.613138 520.898993 
L 150.477889 514.623125 
L 155.646686 508.323749 
L 160.815484 502.365648 
L 166.288328 496.391925 
L 172.06522 490.42348 
L 177.842111 484.768204 
L 183.92305 479.122065 
L 190.308035 473.501575 
L 196.997067 467.921636 
L 203.6861 462.629959 
L 210.679179 457.3806 
L 217.976305 452.187182 
L 225.273431 447.262666 
L 232.874604 442.399473 
L 240.779824 437.612521 
L 248.685044 433.086828 
L 256.590264 428.810937 
L 264.799531 424.626413 
L 273.008798 420.697546 
L 280.914018 417.154903 
L 288.819238 413.851566 
L 296.420411 410.907999 
L 304.021584 408.204121 
L 311.31871 405.849699 
L 318.007742 403.917483 
L 324.392727 402.295804 
L 330.473666 400.977597 
L 336.250557 399.957079 
L 341.419355 399.263115 
L 346.284106 398.828154 
L 350.844809 398.643597 
L 355.101466 398.699637 
L 359.054076 398.984599 
L 362.702639 399.484132 
L 366.047155 400.180224 
L 369.087625 401.050043 
L 371.215953 401.81801 
L 371.215953 401.81801 
" style="fill:none;stroke:#2ca02c;stroke-linecap:square;"/>
   </g>
   <g id="line2d_134">
    <path clip-path="url(#pb0d0710a24)" d="M 182.47302 649 
L 188.179707 637.457635 
L 194.260645 625.672979 
L 200.341584 614.370926 
L 206.726569 602.976118 
L 213.415601 591.511084 
L 220.104633 580.48641 
L 227.097713 569.390026 
L 234.394839 558.238598 
L 241.691965 547.486501 
L 249.293138 536.675823 
L 257.198358 525.820694 
L 265.407625 514.935154 
L 273.616891 504.417401 
L 282.130205 493.877339 
L 290.643519 483.698475 
L 298.852786 474.224099 
L 306.758006 465.429256 
L 314.359179 457.304024 
L 321.352258 450.156896 
L 327.433196 444.245383 
L 332.906041 439.217719 
L 337.770792 435.033034 
L 342.027449 431.63905 
L 345.980059 428.758406 
L 349.628622 426.377683 
L 352.973138 424.475596 
L 355.70956 423.153974 
L 358.445982 422.078259 
L 360.878358 421.359744 
L 363.006686 420.940862 
L 365.135015 420.744439 
L 366.959296 420.77581 
L 368.783578 421.014952 
L 370.607859 421.488096 
L 371.215953 421.703035 
L 371.215953 421.703035 
" style="fill:none;stroke:#d62728;stroke-linecap:square;"/>
   </g>
   <g id="line2d_135">
    <path clip-path="url(#pb0d0710a24)" d="M 281.720647 649 
L 292.163754 619.861907 
L 304.021584 587.442758 
L 316.487507 554.004274 
L 328.04129 523.613234 
L 336.858651 500.993697 
L 343.243636 485.176173 
L 348.108387 473.681465 
L 352.060997 464.90891 
L 355.101466 458.665599 
L 357.837889 453.558981 
L 359.966217 450.017246 
L 361.790499 447.348384 
L 363.61478 445.080435 
L 365.135015 443.544242 
L 366.351202 442.57681 
L 367.56739 441.866765 
L 368.783578 441.438804 
L 369.695718 441.318848 
L 370.607859 441.384471 
L 371.215953 441.537617 
L 371.215953 441.537617 
" style="fill:none;stroke:#9467bd;stroke-linecap:square;"/>
   </g>
   <g id="line2d_136">
    <path clip-path="url(#pb0d0710a24)" d="M 333.747881 649 
L 353.581232 530.983315 
L 357.837889 507.170757 
L 360.574311 492.955844 
L 362.702639 482.904512 
L 364.526921 475.312057 
L 366.047155 469.949715 
L 367.263343 466.445779 
L 368.175484 464.353225 
L 369.087625 462.775056 
L 369.695718 462.032988 
L 370.303812 461.55561 
L 370.911906 461.356971 
L 371.215953 461.366531 
L 371.215953 461.366531 
" style="fill:none;stroke:#8c564b;stroke-linecap:square;"/>
   </g>
   <g id="line2d_137">
    <path clip-path="url(#pb0d0710a24)" d="M 355.063627 649 
L 361.182405 569.122169 
L 364.222874 532.255193 
L 366.047155 512.487068 
L 367.56739 498.458517 
L 368.479531 491.601859 
L 369.391672 486.264864 
L 369.999765 483.692761 
L 370.607859 481.998574 
L 370.911906 481.501429 
L 371.215953 481.247344 
L 371.215953 481.247344 
" style="fill:none;stroke:#e377c2;stroke-linecap:square;"/>
   </g>
   <g id="line2d_138">
    <path clip-path="url(#pb0d0710a24)" d="M 363.966284 649 
L 366.655249 577.960471 
L 368.175484 542.430998 
L 369.391672 519.258586 
L 369.999765 510.541706 
L 370.607859 504.418853 
L 370.911906 502.474543 
L 371.215953 501.334275 
L 371.215953 501.334275 
" style="fill:none;stroke:#7f7f7f;stroke-linecap:square;"/>
   </g>
   <g id="line2d_139">
    <path clip-path="url(#pb0d0710a24)" d="M 367.94871 649 
L 369.391672 577.391724 
L 370.303812 541.650213 
L 370.911906 526.215281 
L 371.215953 522.128158 
L 371.215953 522.128158 
" style="fill:none;stroke:#bcbd22;stroke-linecap:square;"/>
   </g>
   <g id="line2d_140">
    <path clip-path="url(#pb0d0710a24)" d="M 61.126741 649 
L 61.696188 617.694718 
L 62.304282 597.911569 
L 62.912375 583.875451 
L 63.824516 568.338441 
L 64.736657 556.572983 
L 65.952845 544.313125 
L 67.169032 534.524861 
L 68.081173 528.290144 
L 68.220824 649 
M 88.029106 649 
L 90.580645 638.921316 
L 93.317067 629.023754 
L 96.05349 619.920352 
L 99.093959 610.594593 
L 102.134428 601.977896 
L 105.478944 593.199955 
L 108.82346 585.053934 
L 112.472023 576.789322 
L 116.120587 569.088338 
L 119.76915 561.879581 
L 123.72176 554.557865 
L 127.67437 547.683786 
L 131.931026 540.723362 
L 136.187683 534.170287 
L 140.44434 527.980367 
L 140.607578 649 
M 182.47302 649 
L 188.179707 637.457635 
L 194.260645 625.672979 
L 200.341584 614.370926 
L 206.726569 602.976118 
L 213.415601 591.511084 
L 220.104633 580.48641 
L 227.097713 569.390026 
L 234.394839 558.238598 
L 241.691965 547.486501 
L 249.293138 536.675823 
L 255.678123 527.878945 
L 255.865912 649 
M 281.720647 649 
L 292.163754 619.861907 
L 304.021584 587.442758 
L 316.487507 554.004274 
L 326.217009 528.365828 
L 326.440968 649 
M 333.747881 649 
L 353.581232 530.983315 
L 353.885279 529.237572 
L 354.162419 649 
M 355.063627 649 
L 361.182405 569.122169 
L 364.222874 532.255193 
L 364.526921 528.796698 
L 364.830968 625.463364 
L 367.263343 563.137095 
L 368.783578 530.050912 
L 369.087625 591.386029 
L 369.999765 552.250403 
L 370.607859 532.839224 
L 370.911906 558.760423 
L 371.215953 543.91785 
L 371.215953 543.91785 
" style="fill:none;stroke:#000000;stroke-dasharray:1.5,2.475;stroke-dashoffset:0;stroke-width:1.5;"/>
   </g>
   <g id="patch_9">
    <path d="M 60.48 602.64 
L 60.48 340.494545 
" style="fill:none;stroke:#000000;stroke-linecap:square;stroke-linejoin:miter;stroke-width:0.8;"/>
   </g>
   <g id="patch_10">
    <path d="M 371.52 602.64 
L 371.52 340.494545 
" style="fill:none;stroke:#000000;stroke-linecap:square;stroke-linejoin:miter;stroke-width:0.8;"/>
   </g>
   <g id="patch_11">
    <path d="M 60.48 602.64 
L 371.52 602.64 
" style="fill:none;stroke:#000000;stroke-linecap:square;stroke-linejoin:miter;stroke-width:0.8;"/>
   </g>
   <g id="patch_12">
    <path d="M 60.48 340.494545 
L 371.52 340.494545 
" style="fill:none;stroke:#000000;stroke-linecap:square;stroke-linejoin:miter;stroke-width:0.8;"/>
   </g>
   <g id="legend_2">
    <g id="patch_13">
     <path d="M 70.28 561.49321 
L 136.863125 561.49321 
Q 139.663125 561.49321 139.663125 558.69321 
L 139.663125 384.441335 
Q 139.663125 381.641335 136.863125 381.641335 
L 70.28 381.641335 
Q 67.48 381.641335 67.48 384.441335 
L 67.48 558.69321 
Q 67.48 561.49321 70.28 561.49321 
z
" style="fill:#ffffff;opacity:0.8;stroke:#cccccc;stroke-linejoin:miter;"/>
    </g>
    <g id="line2d_141">
     <path d="M 73.08 392.141335 
L 101.08 392.141335 
" style="fill:none;stroke:#1f77b4;stroke-linecap:square;"/>
    </g>
    <g id="line2d_142"/>
    <g id="text_37">
     <!-- i=0 -->
     <g transform="translate(112.28 397.041335)scale(0.14 -0.14)">
      <use xlink:href="#LatinModernMath-Regular-69"/>
      <use x="27.799988" xlink:href="#LatinModernMath-Regular-3d"/>
      <use x="105.599976" xlink:href="#LatinModernMath-Regular-30"/>
     </g>
    </g>
    <g id="line2d_143">
     <path d="M 73.08 411.65821 
L 101.08 411.65821 
" style="fill:none;stroke:#ff7f0e;stroke-linecap:square;"/>
    </g>
    <g id="line2d_144"/>
    <g id="text_38">
     <!-- i=1 -->
     <g transform="translate(112.28 416.55821)scale(0.14 -0.14)">
      <use xlink:href="#LatinModernMath-Regular-69"/>
      <use x="27.799988" xlink:href="#LatinModernMath-Regular-3d"/>
      <use x="105.599976" xlink:href="#LatinModernMath-Regular-31"/>
     </g>
    </g>
    <g id="line2d_145">
     <path d="M 73.08 431.175085 
L 101.08 431.175085 
" style="fill:none;stroke:#2ca02c;stroke-linecap:square;"/>
    </g>
    <g id="line2d_146"/>
    <g id="text_39">
     <!-- i=2 -->
     <g transform="translate(112.28 436.075085)scale(0.14 -0.14)">
      <use xlink:href="#LatinModernMath-Regular-69"/>
      <use x="27.799988" xlink:href="#LatinModernMath-Regular-3d"/>
      <use x="105.599976" xlink:href="#LatinModernMath-Regular-32"/>
     </g>
    </g>
    <g id="line2d_147">
     <path d="M 73.08 450.69196 
L 101.08 450.69196 
" style="fill:none;stroke:#d62728;stroke-linecap:square;"/>
    </g>
    <g id="line2d_148"/>
    <g id="text_40">
     <!-- i=3 -->
     <g transform="translate(112.28 455.59196)scale(0.14 -0.14)">
      <use xlink:href="#LatinModernMath-Regular-69"/>
      <use x="27.799988" xlink:href="#LatinModernMath-Regular-3d"/>
      <use x="105.599976" xlink:href="#LatinModernMath-Regular-33"/>
     </g>
    </g>
    <g id="line2d_149">
     <path d="M 73.08 470.208835 
L 101.08 470.208835 
" style="fill:none;stroke:#9467bd;stroke-linecap:square;"/>
    </g>
    <g id="line2d_150"/>
    <g id="text_41">
     <!-- i=4 -->
     <g transform="translate(112.28 475.108835)scale(0.14 -0.14)">
      <use xlink:href="#LatinModernMath-Regular-69"/>
      <use x="27.799988" xlink:href="#LatinModernMath-Regular-3d"/>
      <use x="105.599976" xlink:href="#LatinModernMath-Regular-34"/>
     </g>
    </g>
    <g id="line2d_151">
     <path d="M 73.08 489.72571 
L 101.08 489.72571 
" style="fill:none;stroke:#8c564b;stroke-linecap:square;"/>
    </g>
    <g id="line2d_152"/>
    <g id="text_42">
     <!-- i=5 -->
     <g transform="translate(112.28 494.62571)scale(0.14 -0.14)">
      <use xlink:href="#LatinModernMath-Regular-69"/>
      <use x="27.799988" xlink:href="#LatinModernMath-Regular-3d"/>
      <use x="105.599976" xlink:href="#LatinModernMath-Regular-35"/>
     </g>
    </g>
    <g id="line2d_153">
     <path d="M 73.08 509.242585 
L 101.08 509.242585 
" style="fill:none;stroke:#e377c2;stroke-linecap:square;"/>
    </g>
    <g id="line2d_154"/>
    <g id="text_43">
     <!-- i=6 -->
     <g transform="translate(112.28 514.142585)scale(0.14 -0.14)">
      <use xlink:href="#LatinModernMath-Regular-69"/>
      <use x="27.799988" xlink:href="#LatinModernMath-Regular-3d"/>
      <use x="105.599976" xlink:href="#LatinModernMath-Regular-36"/>
     </g>
    </g>
    <g id="line2d_155">
     <path d="M 73.08 528.75946 
L 101.08 528.75946 
" style="fill:none;stroke:#7f7f7f;stroke-linecap:square;"/>
    </g>
    <g id="line2d_156"/>
    <g id="text_44">
     <!-- i=7 -->
     <g transform="translate(112.28 533.65946)scale(0.14 -0.14)">
      <use xlink:href="#LatinModernMath-Regular-69"/>
      <use x="27.799988" xlink:href="#LatinModernMath-Regular-3d"/>
      <use x="105.599976" xlink:href="#LatinModernMath-Regular-37"/>
     </g>
    </g>
    <g id="line2d_157">
     <path d="M 73.08 548.276335 
L 101.08 548.276335 
" style="fill:none;stroke:#bcbd22;stroke-linecap:square;"/>
    </g>
    <g id="line2d_158"/>
    <g id="text_45">
     <!-- i=8 -->
     <g transform="translate(112.28 553.176335)scale(0.14 -0.14)">
      <use xlink:href="#LatinModernMath-Regular-69"/>
      <use x="27.799988" xlink:href="#LatinModernMath-Regular-3d"/>
      <use x="105.599976" xlink:href="#LatinModernMath-Regular-38"/>
     </g>
    </g>
   </g>
  </g>
 </g>
 <defs>
  <clipPath id="p2eabc0fb4d">
   <rect height="262.145455" width="311.04" x="60.48" y="25.92"/>
  </clipPath>
  <clipPath id="pb0d0710a24">
   <rect height="262.145455" width="311.04" x="60.48" y="340.494545"/>
  </clipPath>
 </defs>
</svg>
