<?xml version="1.0" encoding="utf-8" standalone="no"?>
<!DOCTYPE svg PUBLIC "-//W3C//DTD SVG 1.1//EN"
  "http://www.w3.org/Graphics/SVG/1.1/DTD/svg11.dtd">
<!-- Created with matplotlib (https://matplotlib.org/) -->
<svg height="368.64pt" version="1.1" viewBox="0 0 368.64 368.64" width="368.64pt" xmlns="http://www.w3.org/2000/svg" xmlns:xlink="http://www.w3.org/1999/xlink">
 <metadata>
  <rdf:RDF xmlns:cc="http://creativecommons.org/ns#" xmlns:dc="http://purl.org/dc/elements/1.1/" xmlns:rdf="http://www.w3.org/1999/02/22-rdf-syntax-ns#">
   <cc:Work>
    <dc:type rdf:resource="http://purl.org/dc/dcmitype/StillImage"/>
    <dc:date>2021-01-22T16:24:55.604714</dc:date>
    <dc:format>image/svg+xml</dc:format>
    <dc:creator>
     <cc:Agent>
      <dc:title>Matplotlib v3.3.3, https://matplotlib.org/</dc:title>
     </cc:Agent>
    </dc:creator>
   </cc:Work>
  </rdf:RDF>
 </metadata>
 <defs>
  <style type="text/css">*{stroke-linecap:butt;stroke-linejoin:round;}</style>
 </defs>
 <g id="figure_1">
  <g id="patch_1">
   <path d="M 0 368.64 
L 368.64 368.64 
L 368.64 0 
L 0 0 
z
" style="fill:none;"/>
  </g>
  <g id="axes_1">
   <g id="patch_2">
    <path d="M 0 368.64 
L 368.64 368.64 
L 368.64 0 
L 0 0 
z
" style="fill:none;opacity:0;"/>
   </g>
   <g id="patch_3">
    <path clip-path="url(#p07050f6ec2)" d="M 177.480144 315.900123 
L 178.365468 319.0758 
L 178.92164 323.711804 
L 179.492929 328.822562 
L 180.385798 333.298065 
L 181.79239 336.187573 
L 183.752322 336.941305 
L 186.159577 335.548512 
L 188.808315 332.53719 
L 191.461113 328.836248 
L 193.918303 325.536191 
L 196.068617 323.610076 
L 197.908437 323.666293 
L 199.527182 325.796118 
L 201.066546 329.554272 
L 202.668532 334.076471 
L 204.429419 338.302889 
L 206.373722 341.249621 
L 208.454956 342.258463 
L 210.581034 341.161444 
L 212.654242 338.318912 
L 214.611345 334.522637 
L 216.449765 330.789961 
L 218.230685 328.102599 
L 220.057787 327.157287 
L 222.038592 328.191718 
L 224.241438 330.929346 
L 226.663026 334.655747 
L 229.218539 338.405556 
L 231.759439 341.210988 
L 234.115182 342.347835 
L 236.147051 341.516288 
L 237.797606 338.911353 
L 239.119469 335.166412 
L 240.272512 331.186036 
L 241.487516 327.912241 
L 243.004554 326.084664 
L 245.002616 326.055859 
L 247.540826 327.707909 
L 250.529606 330.49 
L 253.742574 333.565466 
L 256.868811 336.029052 
L 259.593376 337.137898 
L 261.685052 336.497197 
L 263.066891 334.154041 
L 263.84852 330.57724 
L 264.308707 326.530324 
L 264.830004 322.872104 
L 265.800745 320.336936 
L 267.509625 319.351051 
L 270.061452 319.930952 
L 273.338295 321.688077 
L 277.018996 323.936272 
L 280.654658 325.872508 
L 283.78233 326.783218 
L 286.047927 326.223141 
L 287.305636 324.121792 
L 287.666011 320.792146 
L 287.477671 316.841697 
L 287.244763 313.010947 
L 287.499685 309.982279 
L 288.66332 308.208659 
L 290.92952 307.805248 
L 294.20546 308.529856 
L 298.125654 309.854741 
L 302.138448 311.108879 
L 305.644513 311.652433 
L 308.152391 311.037984 
L 309.41058 309.117848 
L 309.48062 306.071783 
L 308.730172 302.350549 
L 307.745642 298.552455 
L 307.185049 295.26662 
L 307.608155 292.924075 
L 309.327819 291.694459 
L 312.322049 291.453041 
L 316.231305 291.823934 
L 320.443784 292.285575 
L 324.248481 292.309107 
L 327.017564 291.492951 
L 328.371126 289.659266 
L 328.280969 286.889184 
L 327.085088 283.490378 
L 325.407303 279.908279 
L 324.001077 276.606256 
L 323.556723 273.947011 
L 324.521453 272.105642 
L 326.979242 271.035228 
L 330.622768 270.491174 
L 334.826246 270.104987 
L 338.80191 269.485764 
L 341.800878 268.321569 
L 343.307021 266.454374 
L 343.173491 263.910589 
L 341.665741 260.881878 
L 339.39859 257.664337 
L 337.182217 254.574648 
L 335.815736 251.866801 
L 335.881081 249.671345 
L 337.590468 247.971752 
L 340.727489 246.621525 
L 344.69808 245.394458 
L 348.679383 244.051959 
L 351.829093 242.407806 
L 353.501853 240.372798 
L 353.416948 237.968613 
L 351.733614 235.309589 
L 349.01373 232.560332 
L 346.080603 229.883357 
L 343.809402 227.39286 
L 342.90272 225.127688 
L 343.708966 223.049984 
L 346.130636 221.067739 
L 349.646622 219.072281 
L 353.443514 216.977608 
L 356.622705 214.748558 
L 358.430406 212.409061 
L 358.451534 210.028512 
L 356.717463 207.691657 
L 353.699579 205.462848 
L 350.1899 203.357413 
L 347.099047 201.330619 
L 345.22326 199.288938 
L 345.040196 197.120864 
L 346.586053 194.73773 
L 349.445681 192.111029 
L 352.858398 189.293018 
L 355.912462 186.411972 
L 357.778327 183.641114 
L 357.920865 181.148725 
L 356.236075 179.043589 
L 353.077265 177.332688 
L 349.164081 175.905642 
L 345.397872 174.553443 
L 342.630876 173.019165 
L 341.448525 171.06846 
L 342.020631 168.560665 
L 344.059413 165.499583 
L 346.894774 162.047223 
L 349.647107 158.493289 
L 351.452951 155.185453 
L 351.685449 152.43714 
L 350.11313 150.437234 
L 346.956687 149.18739 
L 342.829769 148.486645 
L 338.579691 147.971109 
L 335.069507 147.201616 
L 332.957678 145.778371 
L 332.531789 143.452739 
L 333.638462 140.205247 
L 335.726596 136.266247 
L 337.991862 132.069989 
L 339.584491 128.150598 
L 339.826524 125.00475 
L 338.382796 122.956365 
L 335.342374 122.060015 
L 331.190629 122.071257 
L 326.680385 122.495496 
L 322.636436 122.7064 
L 319.744335 122.105686 
L 318.37779 120.283598 
L 318.508302 117.137199 
L 319.718996 112.912858 
L 321.317457 108.158008 
L 322.51709 103.59078 
L 322.639362 99.918412 
L 321.284744 97.650344 
L 318.429081 96.955322 
L 314.42211 97.60225 
L 309.890408 99.004002 
L 305.571623 100.356907 
L 302.123968 100.842988 
L 299.960434 99.844156 
L 299.149718 97.112369 
L 299.407744 92.849242 
L 300.179731 87.670689 
L 300.789395 82.461553 
L 300.615124 78.154305 
L 299.247029 75.487151 
L 296.584965 74.804227 
L 292.853986 75.951771 
L 288.535786 78.300838 
L 284.236507 80.894979 
L 280.527199 82.688518 
L 277.799145 82.816157 
L 276.171049 80.824491 
L 275.470214 76.803709 
L 275.289796 71.381857 
L 275.104165 65.57877 
L 274.409881 60.55332 
L 272.854312 57.306557 
L 270.318749 56.416713 
L 266.936274 57.876091 
L 263.042834 61.075372 
L 259.077796 64.943837 
L 255.463027 68.213645 
L 252.493914 69.743086 
L 250.270842 68.816475 
L 248.687269 65.34211 
L 247.474218 59.893941 
L 246.285526 53.581736 
L 244.797783 47.778633 
L 242.796213 43.772803 
L 240.223342 42.43151 
L 237.179204 43.965014 
L 233.876405 47.854239 
L 230.56634 52.965373 
L 227.460486 57.82671 
L 224.670893 61.00036 
L 222.186977 61.455083 
L 219.893692 58.843764 
L 217.62296 53.61122 
L 215.219854 46.90003 
L 212.600688 40.273504 
L 209.783148 35.322695 
L 206.878012 33.256057 
L 204.044913 34.577371 
L 201.426955 38.937395 
L 199.086797 45.201999 
L 196.967508 51.724714 
L 194.894414 56.758512 
L 192.621352 58.904087 
L 189.909897 57.479874 
L 186.617947 52.716379 
L 182.768503 45.720221 
L 178.572969 38.211314 
L 174.395239 32.095164 
L 170.660421 28.976278 
L 167.730031 29.736555 
L 165.778644 34.288911 
L 164.710576 41.574071 
L 164.147398 49.807671 
L 163.499146 56.920551 
L 162.108373 61.084051 
L 159.433235 61.187438 
L 155.220419 57.143468 
L 149.61615 49.938968 
L 143.175733 41.410573 
L 136.757055 33.795761 
L 131.315144 29.168254 
L 127.644943 28.899454 
L 126.139199 33.284761 
L 126.631211 41.435257 
L 128.375733 51.470126 
L 130.188358 60.969317 
L 130.721807 67.578309 
L 128.81749 69.614869 
L 123.843638 66.522785 
L 115.925937 59.051917 
L 105.99636 49.109928 
L 95.627764 39.312846 
L 86.676569 32.338979 
L 80.809876 30.24392 
L 79.032177 33.90936 
L 81.3386 42.770343 
L 86.600799 54.900179 
L 86.600799 70.552749 
L 84.06954 76.913907 
L 81.538281 83.066503 
L 79.007021 89.010536 
L 76.475762 94.746006 
L 73.944503 100.272914 
L 71.413244 105.591259 
L 68.881985 110.701042 
L 66.350726 115.602262 
L 63.819466 120.294919 
L 61.288207 124.779014 
L 58.756948 129.054547 
L 56.225689 133.121517 
L 53.69443 136.979924 
L 51.163171 140.629769 
L 48.631911 144.071051 
L 46.100652 147.303771 
L 43.569393 150.327928 
L 41.038134 153.143523 
L 38.506875 155.750555 
L 35.975616 158.149024 
L 33.444356 160.338931 
L 30.913097 162.320275 
L 28.381838 164.093057 
L 25.850579 165.657276 
L 23.31932 167.012933 
L 20.788061 168.160027 
L 18.256801 169.098558 
L 15.725542 169.828527 
L 13.194283 170.349934 
L 10.663024 170.662778 
L 13.594616 170.771931 
L 19.057467 170.806032 
L 24.520318 170.898595 
L 29.983168 171.078848 
L 35.446019 171.376022 
L 40.90887 171.819348 
L 46.371721 172.438055 
L 51.834572 173.261374 
L 57.297423 174.318534 
L 62.760274 175.638767 
L 68.223125 177.251303 
L 73.685976 179.185371 
L 79.148827 181.470202 
L 84.611678 184.135027 
L 90.074529 187.209075 
L 95.53738 190.721576 
L 101.000231 194.701762 
L 106.463082 199.178862 
L 111.925933 204.182106 
L 117.388784 209.740726 
L 122.851635 215.88395 
L 128.314485 222.641009 
L 133.777336 230.041134 
L 139.240187 238.113555 
L 144.703038 246.887502 
L 150.165889 256.392205 
L 155.62874 266.656894 
L 161.091591 277.710801 
L 166.554442 289.583154 
L 172.017293 302.303185 
z
" style="fill:#bb6655;"/>
   </g>
   <g id="matplotlib.axis_1">
    <g id="xtick_1">
     <g id="line2d_1">
      <defs>
       <path d="M 0 0 
L 0 3.5 
" id="mf851b8eb81" style="stroke:#000000;stroke-width:0.8;"/>
      </defs>
      <g>
       <use style="stroke:#000000;stroke-width:0.8;" x="48.790588" xlink:href="#mf851b8eb81" y="368.64"/>
      </g>
     </g>
     <g id="text_1">
      <!-- −0.6 -->
      <g transform="translate(36.649182 383.238437)scale(0.1 -0.1)">
       <defs>
        <path d="M 10.59375 35.5 
L 73.1875 35.5 
L 73.1875 27.203125 
L 10.59375 27.203125 
z
" id="DejaVuSans-8722"/>
        <path d="M 31.78125 66.40625 
Q 24.171875 66.40625 20.328125 58.90625 
Q 16.5 51.421875 16.5 36.375 
Q 16.5 21.390625 20.328125 13.890625 
Q 24.171875 6.390625 31.78125 6.390625 
Q 39.453125 6.390625 43.28125 13.890625 
Q 47.125 21.390625 47.125 36.375 
Q 47.125 51.421875 43.28125 58.90625 
Q 39.453125 66.40625 31.78125 66.40625 
z
M 31.78125 74.21875 
Q 44.046875 74.21875 50.515625 64.515625 
Q 56.984375 54.828125 56.984375 36.375 
Q 56.984375 17.96875 50.515625 8.265625 
Q 44.046875 -1.421875 31.78125 -1.421875 
Q 19.53125 -1.421875 13.0625 8.265625 
Q 6.59375 17.96875 6.59375 36.375 
Q 6.59375 54.828125 13.0625 64.515625 
Q 19.53125 74.21875 31.78125 74.21875 
z
" id="DejaVuSans-48"/>
        <path d="M 10.6875 12.40625 
L 21 12.40625 
L 21 0 
L 10.6875 0 
z
" id="DejaVuSans-46"/>
        <path d="M 33.015625 40.375 
Q 26.375 40.375 22.484375 35.828125 
Q 18.609375 31.296875 18.609375 23.390625 
Q 18.609375 15.53125 22.484375 10.953125 
Q 26.375 6.390625 33.015625 6.390625 
Q 39.65625 6.390625 43.53125 10.953125 
Q 47.40625 15.53125 47.40625 23.390625 
Q 47.40625 31.296875 43.53125 35.828125 
Q 39.65625 40.375 33.015625 40.375 
z
M 52.59375 71.296875 
L 52.59375 62.3125 
Q 48.875 64.0625 45.09375 64.984375 
Q 41.3125 65.921875 37.59375 65.921875 
Q 27.828125 65.921875 22.671875 59.328125 
Q 17.53125 52.734375 16.796875 39.40625 
Q 19.671875 43.65625 24.015625 45.921875 
Q 28.375 48.1875 33.59375 48.1875 
Q 44.578125 48.1875 50.953125 41.515625 
Q 57.328125 34.859375 57.328125 23.390625 
Q 57.328125 12.15625 50.6875 5.359375 
Q 44.046875 -1.421875 33.015625 -1.421875 
Q 20.359375 -1.421875 13.671875 8.265625 
Q 6.984375 17.96875 6.984375 36.375 
Q 6.984375 53.65625 15.1875 63.9375 
Q 23.390625 74.21875 37.203125 74.21875 
Q 40.921875 74.21875 44.703125 73.484375 
Q 48.484375 72.75 52.59375 71.296875 
z
" id="DejaVuSans-54"/>
       </defs>
       <use xlink:href="#DejaVuSans-8722"/>
       <use x="83.789062" xlink:href="#DejaVuSans-48"/>
       <use x="147.412109" xlink:href="#DejaVuSans-46"/>
       <use x="179.199219" xlink:href="#DejaVuSans-54"/>
      </g>
     </g>
    </g>
    <g id="xtick_2">
     <g id="line2d_2">
      <g>
       <use style="stroke:#000000;stroke-width:0.8;" x="103.002353" xlink:href="#mf851b8eb81" y="368.64"/>
      </g>
     </g>
     <g id="text_2">
      <!-- −0.4 -->
      <g transform="translate(90.860947 383.238437)scale(0.1 -0.1)">
       <defs>
        <path d="M 37.796875 64.3125 
L 12.890625 25.390625 
L 37.796875 25.390625 
z
M 35.203125 72.90625 
L 47.609375 72.90625 
L 47.609375 25.390625 
L 58.015625 25.390625 
L 58.015625 17.1875 
L 47.609375 17.1875 
L 47.609375 0 
L 37.796875 0 
L 37.796875 17.1875 
L 4.890625 17.1875 
L 4.890625 26.703125 
z
" id="DejaVuSans-52"/>
       </defs>
       <use xlink:href="#DejaVuSans-8722"/>
       <use x="83.789062" xlink:href="#DejaVuSans-48"/>
       <use x="147.412109" xlink:href="#DejaVuSans-46"/>
       <use x="179.199219" xlink:href="#DejaVuSans-52"/>
      </g>
     </g>
    </g>
    <g id="xtick_3">
     <g id="line2d_3">
      <g>
       <use style="stroke:#000000;stroke-width:0.8;" x="157.214118" xlink:href="#mf851b8eb81" y="368.64"/>
      </g>
     </g>
     <g id="text_3">
      <!-- −0.2 -->
      <g transform="translate(145.072711 383.238437)scale(0.1 -0.1)">
       <defs>
        <path d="M 19.1875 8.296875 
L 53.609375 8.296875 
L 53.609375 0 
L 7.328125 0 
L 7.328125 8.296875 
Q 12.9375 14.109375 22.625 23.890625 
Q 32.328125 33.6875 34.8125 36.53125 
Q 39.546875 41.84375 41.421875 45.53125 
Q 43.3125 49.21875 43.3125 52.78125 
Q 43.3125 58.59375 39.234375 62.25 
Q 35.15625 65.921875 28.609375 65.921875 
Q 23.96875 65.921875 18.8125 64.3125 
Q 13.671875 62.703125 7.8125 59.421875 
L 7.8125 69.390625 
Q 13.765625 71.78125 18.9375 73 
Q 24.125 74.21875 28.421875 74.21875 
Q 39.75 74.21875 46.484375 68.546875 
Q 53.21875 62.890625 53.21875 53.421875 
Q 53.21875 48.921875 51.53125 44.890625 
Q 49.859375 40.875 45.40625 35.40625 
Q 44.1875 33.984375 37.640625 27.21875 
Q 31.109375 20.453125 19.1875 8.296875 
z
" id="DejaVuSans-50"/>
       </defs>
       <use xlink:href="#DejaVuSans-8722"/>
       <use x="83.789062" xlink:href="#DejaVuSans-48"/>
       <use x="147.412109" xlink:href="#DejaVuSans-46"/>
       <use x="179.199219" xlink:href="#DejaVuSans-50"/>
      </g>
     </g>
    </g>
    <g id="xtick_4">
     <g id="line2d_4">
      <g>
       <use style="stroke:#000000;stroke-width:0.8;" x="211.425882" xlink:href="#mf851b8eb81" y="368.64"/>
      </g>
     </g>
     <g id="text_4">
      <!-- 0.0 -->
      <g transform="translate(203.47432 383.238437)scale(0.1 -0.1)">
       <use xlink:href="#DejaVuSans-48"/>
       <use x="63.623047" xlink:href="#DejaVuSans-46"/>
       <use x="95.410156" xlink:href="#DejaVuSans-48"/>
      </g>
     </g>
    </g>
    <g id="xtick_5">
     <g id="line2d_5">
      <g>
       <use style="stroke:#000000;stroke-width:0.8;" x="265.637647" xlink:href="#mf851b8eb81" y="368.64"/>
      </g>
     </g>
     <g id="text_5">
      <!-- 0.2 -->
      <g transform="translate(257.686085 383.238437)scale(0.1 -0.1)">
       <use xlink:href="#DejaVuSans-48"/>
       <use x="63.623047" xlink:href="#DejaVuSans-46"/>
       <use x="95.410156" xlink:href="#DejaVuSans-50"/>
      </g>
     </g>
    </g>
    <g id="xtick_6">
     <g id="line2d_6">
      <g>
       <use style="stroke:#000000;stroke-width:0.8;" x="319.849412" xlink:href="#mf851b8eb81" y="368.64"/>
      </g>
     </g>
     <g id="text_6">
      <!-- 0.4 -->
      <g transform="translate(311.897849 383.238437)scale(0.1 -0.1)">
       <use xlink:href="#DejaVuSans-48"/>
       <use x="63.623047" xlink:href="#DejaVuSans-46"/>
       <use x="95.410156" xlink:href="#DejaVuSans-52"/>
      </g>
     </g>
    </g>
   </g>
   <g id="matplotlib.axis_2">
    <g id="ytick_1">
     <g id="line2d_7">
      <defs>
       <path d="M 0 0 
L -3.5 0 
" id="mac722e1839" style="stroke:#000000;stroke-width:0.8;"/>
      </defs>
      <g>
       <use style="stroke:#000000;stroke-width:0.8;" x="0" xlink:href="#mac722e1839" y="319.849412"/>
      </g>
     </g>
     <g id="text_7">
      <!-- −0.4 -->
      <g transform="translate(-31.282813 323.648631)scale(0.1 -0.1)">
       <use xlink:href="#DejaVuSans-8722"/>
       <use x="83.789062" xlink:href="#DejaVuSans-48"/>
       <use x="147.412109" xlink:href="#DejaVuSans-46"/>
       <use x="179.199219" xlink:href="#DejaVuSans-52"/>
      </g>
     </g>
    </g>
    <g id="ytick_2">
     <g id="line2d_8">
      <g>
       <use style="stroke:#000000;stroke-width:0.8;" x="0" xlink:href="#mac722e1839" y="265.637647"/>
      </g>
     </g>
     <g id="text_8">
      <!-- −0.2 -->
      <g transform="translate(-31.282813 269.436866)scale(0.1 -0.1)">
       <use xlink:href="#DejaVuSans-8722"/>
       <use x="83.789062" xlink:href="#DejaVuSans-48"/>
       <use x="147.412109" xlink:href="#DejaVuSans-46"/>
       <use x="179.199219" xlink:href="#DejaVuSans-50"/>
      </g>
     </g>
    </g>
    <g id="ytick_3">
     <g id="line2d_9">
      <g>
       <use style="stroke:#000000;stroke-width:0.8;" x="0" xlink:href="#mac722e1839" y="211.425882"/>
      </g>
     </g>
     <g id="text_9">
      <!-- 0.0 -->
      <g transform="translate(-22.903125 215.225101)scale(0.1 -0.1)">
       <use xlink:href="#DejaVuSans-48"/>
       <use x="63.623047" xlink:href="#DejaVuSans-46"/>
       <use x="95.410156" xlink:href="#DejaVuSans-48"/>
      </g>
     </g>
    </g>
    <g id="ytick_4">
     <g id="line2d_10">
      <g>
       <use style="stroke:#000000;stroke-width:0.8;" x="0" xlink:href="#mac722e1839" y="157.214118"/>
      </g>
     </g>
     <g id="text_10">
      <!-- 0.2 -->
      <g transform="translate(-22.903125 161.013336)scale(0.1 -0.1)">
       <use xlink:href="#DejaVuSans-48"/>
       <use x="63.623047" xlink:href="#DejaVuSans-46"/>
       <use x="95.410156" xlink:href="#DejaVuSans-50"/>
      </g>
     </g>
    </g>
    <g id="ytick_5">
     <g id="line2d_11">
      <g>
       <use style="stroke:#000000;stroke-width:0.8;" x="0" xlink:href="#mac722e1839" y="103.002353"/>
      </g>
     </g>
     <g id="text_11">
      <!-- 0.4 -->
      <g transform="translate(-22.903125 106.801572)scale(0.1 -0.1)">
       <use xlink:href="#DejaVuSans-48"/>
       <use x="63.623047" xlink:href="#DejaVuSans-46"/>
       <use x="95.410156" xlink:href="#DejaVuSans-52"/>
      </g>
     </g>
    </g>
    <g id="ytick_6">
     <g id="line2d_12">
      <g>
       <use style="stroke:#000000;stroke-width:0.8;" x="0" xlink:href="#mac722e1839" y="48.790588"/>
      </g>
     </g>
     <g id="text_12">
      <!-- 0.6 -->
      <g transform="translate(-22.903125 52.589807)scale(0.1 -0.1)">
       <use xlink:href="#DejaVuSans-48"/>
       <use x="63.623047" xlink:href="#DejaVuSans-46"/>
       <use x="95.410156" xlink:href="#DejaVuSans-54"/>
      </g>
     </g>
    </g>
   </g>
   <g id="line2d_13">
    <defs>
     <path d="M 0 2 
C 0.530406 2 1.03916 1.789267 1.414214 1.414214 
C 1.789267 1.03916 2 0.530406 2 0 
C 2 -0.530406 1.789267 -1.03916 1.414214 -1.414214 
C 1.03916 -1.789267 0.530406 -2 0 -2 
C -0.530406 -2 -1.03916 -1.789267 -1.414214 -1.414214 
C -1.789267 -1.03916 -2 -0.530406 -2 0 
C -2 0.530406 -1.789267 1.03916 -1.414214 1.414214 
C -1.03916 1.789267 -0.530406 2 0 2 
z
" id="m02f0e98f85" style="stroke:#bb6655;"/>
    </defs>
    <g clip-path="url(#p07050f6ec2)">
     <use style="fill:#bb6655;stroke:#bb6655;" x="13.594616" xlink:href="#m02f0e98f85" y="170.771931"/>
    </g>
   </g>
   <g id="line2d_14">
    <defs>
     <path d="M 0 5 
C 1.326016 5 2.597899 4.473168 3.535534 3.535534 
C 4.473168 2.597899 5 1.326016 5 0 
C 5 -1.326016 4.473168 -2.597899 3.535534 -3.535534 
C 2.597899 -4.473168 1.326016 -5 0 -5 
C -1.326016 -5 -2.597899 -4.473168 -3.535534 -3.535534 
C -4.473168 -2.597899 -5 -1.326016 -5 0 
C -5 1.326016 -4.473168 2.597899 -3.535534 3.535534 
C -2.597899 4.473168 -1.326016 5 0 5 
z
" id="m1a28a86b31" style="stroke:#ffffff;"/>
    </defs>
    <g clip-path="url(#p07050f6ec2)">
     <use style="fill:#ffffff;stroke:#ffffff;" x="89.449412" xlink:href="#m1a28a86b31" y="130.108235"/>
    </g>
   </g>
   <g id="line2d_15">
    <defs>
     <path d="M 0 7.5 
C 1.989023 7.5 3.896849 6.709753 5.303301 5.303301 
C 6.709753 3.896849 7.5 1.989023 7.5 0 
C 7.5 -1.989023 6.709753 -3.896849 5.303301 -5.303301 
C 3.896849 -6.709753 1.989023 -7.5 0 -7.5 
C -1.989023 -7.5 -3.896849 -6.709753 -5.303301 -5.303301 
C -6.709753 -3.896849 -7.5 -1.989023 -7.5 0 
C -7.5 1.989023 -6.709753 3.896849 -5.303301 5.303301 
C -3.896849 6.709753 -1.989023 7.5 0 7.5 
z
" id="me277416f89" style="stroke:#bb6655;"/>
    </defs>
    <g clip-path="url(#p07050f6ec2)">
     <use style="fill:#bb6655;stroke:#bb6655;" x="112.489412" xlink:href="#me277416f89" y="214.136471"/>
    </g>
   </g>
   <g id="line2d_16">
    <path clip-path="url(#p07050f6ec2)" d="M 86.600799 70.552749 
L 87.675072 70.55275 
L 88.749345 70.552768 
L 89.823619 70.552893 
L 90.897892 70.553356 
L 91.972165 70.554603 
L 93.046438 70.557362 
L 94.120712 70.562719 
L 95.194985 70.572187 
L 96.269258 70.587776 
L 97.343531 70.612068 
L 98.417805 70.648282 
L 99.492078 70.700353 
L 100.566351 70.772995 
L 101.640624 70.87178 
L 102.714897 71.003201 
L 103.789171 71.174751 
L 104.863444 71.394991 
L 105.937717 71.673617 
L 107.01199 72.02154 
L 108.086264 72.450949 
L 109.160537 72.975387 
L 110.23481 73.609819 
L 111.309083 74.370708 
L 112.383357 75.276079 
L 113.45763 76.345596 
L 114.531903 77.600634 
L 115.606176 79.064342 
L 116.680449 80.761725 
L 117.754723 82.719708 
L 118.828996 84.967207 
L 119.903269 87.535206 
L 120.977542 90.456821 
L 122.051816 93.767378 
L 123.126089 97.504478 
L 124.200362 101.708072 
L 125.274635 106.420533 
L 126.348909 111.686722 
L 127.423182 117.554066 
L 128.497455 124.072622 
L 129.571728 131.295156 
L 130.646002 139.277207 
L 131.720275 148.077163 
L 132.794548 157.75633 
L 133.868821 168.379003 
L 134.943094 180.012539 
L 136.017368 192.727426 
L 137.091641 206.597356 
L 138.165914 221.699295 
L 139.240187 238.113555 
" style="fill:none;stroke:#ffffff;stroke-linecap:square;stroke-width:4;"/>
   </g>
   <g id="patch_4">
    <path d="M 0 368.64 
L 0 0 
" style="fill:none;stroke:#000000;stroke-linecap:square;stroke-linejoin:miter;stroke-width:0.8;"/>
   </g>
   <g id="patch_5">
    <path d="M 368.64 368.64 
L 368.64 0 
" style="fill:none;stroke:#000000;stroke-linecap:square;stroke-linejoin:miter;stroke-width:0.8;"/>
   </g>
   <g id="patch_6">
    <path d="M 0 368.64 
L 368.64 368.64 
" style="fill:none;stroke:#000000;stroke-linecap:square;stroke-linejoin:miter;stroke-width:0.8;"/>
   </g>
   <g id="patch_7">
    <path d="M 0 0 
L 368.64 0 
" style="fill:none;stroke:#000000;stroke-linecap:square;stroke-linejoin:miter;stroke-width:0.8;"/>
   </g>
  </g>
 </g>
 <defs>
  <clipPath id="p07050f6ec2">
   <rect height="368.64" width="368.64" x="0" y="0"/>
  </clipPath>
 </defs>
</svg>
