<?xml version="1.0" encoding="utf-8" standalone="no"?>
<!DOCTYPE svg PUBLIC "-//W3C//DTD SVG 1.1//EN"
  "http://www.w3.org/Graphics/SVG/1.1/DTD/svg11.dtd">
<!-- Created with matplotlib (https://matplotlib.org/) -->
<svg height="368.64pt" version="1.1" viewBox="0 0 368.64 368.64" width="368.64pt" xmlns="http://www.w3.org/2000/svg" xmlns:xlink="http://www.w3.org/1999/xlink">
 <metadata>
  <rdf:RDF xmlns:cc="http://creativecommons.org/ns#" xmlns:dc="http://purl.org/dc/elements/1.1/" xmlns:rdf="http://www.w3.org/1999/02/22-rdf-syntax-ns#">
   <cc:Work>
    <dc:type rdf:resource="http://purl.org/dc/dcmitype/StillImage"/>
    <dc:date>2021-01-22T17:08:55.887848</dc:date>
    <dc:format>image/svg+xml</dc:format>
    <dc:creator>
     <cc:Agent>
      <dc:title>Matplotlib v3.3.3, https://matplotlib.org/</dc:title>
     </cc:Agent>
    </dc:creator>
   </cc:Work>
  </rdf:RDF>
 </metadata>
 <defs>
  <style type="text/css">*{stroke-linecap:butt;stroke-linejoin:round;}</style>
 </defs>
 <g id="figure_1">
  <g id="patch_1">
   <path d="M 0 368.64 
L 368.64 368.64 
L 368.64 0 
L 0 0 
z
" style="fill:none;"/>
  </g>
  <g id="axes_1">
   <g id="patch_2">
    <path d="M 0 368.64 
L 368.64 368.64 
L 368.64 0 
L 0 0 
z
" style="fill:none;opacity:0;"/>
   </g>
   <g id="patch_3">
    <path clip-path="url(#p0554afcb12)" d="M 181.546026 310.478946 
L 182.223348 312.54853 
L 182.68576 315.477385 
L 183.054116 318.95649 
L 183.453492 322.604179 
L 183.995882 326.016062 
L 184.765921 328.817738 
L 185.811424 330.713441 
L 187.13976 331.524251 
L 188.720173 331.210945 
L 190.491317 329.878548 
L 192.37256 327.762068 
L 194.27716 325.195351 
L 196.125264 322.567192 
L 197.854817 320.270481 
L 199.428924 318.651055 
L 200.838798 317.962918 
L 202.102174 318.335652 
L 203.257748 319.758201 
L 204.356785 322.08105 
L 205.453432 325.036428 
L 206.595353 328.273804 
L 207.816214 331.405939 
L 209.131131 334.059458 
L 210.535676 335.923302 
L 212.008436 336.788766 
L 213.516508 336.575958 
L 215.022859 335.343312 
L 216.49418 333.279039 
L 217.907832 330.675747 
L 219.256631 327.891649 
L 220.550633 325.303525 
L 221.815575 323.257613 
L 223.088236 322.024844 
L 224.409481 321.766232 
L 225.816192 322.512831 
L 227.333497 324.162768 
L 228.968683 326.495589 
L 230.707946 329.201915 
L 232.516686 331.924399 
L 234.343488 334.304577 
L 236.127316 336.02943 
L 237.80691 336.871619 
L 239.330938 336.718194 
L 240.667318 335.584162 
L 241.810113 333.609275 
L 242.782771 331.038633 
L 243.636958 328.189785 
L 244.446902 325.41074 
L 245.299858 323.034465 
L 246.28392 321.33581 
L 247.474899 320.496474 
L 248.924179 320.582447 
L 250.649453 321.536767 
L 252.629849 323.188335 
L 254.806442 325.275475 
L 257.088328 327.480979 
L 259.363682 329.473972 
L 261.514442 330.95302 
L 263.432662 331.684896 
L 265.03627 331.533975 
L 266.281953 330.478573 
L 267.173174 328.612253 
L 267.761988 326.130142 
L 268.144111 323.302213 
L 268.44766 320.437223 
L 268.816871 317.842093 
L 269.39289 315.782117 
L 270.294185 314.447145 
L 271.599306 313.92808 
L 273.334479 314.206578 
L 275.467928 315.159118 
L 277.911954 316.574676 
L 280.532762 318.183508 
L 283.166946 319.693107 
L 285.642597 320.826544 
L 287.80228 321.35815 
L 289.52481 321.141945 
L 290.742791 320.129222 
L 291.45342 318.373172 
L 291.720857 316.02018 
L 291.669607 313.289157 
L 291.469545 310.441807 
L 291.314383 307.74787 
L 291.396325 305.449977 
L 291.880218 303.73269 
L 292.880697 302.699698 
L 294.445484 302.361984 
L 296.547241 302.638293 
L 299.085295 303.367596 
L 301.897239 304.331685 
L 304.779081 305.284734 
L 307.511434 305.985835 
L 309.888369 306.230186 
L 311.745118 305.874891 
L 312.980892 304.856116 
L 313.573655 303.19556 
L 313.584699 300.995625 
L 313.152217 298.424181 
L 312.474496 295.691164 
L 311.784777 293.020259 
L 311.320981 290.619489 
L 311.29423 288.654599 
L 311.860352 287.22863 
L 313.098207 286.370225 
L 314.997842 286.03195 
L 317.460231 286.09861 
L 320.308824 286.404175 
L 323.311563 286.754887 
L 326.210623 286.955321 
L 328.75604 286.833908 
L 330.738828 286.264571 
L 332.019183 285.181751 
L 332.545964 283.587039 
L 332.364728 281.546797 
L 331.613107 279.181362 
L 330.503938 276.647523 
L 329.298237 274.116797 
L 328.271437 271.752514 
L 327.677272 269.688782 
L 327.714064 268.014043 
L 328.497882 266.761247 
L 330.046234 265.905708 
L 332.274537 265.370644 
L 335.006026 265.03939 
L 337.993908 264.772399 
L 340.953009 264.426582 
L 343.596822 263.874315 
L 345.675137 263.01959 
L 347.007281 261.80925 
L 347.506567 260.238023 
L 347.192603 258.34693 
L 346.189753 256.215585 
L 344.711795 253.949679 
L 343.03468 251.665585 
L 341.460868 249.474294 
L 340.279856 247.4669 
L 339.730073 245.703557 
L 339.967159 244.207225 
L 341.042861 242.962846 
L 342.897401 241.921767 
L 345.366439 241.010523 
L 348.201811 240.142525 
L 351.10343 239.230848 
L 353.758225 238.200262 
L 355.881065 236.996841 
L 357.252282 235.593923 
L 357.746858 233.993776 
L 357.351382 232.224993 
L 356.166466 230.336248 
L 354.394239 228.387567 
L 352.312439 226.440549 
L 350.238473 224.549095 
L 348.488067 222.751995 
L 347.333937 221.068429 
L 346.96989 219.496874 
L 347.485095 218.01741 
L 348.851943 216.596842 
L 350.929156 215.19566 
L 353.479793 213.775579 
L 356.201858 212.306377 
L 358.767534 210.770902 
L 360.865949 209.167438 
L 362.243856 207.509132 
L 362.738908 205.820627 
L 362.301126 204.132581 
L 360.999733 202.475061 
L 359.014397 200.871024 
L 356.612012 199.331079 
L 354.112008 197.850492 
L 351.844725 196.409072 
L 350.108281 194.974016 
L 349.129588 193.505361 
L 349.034617 191.96316 
L 349.831832 190.315214 
L 351.41097 188.544023 
L 353.557343 186.651699 
L 355.9798 184.661868 
L 358.3487 182.618015 
L 360.338931 180.578327 
L 361.672336 178.607613 
L 362.153999 176.76744 
L 361.697651 175.105941 
L 360.336854 173.648905 
L 358.220529 172.393666 
L 355.593413 171.306927 
L 352.764014 170.327158 
L 350.064286 169.371496 
L 347.806289 168.346408 
L 346.241531 167.160747 
L 345.528287 165.739406 
L 345.71117 164.035552 
L 346.715591 162.039549 
L 348.357803 159.783032 
L 350.369174 157.337254 
L 352.431471 154.80559 
L 354.218517 152.310947 
L 355.438744 149.979617 
L 355.873075 147.923674 
L 355.403205 146.224372 
L 354.026602 144.918962 
L 351.856339 143.99299 
L 349.105827 143.37943 
L 346.060521 142.965162 
L 343.040359 142.604213 
L 340.357894 142.136257 
L 338.277605 141.408033 
L 336.981721 140.29483 
L 336.546979 138.71904 
L 336.935289 136.663093 
L 337.999461 134.174694 
L 339.503126 131.36333 
L 341.152174 128.388142 
L 342.6335 125.438453 
L 343.655957 122.70935 
L 343.988125 120.375446 
L 343.487986 118.566364 
L 342.120689 117.347353 
L 339.962171 116.70789 
L 337.18828 116.56014 
L 334.050948 116.747839 
L 330.844651 117.064791 
L 327.867632 117.280809 
L 325.383008 117.171859 
L 323.584871 116.550441 
L 322.573749 115.292135 
L 322.344559 113.354556 
L 322.788497 110.78591 
L 323.708449 107.72165 
L 324.84577 104.369283 
L 325.914779 100.982995 
L 326.640357 97.831177 
L 326.793683 95.161013 
L 326.221451 93.164789 
L 324.864807 91.952504 
L 322.76568 91.534662 
L 320.059829 91.817857 
L 316.957723 92.614117 
L 313.715923 93.663174 
L 310.602887 94.66503 
L 307.863759 95.318782 
L 305.688784 95.362666 
L 304.18946 94.610009 
L 303.385413 92.976179 
L 303.203556 90.492673 
L 303.489416 87.306125 
L 304.028928 83.661964 
L 304.577624 79.874479 
L 304.893242 76.286952 
L 304.76737 73.226889 
L 304.051983 70.962189 
L 302.677464 69.664127 
L 300.659921 69.382221 
L 298.097038 70.034641 
L 295.153293 71.415805 
L 292.036716 73.220583 
L 288.970492 75.082281 
L 286.163274 76.619705 
L 283.782201 77.487262 
L 281.932134 77.421525 
L 280.643711 76.278013 
L 279.871575 74.053056 
L 279.502742 70.887546 
L 279.373695 67.051627 
L 279.293671 62.911948 
L 279.070822 58.885421 
L 278.537666 55.385307 
L 277.572412 52.766595 
L 276.113418 51.27789 
L 274.165056 51.026316 
L 271.794491 51.960349 
L 269.120114 53.873227 
L 266.293512 56.426942 
L 263.477677 59.19404 
L 260.824586 61.712113 
L 258.455251 63.544022 
L 256.444901 64.336032 
L 254.815148 63.866134 
L 253.533918 62.07598 
L 252.522844 59.081897 
L 251.670733 55.163086 
L 250.850946 50.728134 
L 249.940023 46.263815 
L 248.834827 42.272574 
L 247.465805 39.206728 
L 245.804619 37.407985 
L 243.865291 37.060339 
L 241.699031 38.162829 
L 239.38382 40.526103 
L 237.01059 43.793709 
L 234.668296 47.485776 
L 232.430233 51.059751 
L 230.343715 53.98053 
L 228.424594 55.790924 
L 226.657298 56.173207 
L 225.000168 54.993468 
L 223.394998 52.322646 
L 221.779034 48.431017 
L 220.097299 43.756401 
L 218.31308 38.849773 
L 216.41476 34.305 
L 214.417781 30.681672 
L 212.361363 28.431012 
L 210.300528 27.83466 
L 208.294766 28.964607 
L 206.395331 31.66991 
L 204.633441 35.592424 
L 203.011587 40.210001 
L 201.499696 44.90199 
L 200.037183 49.028838 
L 198.540897 52.01562 
L 196.918026 53.428598 
L 195.082068 53.034659 
L 192.969372 50.83553 
L 190.553439 47.071828 
L 187.854382 42.195891 
L 184.941513 36.816352 
L 181.928012 31.621251 
L 178.957824 27.289329 
L 176.18618 24.400925 
L 173.756283 23.360122 
L 171.775481 24.338546 
L 170.294639 27.248544 
L 169.294163 31.749812 
L 168.679466 37.289191 
L 168.28737 43.169059 
L 167.903459 48.63589 
L 167.288713 52.977788 
L 166.212256 55.618418 
L 164.485878 56.194996 
L 161.995384 54.60986 
L 158.723924 51.048381 
L 154.763219 45.960251 
L 150.310092 40.005878 
L 145.647587 33.974217 
L 141.112177 28.682187 
L 137.050638 24.86844 
L 133.77192 23.095197 
L 131.500455 23.671102 
L 130.337629 26.605561 
L 130.237455 31.60114 
L 131.000959 38.085787 
L 132.291483 45.281502 
L 133.67034 52.301304 
L 134.64939 58.262467 
L 134.754499 62.401693 
L 133.591916 64.177305 
L 130.908622 63.344922 
L 126.637895 59.996233 
L 120.922756 54.555011 
L 114.112457 47.729925 
L 106.730502 40.429252 
L 99.416488 33.64762 
L 92.847725 28.338759 
L 87.649799 25.290317 
L 84.307329 25.016944 
L 83.087008 27.685847 
L 83.984147 33.085221 
L 86.701657 40.640702 
L 90.666681 49.479002 
L 90.666681 49.479002 
L 90.666681 65.131573 
L 91.740955 65.131573 
L 92.815228 65.131592 
L 93.889501 65.131717 
L 94.963774 65.13218 
L 96.038048 65.133426 
L 97.112321 65.136185 
L 98.186594 65.141542 
L 99.260867 65.15101 
L 100.33514 65.1666 
L 101.409414 65.190891 
L 102.483687 65.227106 
L 103.55796 65.279177 
L 104.632233 65.351819 
L 105.706507 65.450603 
L 106.78078 65.582024 
L 107.855053 65.753575 
L 108.929326 65.973814 
L 110.0036 66.252441 
L 111.077873 66.600364 
L 112.152146 67.029773 
L 113.226419 67.554211 
L 114.300692 68.188643 
L 115.374966 68.949531 
L 116.449239 69.854902 
L 117.523512 70.92442 
L 118.597785 72.179457 
L 119.672059 73.643166 
L 120.746332 75.340549 
L 121.820605 77.298531 
L 122.894878 79.54603 
L 123.969152 82.114029 
L 125.043425 85.035644 
L 126.117698 88.346201 
L 127.191971 92.083301 
L 128.266244 96.286896 
L 129.340518 100.999356 
L 130.414791 106.265546 
L 131.489064 112.132889 
L 132.563337 118.651446 
L 133.637611 125.87398 
L 134.711884 133.856031 
L 135.786157 142.655987 
L 136.86043 152.335153 
L 137.934704 162.957826 
L 139.008977 174.591362 
L 140.08325 187.30625 
L 141.157523 201.17618 
L 142.231796 216.278119 
L 143.30607 232.692379 
L 143.30607 232.692379 
L 148.768921 241.466325 
L 154.231772 250.971028 
L 159.694623 261.235718 
L 165.157473 272.289624 
L 170.620324 284.161978 
L 176.083175 296.882008 
z
" style="fill:#bb6655;"/>
   </g>
   <g id="patch_4">
    <path clip-path="url(#p0554afcb12)" d="M 13.594616 170.771931 
L 19.057467 170.806032 
L 24.520318 170.898595 
L 29.983168 171.078848 
L 35.446019 171.376022 
L 40.90887 171.819348 
L 46.371721 172.438055 
L 51.834572 173.261374 
L 57.297423 174.318534 
L 62.760274 175.638767 
L 68.223125 177.251303 
L 73.685976 179.185371 
L 79.148827 181.470202 
L 84.611678 184.135027 
L 90.074529 187.209075 
L 95.53738 190.721576 
L 101.000231 194.701762 
L 106.463082 199.178862 
L 111.925933 204.182106 
L 117.388784 209.740726 
L 122.851635 215.88395 
L 128.314485 222.641009 
L 133.777336 230.041134 
L 139.240187 238.113555 
L 138.165914 221.699295 
L 137.091641 206.597356 
L 136.017368 192.727426 
L 134.943094 180.012539 
L 133.868821 168.379003 
L 132.794548 157.75633 
L 131.720275 148.077163 
L 130.646002 139.277207 
L 129.571728 131.295156 
L 128.497455 124.072622 
L 127.423182 117.554066 
L 126.348909 111.686722 
L 125.274635 106.420533 
L 124.200362 101.708072 
L 123.126089 97.504478 
L 122.051816 93.767378 
L 120.977542 90.456821 
L 119.903269 87.535206 
L 118.828996 84.967207 
L 117.754723 82.719708 
L 116.680449 80.761725 
L 115.606176 79.064342 
L 114.531903 77.600634 
L 113.45763 76.345596 
L 112.383357 75.276079 
L 111.309083 74.370708 
L 110.23481 73.609819 
L 109.160537 72.975387 
L 108.086264 72.450949 
L 107.01199 72.02154 
L 105.937717 71.673617 
L 104.863444 71.394991 
L 103.789171 71.174751 
L 102.714897 71.003201 
L 101.640624 70.87178 
L 100.566351 70.772995 
L 99.492078 70.700353 
L 98.417805 70.648282 
L 97.343531 70.612068 
L 96.269258 70.587776 
L 95.194985 70.572187 
L 94.120712 70.562719 
L 93.046438 70.557362 
L 91.972165 70.554603 
L 90.897892 70.553356 
L 89.823619 70.552893 
L 88.749345 70.552768 
L 87.675072 70.55275 
L 86.600799 70.552749 
L 86.600799 70.552749 
L 84.06954 76.913907 
L 81.538281 83.066503 
L 79.007021 89.010536 
L 76.475762 94.746006 
L 73.944503 100.272914 
L 71.413244 105.591259 
L 68.881985 110.701042 
L 66.350726 115.602262 
L 63.819466 120.294919 
L 61.288207 124.779014 
L 58.756948 129.054547 
L 56.225689 133.121517 
L 53.69443 136.979924 
L 51.163171 140.629769 
L 48.631911 144.071051 
L 46.100652 147.303771 
L 43.569393 150.327928 
L 41.038134 153.143523 
L 38.506875 155.750555 
L 35.975616 158.149024 
L 33.444356 160.338931 
L 30.913097 162.320275 
L 28.381838 164.093057 
L 25.850579 165.657276 
L 23.31932 167.012933 
L 20.788061 168.160027 
L 18.256801 169.098558 
L 15.725542 169.828527 
L 13.194283 170.349934 
L 10.663024 170.662778 
z
" style="fill:#bb6655;"/>
   </g>
   <g id="matplotlib.axis_1">
    <g id="xtick_1">
     <g id="line2d_1">
      <defs>
       <path d="M 0 0 
L 0 3.5 
" id="m2ff0c65c96" style="stroke:#000000;stroke-width:0.8;"/>
      </defs>
      <g>
       <use style="stroke:#000000;stroke-width:0.8;" x="48.790588" xlink:href="#m2ff0c65c96" y="368.64"/>
      </g>
     </g>
     <g id="text_1">
      <!-- −0.6 -->
      <g transform="translate(36.649182 383.238437)scale(0.1 -0.1)">
       <defs>
        <path d="M 10.59375 35.5 
L 73.1875 35.5 
L 73.1875 27.203125 
L 10.59375 27.203125 
z
" id="DejaVuSans-8722"/>
        <path d="M 31.78125 66.40625 
Q 24.171875 66.40625 20.328125 58.90625 
Q 16.5 51.421875 16.5 36.375 
Q 16.5 21.390625 20.328125 13.890625 
Q 24.171875 6.390625 31.78125 6.390625 
Q 39.453125 6.390625 43.28125 13.890625 
Q 47.125 21.390625 47.125 36.375 
Q 47.125 51.421875 43.28125 58.90625 
Q 39.453125 66.40625 31.78125 66.40625 
z
M 31.78125 74.21875 
Q 44.046875 74.21875 50.515625 64.515625 
Q 56.984375 54.828125 56.984375 36.375 
Q 56.984375 17.96875 50.515625 8.265625 
Q 44.046875 -1.421875 31.78125 -1.421875 
Q 19.53125 -1.421875 13.0625 8.265625 
Q 6.59375 17.96875 6.59375 36.375 
Q 6.59375 54.828125 13.0625 64.515625 
Q 19.53125 74.21875 31.78125 74.21875 
z
" id="DejaVuSans-48"/>
        <path d="M 10.6875 12.40625 
L 21 12.40625 
L 21 0 
L 10.6875 0 
z
" id="DejaVuSans-46"/>
        <path d="M 33.015625 40.375 
Q 26.375 40.375 22.484375 35.828125 
Q 18.609375 31.296875 18.609375 23.390625 
Q 18.609375 15.53125 22.484375 10.953125 
Q 26.375 6.390625 33.015625 6.390625 
Q 39.65625 6.390625 43.53125 10.953125 
Q 47.40625 15.53125 47.40625 23.390625 
Q 47.40625 31.296875 43.53125 35.828125 
Q 39.65625 40.375 33.015625 40.375 
z
M 52.59375 71.296875 
L 52.59375 62.3125 
Q 48.875 64.0625 45.09375 64.984375 
Q 41.3125 65.921875 37.59375 65.921875 
Q 27.828125 65.921875 22.671875 59.328125 
Q 17.53125 52.734375 16.796875 39.40625 
Q 19.671875 43.65625 24.015625 45.921875 
Q 28.375 48.1875 33.59375 48.1875 
Q 44.578125 48.1875 50.953125 41.515625 
Q 57.328125 34.859375 57.328125 23.390625 
Q 57.328125 12.15625 50.6875 5.359375 
Q 44.046875 -1.421875 33.015625 -1.421875 
Q 20.359375 -1.421875 13.671875 8.265625 
Q 6.984375 17.96875 6.984375 36.375 
Q 6.984375 53.65625 15.1875 63.9375 
Q 23.390625 74.21875 37.203125 74.21875 
Q 40.921875 74.21875 44.703125 73.484375 
Q 48.484375 72.75 52.59375 71.296875 
z
" id="DejaVuSans-54"/>
       </defs>
       <use xlink:href="#DejaVuSans-8722"/>
       <use x="83.789062" xlink:href="#DejaVuSans-48"/>
       <use x="147.412109" xlink:href="#DejaVuSans-46"/>
       <use x="179.199219" xlink:href="#DejaVuSans-54"/>
      </g>
     </g>
    </g>
    <g id="xtick_2">
     <g id="line2d_2">
      <g>
       <use style="stroke:#000000;stroke-width:0.8;" x="103.002353" xlink:href="#m2ff0c65c96" y="368.64"/>
      </g>
     </g>
     <g id="text_2">
      <!-- −0.4 -->
      <g transform="translate(90.860947 383.238437)scale(0.1 -0.1)">
       <defs>
        <path d="M 37.796875 64.3125 
L 12.890625 25.390625 
L 37.796875 25.390625 
z
M 35.203125 72.90625 
L 47.609375 72.90625 
L 47.609375 25.390625 
L 58.015625 25.390625 
L 58.015625 17.1875 
L 47.609375 17.1875 
L 47.609375 0 
L 37.796875 0 
L 37.796875 17.1875 
L 4.890625 17.1875 
L 4.890625 26.703125 
z
" id="DejaVuSans-52"/>
       </defs>
       <use xlink:href="#DejaVuSans-8722"/>
       <use x="83.789062" xlink:href="#DejaVuSans-48"/>
       <use x="147.412109" xlink:href="#DejaVuSans-46"/>
       <use x="179.199219" xlink:href="#DejaVuSans-52"/>
      </g>
     </g>
    </g>
    <g id="xtick_3">
     <g id="line2d_3">
      <g>
       <use style="stroke:#000000;stroke-width:0.8;" x="157.214118" xlink:href="#m2ff0c65c96" y="368.64"/>
      </g>
     </g>
     <g id="text_3">
      <!-- −0.2 -->
      <g transform="translate(145.072711 383.238437)scale(0.1 -0.1)">
       <defs>
        <path d="M 19.1875 8.296875 
L 53.609375 8.296875 
L 53.609375 0 
L 7.328125 0 
L 7.328125 8.296875 
Q 12.9375 14.109375 22.625 23.890625 
Q 32.328125 33.6875 34.8125 36.53125 
Q 39.546875 41.84375 41.421875 45.53125 
Q 43.3125 49.21875 43.3125 52.78125 
Q 43.3125 58.59375 39.234375 62.25 
Q 35.15625 65.921875 28.609375 65.921875 
Q 23.96875 65.921875 18.8125 64.3125 
Q 13.671875 62.703125 7.8125 59.421875 
L 7.8125 69.390625 
Q 13.765625 71.78125 18.9375 73 
Q 24.125 74.21875 28.421875 74.21875 
Q 39.75 74.21875 46.484375 68.546875 
Q 53.21875 62.890625 53.21875 53.421875 
Q 53.21875 48.921875 51.53125 44.890625 
Q 49.859375 40.875 45.40625 35.40625 
Q 44.1875 33.984375 37.640625 27.21875 
Q 31.109375 20.453125 19.1875 8.296875 
z
" id="DejaVuSans-50"/>
       </defs>
       <use xlink:href="#DejaVuSans-8722"/>
       <use x="83.789062" xlink:href="#DejaVuSans-48"/>
       <use x="147.412109" xlink:href="#DejaVuSans-46"/>
       <use x="179.199219" xlink:href="#DejaVuSans-50"/>
      </g>
     </g>
    </g>
    <g id="xtick_4">
     <g id="line2d_4">
      <g>
       <use style="stroke:#000000;stroke-width:0.8;" x="211.425882" xlink:href="#m2ff0c65c96" y="368.64"/>
      </g>
     </g>
     <g id="text_4">
      <!-- 0.0 -->
      <g transform="translate(203.47432 383.238437)scale(0.1 -0.1)">
       <use xlink:href="#DejaVuSans-48"/>
       <use x="63.623047" xlink:href="#DejaVuSans-46"/>
       <use x="95.410156" xlink:href="#DejaVuSans-48"/>
      </g>
     </g>
    </g>
    <g id="xtick_5">
     <g id="line2d_5">
      <g>
       <use style="stroke:#000000;stroke-width:0.8;" x="265.637647" xlink:href="#m2ff0c65c96" y="368.64"/>
      </g>
     </g>
     <g id="text_5">
      <!-- 0.2 -->
      <g transform="translate(257.686085 383.238437)scale(0.1 -0.1)">
       <use xlink:href="#DejaVuSans-48"/>
       <use x="63.623047" xlink:href="#DejaVuSans-46"/>
       <use x="95.410156" xlink:href="#DejaVuSans-50"/>
      </g>
     </g>
    </g>
    <g id="xtick_6">
     <g id="line2d_6">
      <g>
       <use style="stroke:#000000;stroke-width:0.8;" x="319.849412" xlink:href="#m2ff0c65c96" y="368.64"/>
      </g>
     </g>
     <g id="text_6">
      <!-- 0.4 -->
      <g transform="translate(311.897849 383.238437)scale(0.1 -0.1)">
       <use xlink:href="#DejaVuSans-48"/>
       <use x="63.623047" xlink:href="#DejaVuSans-46"/>
       <use x="95.410156" xlink:href="#DejaVuSans-52"/>
      </g>
     </g>
    </g>
   </g>
   <g id="matplotlib.axis_2">
    <g id="ytick_1">
     <g id="line2d_7">
      <defs>
       <path d="M 0 0 
L -3.5 0 
" id="m384ae82511" style="stroke:#000000;stroke-width:0.8;"/>
      </defs>
      <g>
       <use style="stroke:#000000;stroke-width:0.8;" x="0" xlink:href="#m384ae82511" y="319.849412"/>
      </g>
     </g>
     <g id="text_7">
      <!-- −0.4 -->
      <g transform="translate(-31.282813 323.648631)scale(0.1 -0.1)">
       <use xlink:href="#DejaVuSans-8722"/>
       <use x="83.789062" xlink:href="#DejaVuSans-48"/>
       <use x="147.412109" xlink:href="#DejaVuSans-46"/>
       <use x="179.199219" xlink:href="#DejaVuSans-52"/>
      </g>
     </g>
    </g>
    <g id="ytick_2">
     <g id="line2d_8">
      <g>
       <use style="stroke:#000000;stroke-width:0.8;" x="0" xlink:href="#m384ae82511" y="265.637647"/>
      </g>
     </g>
     <g id="text_8">
      <!-- −0.2 -->
      <g transform="translate(-31.282813 269.436866)scale(0.1 -0.1)">
       <use xlink:href="#DejaVuSans-8722"/>
       <use x="83.789062" xlink:href="#DejaVuSans-48"/>
       <use x="147.412109" xlink:href="#DejaVuSans-46"/>
       <use x="179.199219" xlink:href="#DejaVuSans-50"/>
      </g>
     </g>
    </g>
    <g id="ytick_3">
     <g id="line2d_9">
      <g>
       <use style="stroke:#000000;stroke-width:0.8;" x="0" xlink:href="#m384ae82511" y="211.425882"/>
      </g>
     </g>
     <g id="text_9">
      <!-- 0.0 -->
      <g transform="translate(-22.903125 215.225101)scale(0.1 -0.1)">
       <use xlink:href="#DejaVuSans-48"/>
       <use x="63.623047" xlink:href="#DejaVuSans-46"/>
       <use x="95.410156" xlink:href="#DejaVuSans-48"/>
      </g>
     </g>
    </g>
    <g id="ytick_4">
     <g id="line2d_10">
      <g>
       <use style="stroke:#000000;stroke-width:0.8;" x="0" xlink:href="#m384ae82511" y="157.214118"/>
      </g>
     </g>
     <g id="text_10">
      <!-- 0.2 -->
      <g transform="translate(-22.903125 161.013336)scale(0.1 -0.1)">
       <use xlink:href="#DejaVuSans-48"/>
       <use x="63.623047" xlink:href="#DejaVuSans-46"/>
       <use x="95.410156" xlink:href="#DejaVuSans-50"/>
      </g>
     </g>
    </g>
    <g id="ytick_5">
     <g id="line2d_11">
      <g>
       <use style="stroke:#000000;stroke-width:0.8;" x="0" xlink:href="#m384ae82511" y="103.002353"/>
      </g>
     </g>
     <g id="text_11">
      <!-- 0.4 -->
      <g transform="translate(-22.903125 106.801572)scale(0.1 -0.1)">
       <use xlink:href="#DejaVuSans-48"/>
       <use x="63.623047" xlink:href="#DejaVuSans-46"/>
       <use x="95.410156" xlink:href="#DejaVuSans-52"/>
      </g>
     </g>
    </g>
    <g id="ytick_6">
     <g id="line2d_12">
      <g>
       <use style="stroke:#000000;stroke-width:0.8;" x="0" xlink:href="#m384ae82511" y="48.790588"/>
      </g>
     </g>
     <g id="text_12">
      <!-- 0.6 -->
      <g transform="translate(-22.903125 52.589807)scale(0.1 -0.1)">
       <use xlink:href="#DejaVuSans-48"/>
       <use x="63.623047" xlink:href="#DejaVuSans-46"/>
       <use x="95.410156" xlink:href="#DejaVuSans-54"/>
      </g>
     </g>
    </g>
   </g>
   <g id="line2d_13">
    <defs>
     <path d="M 0 2 
C 0.530406 2 1.03916 1.789267 1.414214 1.414214 
C 1.789267 1.03916 2 0.530406 2 0 
C 2 -0.530406 1.789267 -1.03916 1.414214 -1.414214 
C 1.03916 -1.789267 0.530406 -2 0 -2 
C -0.530406 -2 -1.03916 -1.789267 -1.414214 -1.414214 
C -1.789267 -1.03916 -2 -0.530406 -2 0 
C -2 0.530406 -1.789267 1.03916 -1.414214 1.414214 
C -1.03916 1.789267 -0.530406 2 0 2 
z
" id="m0d4a571927" style="stroke:#bb6655;"/>
    </defs>
    <g clip-path="url(#p0554afcb12)">
     <use style="fill:#bb6655;stroke:#bb6655;" x="10.663024" xlink:href="#m0d4a571927" y="170.662778"/>
    </g>
   </g>
   <g id="line2d_14">
    <defs>
     <path d="M 0 5 
C 1.326016 5 2.597899 4.473168 3.535534 3.535534 
C 4.473168 2.597899 5 1.326016 5 0 
C 5 -1.326016 4.473168 -2.597899 3.535534 -3.535534 
C 2.597899 -4.473168 1.326016 -5 0 -5 
C -1.326016 -5 -2.597899 -4.473168 -3.535534 -3.535534 
C -4.473168 -2.597899 -5 -1.326016 -5 0 
C -5 1.326016 -4.473168 2.597899 -3.535534 3.535534 
C -2.597899 4.473168 -1.326016 5 0 5 
z
" id="ma28fd81a1a" style="stroke:#ffffff;"/>
    </defs>
    <g clip-path="url(#p0554afcb12)">
     <use style="fill:#ffffff;stroke:#ffffff;" x="89.449412" xlink:href="#ma28fd81a1a" y="130.108235"/>
    </g>
   </g>
   <g id="line2d_15">
    <defs>
     <path d="M 0 7.5 
C 1.989023 7.5 3.896849 6.709753 5.303301 5.303301 
C 6.709753 3.896849 7.5 1.989023 7.5 0 
C 7.5 -1.989023 6.709753 -3.896849 5.303301 -5.303301 
C 3.896849 -6.709753 1.989023 -7.5 0 -7.5 
C -1.989023 -7.5 -3.896849 -6.709753 -5.303301 -5.303301 
C -6.709753 -3.896849 -7.5 -1.989023 -7.5 0 
C -7.5 1.989023 -6.709753 3.896849 -5.303301 5.303301 
C -3.896849 6.709753 -1.989023 7.5 0 7.5 
z
" id="m9c2bb90b01" style="stroke:#bb6655;"/>
    </defs>
    <g clip-path="url(#p0554afcb12)">
     <use style="fill:#bb6655;stroke:#bb6655;" x="112.489412" xlink:href="#m9c2bb90b01" y="214.136471"/>
    </g>
   </g>
   <g id="patch_5">
    <path d="M 0 368.64 
L 0 0 
" style="fill:none;stroke:#000000;stroke-linecap:square;stroke-linejoin:miter;stroke-width:0.8;"/>
   </g>
   <g id="patch_6">
    <path d="M 368.64 368.64 
L 368.64 0 
" style="fill:none;stroke:#000000;stroke-linecap:square;stroke-linejoin:miter;stroke-width:0.8;"/>
   </g>
   <g id="patch_7">
    <path d="M 0 368.64 
L 368.64 368.64 
" style="fill:none;stroke:#000000;stroke-linecap:square;stroke-linejoin:miter;stroke-width:0.8;"/>
   </g>
   <g id="patch_8">
    <path d="M 0 0 
L 368.64 0 
" style="fill:none;stroke:#000000;stroke-linecap:square;stroke-linejoin:miter;stroke-width:0.8;"/>
   </g>
  </g>
 </g>
 <defs>
  <clipPath id="p0554afcb12">
   <rect height="368.64" width="368.64" x="0" y="0"/>
  </clipPath>
 </defs>
</svg>
